
<svg xmlns="http://www.w3.org/2000/svg" version="1.1" xmlns:xlink="http://www.w3.org/1999/xlink" preserveAspectRatio="none" x="0px" y="0px" width="595px" height="595px" viewBox="0 0 595 595">
<defs>
<g id="Layer2_0_FILL">
<path fill="#000000" stroke="none" d="
M 212.8 382.35
Q 213 382.15 213.05 382.1 213.2 381.65 212.9 381.3
L 212.5 380.65
Q 212.7 380.65 212.5 380.5
L 212.5 380.45 211.9 379.25
Q 212.1 379.25 211.9 379.15
L 211 377.5
Q 210.4 376.8 210.35 376.75
L 210 376.35 209.7 375.9 208.5 375.05 207.45 374.6 207.35 374.7
Q 206.6 374.7 206.6 375.4
L 206.75 376.05 208.05 376.9 208.7 377.55 209.4 378.45 210.1 379.8
Q 210.35 380.05 210.35 380.15
L 210.55 380.75 211.45 382.15
Q 211.55 382.35 211.75 382.5 212.05 382.75 212.2 382.75 212.45 382.75 212.8 382.35
M 198.25 371.95
Q 197.85 371.65 197.5 371.65
L 196.5 372
Q 196.05 371.9 195.65 372.25
L 195.4 372.4
Q 195.2 372.5 194.85 372.65
L 191.4 374.75 190.35 375.35 190.05 375.75 189.95 375.8
Q 189.8 376.5 190.4 376.85
L 190.4 377.05
Q 190.8 377.1 191.3 376.65
L 194.2 374.85 195.05 374.5 195.3 374.3
Q 195.5 374.15 196.4 373.75
L 198.3 373
Q 198.3 372.8 198.55 372.7 198.55 372.3 198.25 371.95 Z"/>
</g>

<g id="Layer1_0_FILL">
<path fill="#FFFFFF" stroke="none" d="
M 430.15 186.85
L 430.05 187.1
Q 430.35 187.15 430.55 187.35 430.35 187.1 430.15 186.85
M 432.65 187.95
L 432.7 188
Q 432.75 188 433.05 188.05 433 187.85 432.8 187.7 432.7 187.85 432.65 187.95
M 431.2 187.45
Q 431 187.45 430.6 187.35 430.9 187.45 431.2 187.55 431.3875 187.690625 431.65 187.7
L 432.05 187.7
Q 431.85 187.55 431.8 187.4 431.55 187.45 431.2 187.45
M 434.05 187.35
Q 433.9 187.85 433.75 188.05 433.95 188.45 434.25 188.8 434.65 188.7 434.75 188.3 434.5 187.45 434.05 187.35
M 433 187.45
L 433.05 187.4
Q 433 187.35 433 187.3
L 432.8 187.3
Q 432.75 187.35 432.7 187.4 432.75 187.45 432.8 187.7 432.8 187.55 433 187.45
M 433.15 187.4
Q 433.0509765625 187.40234375 433 187.45 432.8 187.55 432.8 187.7 433 187.85 433.05 188.05 433.3 188.15 433.55 188.15 433.6 188.05 433.75 188.05 433.35 187.7 433.15 187.4 Z"/>
</g>

<path id="Layer2_0_1_STROKES" stroke="#000000" stroke-width="1" stroke-linejoin="round" stroke-linecap="round" fill="none" d="
M 177.35 166.25
Q 178.45 166.35 179.25 166.45 179.4 166.55 179.55 166.65 180.8 167.2 182 167.7 182.5 168 183.05 168.3 183.15 168.35 183.45 168.6 183.65 168.6 183.75 168.7 183.9 168.65 184.1 168.7 184.65 169 185.1 169.5
M 177.8 170.3
Q 178.5 170.1 179.25 170.45 179.6 170.4 179.95 170.45 180.55 170.7 181.35 170.65 181.55 170.65 182.15 170.65 182.35 170.6 182.6 170.6 182.9 170.35 183.35 170.3 183.5 170.1 183.7 170.1 183.95 170 184.2 169.95
M 171.95 154.35
Q 172.65 155.3 173.35 156.2 173.65 156.65 173.95 157.15 174 157.4 174.25 157.55 174.25 157.7 174.5 158 174.5 158.1 174.5 158.3 175.15 159.7 175.6 161.2 175.85 161.55 175.8 161.8 176.35 162.85 176.45 164.45
M 169.45 170.3
Q 168.35 169.2 166.8 168.2 166.7 167.8 166.3 167.65 166.05 167.5 165.75 167.25 164.55 166.5 163.45 165.9 163.4 165.7 163.2 165.5 162.6 165 162 164.45 161.75 164.15 161.5 164 162.1 163.8 162.65 163.8 163.25 163.8 163.6 163.95 166.3 165.35 168.7 166.5 169.45 167.1 170.05 167.35 169.75 166.8 169.4 166.15 169.35 166.05 169.35 166 168.8 165.2 168.45 164.45 167.8 163.55 167.55 162.65 167.25 162.05 167.1 161.75 167 161.75 166.9 161.55 166.7 160.95 166.45 160.75 166.05 160.2 165.95 159.8 165.85 159.25 165.65 158.85 165.65 158.35 165.45 158.05 165.25 157.4 165.3 156.85
M 173.15 166.05
Q 173.25 164.8 172.75 164 172.65 164 172.75 163.65 172.75 163.15 172.55 162.85 172.5 162.35 172.35 161.9 171.95 160 172 158.25 171.75 158.05 171.9 157.95 171.9 157.1 171.95 156.35 171.95 155.8 172 155.45
M 166.05 156.8
Q 166.65 157.35 167.3 157.95 167.8 158.35 168.15 158.85 168.35 158.75 168.2 159.05 168.8 159.75 169.3 160.45 169.75 161.05 169.95 161.4 170.4 162.05 170.6 162.25 170.75 162.4 170.8 162.45 170.75 162.65 170.9 162.75 171.15 163 171.5 163.3 171.5 163.6 171.6 163.7 171.95 164.15 172.35 164.7 172.8 165.15 172.75 165.7
M 168.5 170.6
Q 166.95 177.75 166.5 185.6 166.4 187 166.2 188.25 165.8 192.85 165.65 197.1 165.6 197.85 165.6 198.6 165.55 198.75 165.6 199 165.45 199.3 165.45 199.55 166.4 202.9 168.45 205.7 170.9 208.75 173.5 211.35 173.45 210.3 173.7 209.35 173.7 209.2 173.7 208.85 173.45 205.25 174.85 203.35 175.1 202.55 175.8 202 176.1 201.8 176.35 201.7 177.55 201.2 177.95 199.85 178.25 198.95 178.7 198.5 178.75 198.5 178.75 198.1 178.8 197.95 178.95 197.85 179.25 197.7 179.4 197.65 178.5 196.8 177.95 196.05 176.35 194.05 174.3 192.95
M 177.2 172.35
Q 177.35 180.55 176.95 188.5 176.9 190.35 176.65 192.05 176.6 192.8 176.3 193.55
M 179.4 197.65
Q 179.9 197.25 180 196.75 180.1 196.55 180.3 196.25 180.3 196.15 180.55 196.05 180.85 195.9 181.15 195.75 181.3 195.6 181.6 195.6 182 195.55 182.25 195.55 182.55 195.55 182.7 195.8
M 206.9 200.35
Q 206.6 199 206.35 197.55 206.3 197 206.3 196.45 206.95 189.6 211.25 184.15 209.4 185.25 207.7 186.5 207.4 186.8 207.15 187.1 206.95 187.15 206.85 187.1 203.55 189.65 200.8 192.95 200.05 193.9 199.75 195.2
M 183.15 196.7
Q 183.3 196.8 183.45 197 184.5 197.6 185.45 198.75 186.25 199.85 187.2 200.8 187.5 201.1 187.75 201.3 189.15 203.4 190.05 204.9 190.1 204.9 190.1 204.95 190.5 205.55 190.95 205.9 191 206.05 191.1 206.1 191.7 206.35 192.15 207 192.25 207.2 192.55 207.45 193 208.15 193.7 208.65 193.95 208.8 194.15 209.05 194.25 209.05 194.35 209.05 194.5 209.1 194.65 209.1
M 228.75 166
Q 228.9 165.95 229.1 165.95 230.3 164.75 231.5 163.6 229.9 164.55 228.75 166 228.4 166.45 228 166.9 228.55 166.45 229.1 165.95 231.35 165.3 233.75 164.85 236.8 164.3 239.95 164.2 241.3 163.15 242.75 162.25
M 212.65 174.55
Q 216.9 170.3 222.3 167.45 222.15 165.45 223.75 164.1 224.75 163.25 225.8 162.4 223.85 163 221.9 163.8 217.6 165.45 214.8 169.15
M 211.45 188.25
Q 212.65 182.3 217.6 178.3 218 177.95 218.55 177.65 221.55 173.8 224.8 170.25 226.4 168.55 228 166.9 227.35 167.95 226.8 169.1
M 222.3 167.45
Q 223.15 166.95 224.1 166.55 226 165.65 228.05 164.9
M 250.15 158.65
Q 242.85 159.8 235.8 161.75 237 161.8 238.25 162.05 239.45 162.25 240.6 162.7
M 239.95 164.2
Q 241 164.15 242.05 164.15 242.35 163.95 242.75 163.85 247.95 161.85 253.5 161.6 248.35 161.2 243.15 163.05
M 239.95 164.2
Q 238.55 165.15 237.3 166.25 237.5 166.15 237.7 166 238.95 165.45 240.05 164.9 241.05 164.5 242.05 164.15 243.5 164.1 244.95 164.15
M 231.5 163.6
Q 233.25 162.45 235.5 161.8 235.6 161.75 235.8 161.75 232.3 161.5 228.75 162.55
M 236.7 166.75
Q 237 166.5 237.3 166.25 235.2 167.2 233.9 169.1 234.6 168.6 235.15 168.05 235.9 167.4 236.7 166.75 241.6 165.9 246.6 165.3 247.95 165.15 249.4 165.3 250.2 165.35 250.95 165.45 252.35 164.55 253.9 163.85 253.05 163.65 252.2 163.45
M 216.25 189.3
Q 217.2 188.2 218.15 187.1 218.25 187 218.45 186.8 221.1 183.75 223.85 180.8 224.65 180 225.55 179.25 227.6 173.3 232.9 169.75 233.45 169.45 233.9 169.1 233.2 170.1 232.7 171.45
M 227.55 177
Q 229.65 173.5 233.55 172.3 235.6 171.6 237.65 170.9 240.3 169.95 243.05 169.45 242 168.8 241.05 168.2
M 225.8 162.4
Q 227.7 160.8 229.75 159.35 234.3 156.1 239.7 155.75
M 225.8 162.4
Q 229.2 161.3 232.85 160.6
M 215.85 161.65
Q 214.95 162.8 214.15 164 215.35 162.7 217.05 161.8 218.6 160.9 220.05 159.85 221 159.15 222 158.45 224.7 156.8 227.75 155.9
M 205.85 179.1
Q 207.75 174.4 210.3 170.05 210.4 169.8 210.6 169.55 211.15 168.55 211.75 167.65 211.85 167.4 212 167.2 212.8 165.35 214.15 164 213.25 165.2 212.4 166.55 212.2 166.85 212 167.2
M 222.3 167.9
Q 222.3 167.7 222.3 167.45
M 210.6 169.55
Q 214.5 165 220.05 163.3 221.15 163 222.15 162.65 223.2 162.25 224.3 162.05
M 211.9 182.9
Q 214.25 176.6 218.5 171.6 218.75 171.45 218.9 171.2
M 222.3 176.15
Q 221.55 176.25 220.9 176.5 217 181.25 214.5 187.15
M 218.55 177.65
Q 219.65 176.9 220.9 176.5 221.3 176 221.7 175.6 222.85 174.35 224.3 173.6
M 216 180.9
Q 217.2 179.25 218.55 177.65
M 206.85 187.1
Q 206.65 186.95 206.8 186.2 207.4 182.75 208.95 179.4 209.25 178.65 209.55 178 206.75 180.5 204.15 183.35 201.45 186.35 199.55 189.8
M 206.85 167.65
Q 205 173.2 203.7 178.8 203.3 180.8 203.4 182.85
M 211.55 183.75
Q 211.35 183.95 211.25 184.15
M 208.2 185.65
Q 207.95 186.1 207.7 186.5 207.25 186.75 206.85 187.1
M 218.15 187.1
Q 216.7 190.35 217 193.9 217.05 194.9 217.05 195.85 217 200.6 219.35 204.7
M 222.7 192.15
Q 220.9 193.6 220.8 195.75 220.8 196.7 220.7 197.6 220.7 197.65 220.7 197.7 225.2 192 230.55 187.35 231.55 186.45 232.7 185.65 233 184.45 233.55 183.3
M 214.5 174.05
Q 211.9 175.85 209.55 178 210.6 175.15 210.95 172.2
M 212.9 187.9
Q 210.3 190.3 209.75 193.9 209.4 196.55 209.4 199.05 209.4 200.05 210 200.9
M 241.9 174.05
Q 239.9 175 238.4 176.4 240.25 176.4 242.05 176.2 247.3 175.85 252.5 176.1 252.65 176 252.8 175.95 251.65 175.05 250.45 174.2 248.65 173 246.9 171.85 246.75 171.85 246.7 171.8 244.3 172.9 241.9 174.05 Z
M 229.35 177.35
Q 229.5 176.9 229.7 176.6 227.6 177.7 225.65 179.15 231.5 176.5 237.95 176.4 238.2 176.4 238.4 176.4 237.4 177.3 236.65 178.3 236.15 178.9 235.75 179.55
M 221 185.9
Q 225.8216796875 182.0724609375 231.725 180.925
L 231.75 180.9 231.8 180.9
Q 232.95 180.05 234.2 179.4 235.35 178.8 236.65 178.3
M 231.8 180.9
Q 232.35 180.7 232.95 180.65 234.75 180.35 236.6 180.05 239.6 179.55 242.65 179.2 242.85 179.1 243.05 179.05 247.75 177.35 252.5 176.1 252.75 176.1 253 176.1 252.85 176 252.8 175.95 253.05 175.9 253.3 175.85 250.45 173.5 246.9 171.85 246.85 171.8 246.75 171.8
L 246.7 171.8
Q 246.45 171.65 246.35 171.55 244.8 170.55 243.25 169.55 238.65 170.65 234.15 172.5 231.15 173.8 229.7 176.6 230.25 176.25 230.85 176
M 247.3 178.6
Q 244.95 178.85 242.65 179.2 241.6 179.55 240.45 180 236.8 181.4 234.35 184.5 235.75 183.6 237.2 182.85 237.9 182.45 238.7 182.1
M 234.65 184.75
Q 234.35 185.1 234.05 185.55 233.9 191.15 234.75 196.7 234.9 197.55 235.05 198.3 235.35 199.9 235.85 201.45
M 225.55 179.25
Q 225.6 179.2 225.65 179.15
M 231.725 180.925
Q 231.765234375 180.906640625 231.8 180.9
M 221.15 192.9
Q 221.7 189.35 224.45 186.85 225.2 186.2 225.85 185.6 228.691015625 183.0580078125 231.725 180.925
M 225.1 180.6
Q 225.3 179.95 225.55 179.25
M 234.05 185.55
Q 233.1 186.85 232.15 188.2 232 189.6 232.05 191.05 232.05 192 232.05 192.95 232.15 196.95 232.85 200.85 233.25 199.75 234 198.7
M 232.15 188.2
Q 231.05 189.8 230.05 191.5 229.65 192.3 229.4 193.15 228.5 196.55 228.6 200.15 228.7 197.85 229.65 195.6
M 226.45 192.7
Q 225.3 194.4 225.5 196.35 225.65 197.8 225.65 199.3 225.65 200.15 225.7 201 225.95 204.45 227.05 207.8
M 234.35 184.5
Q 233.5 185.05 232.7 185.65 232.35 186.85 232.15 188.2
M 237.8 185.05
Q 237.8 186.1 237.85 187.05 238.3 186.45 238.8 185.9 239.7 185 240.8 184.3 245.6 181.2 250.85 178.9 246 180 241.6 182.3
M 236.1 189.35
Q 236.95 188.15 237.85 187.05 238.1 192.95 239.85 198.55 240.2 199.75 240.35 201
M 221.5 168.9
Q 225 167.15 228.75 166
M 253.5 161.6
Q 255.7 161.8 257.9 162.35 261 161.5 264.35 161.3 264.95 161.3 265.5 161.55
M 264.35 164.4
Q 262.7 163.7 260.85 163.15 259.75 162.85 258.5 162.5 258.2 162.45 257.9 162.35 255.8 162.95 253.9 163.85 260.4 165.35 265.95 168.8 266.9 169.45 268.05 169.85 269.05 169.4 270.15 168.95 270.95 168.65 271.9 168.8 273.15 168.9 274.4 169.1
M 246.35 168.95
L 246.4 168.9
Q 246.2 168.9 246.05 168.95 246.15 168.95 246.35 168.95 248.5 168.7 250.7 168.8
M 245.8 169.45
Q 246.1 169.2 246.35 168.95
M 246.4 168.9
Q 246.9 168.8 247.35 168.7 249 168.4 250.6 168.2 254.1 167.75 257.6 167.75 257.8 167.7 258.05 167.7 258.2 167.65 258.45 167.55 259.3 167.4 260.2 167.15 255.65 165.9 250.95 165.45 248.55 166.9 246.4 168.9 Z
M 243.05 169.45
Q 243.15 169.5 243.25 169.55 244.65 169.2 246.05 168.95 244.55 169.15 243.05 169.45 Z
M 246.35 171.55
Q 246.5 171.65 246.75 171.8 250.4 170.15 254.2 168.8 255.85 168.2 257.6 167.75
M 260.2 167.15
Q 260.95 167.35 261.7 167.55
M 259.5 174.95
Q 259.8 175.1 260.1 175.3 260.75 175.05 261.5 174.8 260.4 174.25 259.35 173.8 258.15 174.35 257 174.95 257.8 174.75 258.6 174.65 259.25 174.5 259.9 174.45
M 260.95 176.85
Q 259.65 176.7 258.4 176.55 259 177.1 259.6 177.65 261.35 177.45 263.1 177.4 261.7 176.25 260.1 175.3 258.95 175.65 257.85 176.1 258.1 176.3 258.4 176.55 257.75 176.45 257.15 176.4 256 176.8 254.85 177.3 255.25 177.65 255.7 178.15 257.6 177.8 259.6 177.65 260.45 178.5 261.3 179.4 262.85 178.95 264.55 178.65 263.85 178 263.1 177.4 264.6 177.3 266.05 177.3 263.85 175.95 261.5 174.8 263.4 174.1 265.35 173.4 266.95 172.9 268.6 172.7
M 253.3 175.85
Q 254.85 175.4 256.4 175.05 256.45 175.05 256.6 175.05 254.7 173.5 252.6 172.15
M 257 174.95
Q 256.75 175 256.6 175.05 257.25 175.55 257.85 176.1 257.5 176.25 257.15 176.4 256.55 176.3 255.95 176.25 254.8 176.15 253.6 176.15 254.25 176.7 254.85 177.3 253.7 177.7 252.55 178.2 251.7 178.55 250.85 178.9 252.3 178.6 253.75 178.35 254.7 178.25 255.7 178.15 256.6 179.05 257.4 180.1 257.5 180.25 257.6 180.4 258 180.3 258.35 180.2 259.8 179.75 261.3 179.4 263.7 182.05 265.7 185.2 265.75 185.05 265.75 184.95 265.9 184.3 266.05 183.6
M 253.3 175.85
Q 253.45 175.95 253.6 176.15 253.3 176.1 253 176.1 253.2 176.3 253.5 176.55
M 257.6 180.4
Q 258.15 181.15 258.65 181.85
M 251.95 190.4
Q 249.95 191.25 248.15 192.4 247.75 192.7 247.45 193.25 246.45 195.25 246.45 197.5
M 233.15 202.35
Q 232.95 201.65 232.85 200.85 231.55 204.3 232.95 208.1 233.75 210.2 234.45 212.45 234.6 212.85 234.75 213.3 235.15 213.35 235.5 213.4 237.2 213.75 238.25 214.65 240 216 243.55 215.75 245.9 215.55 247.75 214.5 248.5 214 249.35 213.7 252 212.75 253.9 211.7 256.35 210.4 258.35 208.8 258.75 208.5 259.2 208.1 260.45 206.95 261.1 204.9 261.25 204.45 261.5 204.1 263 202.05 262.4 198.85 262.3 198.25 262.25 197.6 262.15 196.25 262.45 195.05
M 249.05 184.3
Q 253.05 181.8 257.6 180.4
M 268.4 177.2
Q 267.95 177.2 267.45 177.2 266.8 177.2 266.05 177.3 266.8 177.65 267.5 178.15 269.2 177.8 270.95 177.6 271.4 177.6 271.9 177.6
M 264.55 178.65
Q 266 178.35 267.5 178.15 270.2 179.7 272.75 181.45 273.3 181.8 273.85 182.05
M 265.7 185.2
Q 266.35 186.2 266.95 187.3 267.45 188.05 267.75 188.85
M 264.55 178.65
Q 267.7 181.6 269.7 185.7 270.05 186.5 270.4 187.3
M 261.85 195.2
Q 262.8 191.15 264.2 189.05 265.15 187.55 265.7 185.2
M 257.05 172.7
Q 258.2 173.25 259.35 173.8 263.65 171.65 268.05 169.85
M 152.15 303.45
Q 151.75 297.4 151.45 290.75 151.15 284.05 152.85 278.95 154.5 273.8 155.35 271.6 156.2 269.3 156.15 268.2 155.9 264.15 157.25 260.8 158.2 258.45 158.6 255.7 158.8 254.95 159.8 253.8 160.85 252.65 161.15 251.4 161.4 250.1 160.45 247.3 159.5 244.5 175.1 228.9 175.55 228.35 176.15 227.8 177.9 225.25 178.75 222.6
L 178.75 222.55
Q 178.9 222.15 179.2 221.85 179.25 221.8 179.3 221.8 179.25 221.7 179.25 221.65 179.1 221.25 179.05 220.45 178.9 219.6 178.8 218.8 178.45 217.8 177.85 217.25 177.65 216.95 177.35 216.75 176.95 216.25 176.4 216.05 176.15 216 175.9 215.75 175.75 215.7 175.6 215.65 174.95 215.25 174.35 214.25
M 154.45 303.3
Q 155.2 304.15 155.85 304.85 156.1 305.2 156.2 305.2 156.85 304.55 157.05 303.75 157.3 304.15 157.4 304.3
L 157.4 303.85
Q 157.4 303.25 157.4 302.65 157.3 302.55 157.25 302.5 157.15 302.8 157.05 303.05 156.65 303.05 156.2 303.15
L 156.15 302.8
Q 155.9 302.95 155.8 303.4 155.8 303.55 155.9 303.75
M 157.25 302.5
Q 157.1 302.25 157.1 301.85 157.1 301.7 157.45 301.5 157.45 301.8 157.45 301.9 157.4 302.1 157.3 302.25 157.3 302.45 157.25 302.5 Z
M 157.1 301.85
Q 157.3 302.2 157.45 301.9
M 158.6 302.55
Q 158.55 302.75 158.5 302.95 158.453125 303.090625 158.45 303.225
L 158.45 303.25
Q 158.45 303.65 158.45 304.15 158.45 304.45 158.45 304.8 158.5 304.7 158.6 304 158.75 303.35 158.6 302.75 158.6 302.7 158.6 302.55 158.55 302.45 158.5 302.35 158.4509765625 302.7423828125 158.45 303.225
M 158.5 302.35
Q 158.6 302 158.6 301.7 158.7 302.15 158.6 302.55
M 152.85 303.9
Q 155.8 301.5 159.1 299.85 159.75 299.55 160.5 299.35 164.75 298.25 169.4 298.4 170.4 298.4 171.35 298.35 172.45 298.25 173.5 298.25 175.4 298.25 177.25 298.25 179.85 298.15 182 298.65 183.6 299 184.95 299.2 189.75 300.15 194.35 298.1 194.55 298 194.75 297.85 198.6 296.1 202.55 295.45 203.05 295.35 203.65 295.4 205 295.4 206.25 295.7 206.45 295.75 206.65 295.95 207.15 296.2 207.8 296.5 209.45 297.15 211.35 297.2 212.4 298.15 213.1 299.35 214.15 297 215.1 294.9 216.6 291.65 215.45 288.05 215.3 287.35 215.3 286.65 215.3 285.3 214.4 284.1 214.1 283.65 213.85 283.05 213.75 282.55 213.35 282.15 210.45 278.85 211.85 275.3 212.2 274.35 212.45 273.25 212.7 272.2 213.1 271.05 213.75 269.45 212.75 268.9 212.5 268.8 212.75 268.15 213.05 267.3 213.5 266.65 216.2 263.1 217.65 258.75 218.25 256.75 219.65 254.2 220 253.6 220.05 252.9 220.65 248.85 221.9 245.05 221.25 243.25 221.3 240.95 221.3 240.45 221.4 240 221.45 239.7 221.2 239.5 220.2 238.65 219.8 237.65 219.5 236.95 219.2 236.3 218.9 235.75 218.6 235.3 217.75 233.85 216.9 232.1
M 153.55 304.25
Q 155.2 306.1 157.95 306 158.55 306 159.1 306 159.3 303.45 159.65 300.9
M 159.1 306
Q 158.9 308.5 158.9 310.9 158.9 311.25 158.9 311.55
L 158.9 311.6
Q 158.9 312.35 159 313.05 159.1 313.9 159 314.65
M 152.4 344.55
Q 148.05 347 147.45 346.35 140 350.2 126.25 355.15 120.5 357.2 116 359.05
M 158.9 311.55
Q 156.15 323.8 155 330.65 153.8 337.85 153 347.6
M 109.8 360.1
Q 109.8 360.75 109.95 361.3 110.1 362.15 110.35 362.85 111.35 365.65 112.3 368.35 112.45 368.6 112.45 368.7 112.85 370.35 113.45 371.4 114.05 372.5 114.5 373.95 114.55 374.05 114.65 374.2 115.75 376.2 116.7 377.7 117 378.05 117.4 378.45 118.1 379.4 119.55 379.75
M 100.55 364.8
Q 102.25 366.9 102.55 369.3 102.6 369.8 102.6 370.25 103.7 375.5 103.8 381.25 103.95 386.3 103.95 391.4
M 109.35 362.8
Q 107.2 363.2 104.85 363.65 104.25 363.8 103.65 363.95 101.8 364.35 99.7 364.35
M 114.75 358.2
Q 112.8 358.7 111.35 358.9 111.05 359.05 110.75 359.2
M 115.05 357.9
Q 115.8 359.25 115.8 360.75 115.8 360.85 115.8 361.05 115.85 362.55 116.55 363.75
M 99.05 363.8
Q 97.8 366.95 97.6 370.25 97.5 372.8 97.5 375.45 97.5 375.75 97.5 376.05 100.1 378.25 101.5 380.95 101.65 381.25 101.8 381.55
M 102.65 389.8
Q 102.45 389.55 102.2 389.2 101.95 388.95 101.75 388.7 99.9 386.65 97.8 385.05 97.8 385.7 97.8 386.5 98.15 390.65 99.3 394.45 100.3 397.4 102.15 399.65
M 97.2 384.6
Q 97.4 384.8 97.8 385.05 97.4 380.5 97.5 376.05
M 120.45 372.5
Q 120.5 372.75 120.6 373 120.65 373.15 120.75 373.35 121.3 374.45 121.9 375.45 122.25 376.2 122.55 376.65 123 377.35 123.6 377.85
M 104.35 369.25
Q 105.5 371.9 105.75 374.45 105.85 374.7 105.85 374.85 105.9 375.2 105.9 375.65 105.9 376.25 105.9 376.35 106 377.7 106.05 378.9 106.15 380.45 106.15 381.9 106.25 383.55 106.15 385.25
M 105.75 374.45
Q 105.85 375.15 105.9 375.65
M 103.65 391.75
Q 103.8 393.65 103.35 395.4 102.85 397.75 102.45 400.2
M 103.55 400.2
Q 105 398.35 106.25 396.4 107 395 107.9 393.6 111 388.8 113.15 383.65 113.4 383.1 113.7 382.5
M 156.15 351.35
Q 153.75 351.35 151.85 350.45 151.65 350.3 151.3 350.15
M 153.2 348.4
Q 154 350.45 156.15 350.85 156.35 350.9 156.45 351.05
M 124 376.2
Q 127.85 374.85 131.05 373.65 131.65 373.4 132.15 373.3 134.2 372.65 135.85 372.1 136.55 371.9 137.2 371.7 138.4 371.3 139.55 370.95 144.65 369.25 149.35 367.7 149.7 367.6 150.05 367.4 154.8 365.15 159.45 361.15 160.15 361.1 160.3 360.45 160.95 360.2 161.55 359.85 162.7 359.1 164.25 357.65 166.9 355.15 167.65 352.6 169.65 346.8 172 342.1 172.9 340.05 173.8 337.85 174.5 336.35 175.45 334.1 175.75 333.6 175.85 333 176.85 330.9 177.55 329.35 178.2 328.05 179 326.55 179.35 325.65 179.8 324.95 181.45 321.5 183.05 319.2
M 118.95 379.15
Q 120.5 378.7 122 378.25 122.45 378.1 122.65 377.55
M 123.25 376.5
Q 123.35 376.35 123.65 376.25
M 224.35 218.7
Q 225 219.2 225.65 219.65 231.45 224 234.7 229.55 235.05 230.1 235.3 230.6 235.75 231.25 236.1 231.9 238.7 235.7 240.85 239.8 242.35 242.9 244.7 247.35 244.65 247.3 244.4 247.45 244.85 248.6 244.65 250 244.6 250.15 244.6 250.4 244.55 250.5 244.55 250.6 244.45 250.9 244.4 251.1 245.55 253.15 246.3 255.3 246.3 255.35 246.35 255.5 246.75 255.2 247.2 254.9
M 221.9 245.05
Q 222 245.3 222.1 245.55 222.4 246.15 223.05 246.3 223.2 246.4 223.45 246.45 223.9 246.8 224.35 247.2 225 247.95 225.35 248.9 225.6 249.5 225.85 250.25 226 250.85 226.2 251.55 226.35 252.05 226.75 252.75 226.8 252.55 226.95 252.4 227.6 251.25 228.45 250.6 229.5 249.95 230.95 249.7 231.8 249.55 232.7 249.5 233.4 249.45 233.5 249.75 233.5 249.8 233.75 249.85 235.65 250.05 237.2 248.95 237.8 248.6 238.4 248.1 238.65 247.9 240 246.5 241.3 245.25 244.3 247.1 244.4 247.15 244.4 247.45
M 276.3 246.85
Q 279 245.7 281.65 244.75 282.05 244.65 282.2 244.65 283.55 244.35 284.5 244 284.15 245.3 282.75 246.05 281.35 246.9 279.8 247.6 278.85 248.05 278.05 248.3 277.75 248.45 277.45 248.5 277.25 248.55 277.1 248.55 280.75 248.75 283.95 248.75 284.65 248.75 285.3 248.75 285.9 248.75 286.6 248.75 286.7 248.75 286.8 248.75 287.5 248.8 288.25 248.9 288.35 249.35 287.7 249.5 284.75 250.4 280.65 250.9 279.45 251.1 278.3 251.3 280.85 251.5 282.9 252.15 284.75 252.85 285.9 253.55 284.85 254.15 283.5 253.9 283.1 253.85 282.6 253.8 280.85 253.65 279.1 253.55 278.8 253.55 278.35 253.5 277.45 253.5 276.45 253.35
M 271 248.35
Q 270.1 245.55 269.45 242.95 269.15 241.65 269.3 240.25 271 241.85 272.05 243.8 273 245.55 274.3 247.05
M 228.9 252.3
Q 229.15 252.85 229.4 253.35 229.5 253.6 229.65 253.9 229.8 254.35 230 254.8 230.05 255 230.1 255.25 230.35 256.15 230.95 256.95 231.35 257.4 231.8 257.85 232.15 258.15 232.5 258.5 233 259.05 233.5 259.6 234.3 260.5 234.7 261.45 235.3 262.45 235.85 263.45 236.4 264.6 236.9 265.45 237.25 266.15 238.1 266.5 238.45 266.55 238.85 266.55 238.95 266.55 239 266.55 240.25 266.65 241.35 266.45 242.75 266.25 244.25 265.95 244.45 265.95 244.65 265.9 246.7 265.05 249.65 263.75 251.85 262.75 253.75 261.55 254.25 261.25 254.8 261.15 254.9 261.15 255.2 261.05 257.3 259.95 260.25 258.8 261.6 258.25 262.45 257.75 263.05 257.4 263.85 257.15 266.25 256.4 268.15 255.85
M 242.65 247.8
Q 242.95 248.6 243.35 249.25 243.4 249.4 243.45 249.5 243.55 249.7 243.65 249.85 243.75 250 243.85 250.15 244.1 250.6 244.4 251.1
M 246.35 255.5
L 246.45 255.55
Q 246.6 255.9 246.7 256.15
M 247.8 254.55
Q 252.05 252.2 257.2 251.25 259.95 250.8 268.65 249.8
M 235.05 198.3
Q 233.45 200.75 234.2 203.5 235.2 206.95 236.95 210.2
M 228.6 200.15
Q 228.55 201.35 228.75 202.55 228.85 203.65 228.9 204.65 229.15 208.65 231.8 211.4
M 224.7 217.85
Q 225.1 217.15 225.6 216.4 226.5 214.95 227.45 213.6 228.15 212.65 228.85 211.85
M 229 212.45
Q 230.3 212.8 231.65 212.85 233.45 212.95 234.75 213.3 235.2 214.25 236.05 215
M 203.1 209.2
Q 205 209.05 206.85 208.85 212.2 208.25 214.55 203.95 214.5 203.8 214.45 203.75 212.65 201.5 211.75 199 211.55 198.45 211.05 197.9
M 216 205.5
Q 215.25 204.7 214.55 203.95
M 216.75 186.5
Q 213 192.6 213.3 199.95 213.4 202 214.45 203.75
M 208.55 209.25
Q 209.95 214.35 215 216.3 216.7 216.95 218.5 216.7 219.75 216.6 221.1 216.6
M 234.7 229.55
Q 235.3 230.7 236.1 231.9
M 195.6 209.4
Q 196.05 209.7 196.8 209.65
M 193.25 208.7
Q 193.45 208.95 193.65 208.95 193.9 209 194.15 209.05
M 179.3 221.8
Q 180.4 220.65 181.75 219.9 182.6 219.45 183.65 219.05 186.25 216.75 188.2 214.85 190.4 212.75 193.3 211.55 194.25 211.1 195.3 210.8 195.9 210.6 196.5 210.4 199.4 209.4 202.4 208.75
M 174.1 213.65
Q 173.65 212.35 173.5 211.35
M 181.95 220.5
Q 182.8 219.8 183.65 219.05
M 167.9 282.35
Q 173.25 284.55 178.9 285.25 179.65 285.3 180.4 285.4 182.7 285.55 185.05 285.7 184.75 285.85 184.4 285.95 182.6 286.55 180.65 286.75 180 286.85 179.4 286.95 174.9 287.85 170.5 286.75
M 166.8 286.6
Q 168.75 288.05 171 288.6 176.4 289.9 182 290.2
M 230 254.8
Q 229.6 254.75 229.15 254.7 227.6 254.25 226.7 252.85 226.7 252.75 226.75 252.75
M 213.1 299.35
L 213.2 299.45
Q 213.5 299.8 213.4 300.35 213.4 301.1 213.4 301.85 212.45 302.75 211.5 303.6 211.45 303.65 211.35 303.75 212.35 305.15 213.4 306.3 214.55 307.65 215.6 308.95 219.9 314.65 223.25 320.75 226.7 326.9 229.1 333.4 231.7 340.2 233.75 346.95
M 210.05 298.15
Q 210.1 298.45 210.15 298.75 210.15 298.9 210.15 298.95 210.3 298.75 210.35 298.65
L 210.35 298.75
Q 210.4 299.35 210.7 299.3 210.85 299.05 210.9 299 210.95 299 211.15 299.15 211.2 299.25 211.2 299.3 211.3 299.35 211.35 299.45 211.15 298.45 211.55 299.45 211.7 299.5 211.75 299.55 211.6 299.3 211.55 299 211.35 298.55 211.3 298.05
M 210.55 300.15
Q 210.4 300.4 210.15 300.5 210.15 301.7 211.3 300.95 211.35 300.15 210.75 299.55 210.65 299.45 210.45 299.35 210.3 299.3 210 299.15 209.75 299.05 209.5 298.7 209.4 298.35 209.2 297.85
M 212.05 300.35
Q 212.121875 300.396875 212 299.95 211.9 299.75 211.75 299.55 211.8 299.85 211.9 300.1
L 211.9 300.125
Q 211.9125 300.2125 212 300.3 212.028125 300.3375 212.05 300.35 212.05 300.45 212.05 300.5 212.1 300.65 212.05 300.75 212.3 301.05 212.4 301.4 212.3 301.4 211.9 301.8 211.75 302.35 211.55 302.45 211.5 302.1 211.6 301.8 211.75 301.65 211.7 301.55 211.6 301.4 211.55 301.3 211.6 301.25 211.7 301.05 211.75 300.8 211.85 300.5 211.9 300.4 212 300.4 211.91171875 300.2236328125 211.9 300.125
M 211.35 303.75
Q 210.1 302 209.2 300.05 209.1 299.75 208.95 299.5 208.3 298.35 207.75 297.1 207.7 296.95 207.8 296.5
M 212.05 300.35
L 212 300.4
Q 212 300.6 212.05 300.75
M 208.95 299.5
Q 209.5 300.15 209.8 300.9 210.05 300.75 210.15 300.5
M 211.55 299.45
Q 211.75 299.85 211.9 300.1
M 182.75 306.2
Q 185.2 311 187.6 315.45 188.4 316.65 189.05 317.7 192.8 323.2 197.2 328.05 202.05 333.5 206.05 339.55 206.8 340.55 207.6 341.6 208.35 342.65 209.1 343.75 209.65 344.35 210.1 344.95
M 212.2 341.45
Q 212.9 341.75 213.6 341.95 216.15 342.6 218.55 341.95 218.6 341.9 218.65 341.9 218.85 341.8 218.95 341.8
M 218.55 341.95
Q 217.05 343.2 215.45 343.65 215.15 343.75 214.85 343.7
M 214.5 344.65
Q 217.05 344.75 219.45 344.65 219.95 344.65 220.35 344.65
M 213.6 341.95
Q 209.85 347.65 205.95 353.35 202.05 358.9 198 364.35 196.55 366.55 195.15 368.65 194.2 370.1 193.25 371.6 192.3 373.1 191.4 374.75
M 187.3 387.6
Q 184.75 387.5 183 386.6 182.3 386.9 181.85 387.3 181.65 389.25 181.7 391.3 181.85 391.5 181.85 391.7 181.9 392.65 181.95 393.5 182 393.85 182 394.2 182 395 182.2 395.7 182.2 395.85 182.25 396.1 182.25 396.15 182.25 396.2 182.35 396.8 182.5 397.35 182.5 397.45 182.55 397.7 182.6 398.15 182.75 398.55 186.3 399.1 189.65 399.5 190.2 399.6 190.8 399.65 191.4 399.8 192 400.05
M 192 380.95
Q 191.85 380.75 191.9 380.6 191.95 380.6 192 380.6 192.15 380.5 192.2 380.45 192.45 380.3 192.75 380.2 192.7 380.4 192.75 380.45 192.45 380.8 192 380.95 191.3 381.25 191.5 381.5 192.1 381.3 192.85 381.5 194.2 380.45 195.4 379.8 195.95 379.45 196.6 379.15
M 192.75 380.45
Q 192.55 380.5 192.4 380.6 192 380.65 192 380.95
M 189.6 377.1
Q 189.2 377.55 188.95 378.15
L 188.95 378.25
Q 188.1 379.8 187.45 381.3 187.5 382.85 188.4 383.9 189.6 383.3 190.75 382.85 191.1 382.75 191.5 382.5
M 189.75 381.95
Q 189.75 382.15 189.75 382.2 190.1 382.1 190.4 381.85 190.35 381.85 190.15 381.9 189.95 381.9 189.75 381.95
L 189.5 382.15
Q 189.2 382.2 188.7 382.25
M 191.5 381.5
Q 191 381.85 190.75 381.85 190.5 381.85 190.4 381.85 190.45 381.8 190.5 381.8 190.7 381.8 190.75 381.85
M 183 386.6
Q 185.55 385.05 188.4 383.9
M 187.7 387.2
Q 189.2 388 190.5 389 191 389.4 191.3 389.8 192.1 390.95 192.55 392.1 192.9 392.7 193.15 393.3 193.35 393.6 193.4 393.85 193.7 394.7 193.9 395.55 194.8 398.55 195.3 401.65 195.8 405.65 195.6 409.75 195.45 412.55 195.15 418.25 195.4 418.25 195.6 418.4 198.6 412 199.85 405.5 200 404.5 200.2 403.6 201.2 400.2 201.55 396.7 201.6 395.7 201 394.8 201 395.7 201.05 396.7
M 191.55 386.6
Q 192.15 386.9 192.55 387.1 192.7 387.2 192.75 387.3 193.05 387.5 193.35 387.9 193.4 387.95 193.45 387.95 193.6 388.05 193.75 388.25 193.9 388.3 194.05 388.35 194.15 388.55 194.15 388.6 194.2 388.65 194.25 388.7 194.55 388.9 194.55 389.2
L 194.55 389.25
Q 194.85 389.75 195.3 390.3 195.45 390.6 195.5 390.75 195.5 390.9 195.6 390.95 195.65 391.25 195.8 391.4 195.9 391.5 195.9 391.6 195.95 391.75 196.05 392 196.05 392.05 196.05 392.1 196.1 392.3 196.1 392.35 196.2 392.7 196.5 393 196.5 393.05 196.5 393.1 196.55 393.65 196.7 394.15 196.7 394.35 196.8 394.4 196.9 394.5 196.9 394.8 196.9 394.85 196.9 395 196.9 395.1 196.9 395.15 196.9 395.4 196.95 395.55 197.1 395.7 197.1 395.85 197.15 395.9 197.15 396 197.2 396.45 197.2 396.8 197.2 396.9 197.2 397.1 197.25 397.2 197.45 397.4 197.55 397.75 197.55 398.15 197.65 398.45 197.75 398.55 197.8 398.75 197.8 398.85 197.85 399.15 197.95 399.25 198 399.45 198 399.65
M 201 394.8
Q 200.9 392.7 200.6 390.7 200.6 390.6 200.6 390.35
M 188.15 381.65
Q 193.45 378.6 197.45 378.25 201.3 377.85 203.8 379.6 206.25 381.3 208.95 384.5
M 191.9 382.2
Q 192.4 381.8 192.85 381.5
M 192.75 380.45
Q 192.25 380.45 192 380.6
M 232.9 347.95
Q 233.6 350.75 232.8 353.15 230.65 359.55 225.9 364.85 225.35 365.4 224.9 366 220.65 371.35 216.15 376.25 214.25 378.35 212.5 380.45
M 211.75 382.5
Q 210.7 383.6 209.7 384.8
M 205.9 384.4
Q 205.7 384.85 205.4 385.3 205.4 385.35 205.4 385.45 205.6 385.3 205.9 385.15
L 206.35 385
Q 206.6 384.85 206.75 384.8 206.8 384.7 206.9 384.7 206.95 384.5 206.95 384.3 207.05 384.25 207.15 384.25 207.15 384.55 206.9 384.7
M 202.55 393.85
Q 202.65 391.4 203.35 389.1 203.55 388.4 203.7 387.75 203.7 387.7 203.8 387.6 203.95 387.2 204 386.85 204.4 385.85 204.7 384.7
M 208.8 385.45
Q 207.05 386.2 205.1 386.75 204.75 386.9 204 386.85
M 220.7 197.7
Q 220.4 204.05 222.1 210.1
M 182.75 398.55
Q 183.3 401.2 183.6 404 183.6 404.05 183.65 404.2 183.95 405.75 184.4 407.3 189.05 408 193.05 409.65 193.75 409.95 194.55 410.15
M 184.4 407.3
Q 185.05 408.75 185.85 410.15 186.25 410.65 186.4 411.1 186.6 411.4 186.7 411.5 188.4 413.5 190.5 415.8 192.3 417.4 195.15 418.25"/>

<path id="Layer1_0_1_STROKES" stroke="#000000" stroke-width="0.5" stroke-linejoin="round" stroke-linecap="round" fill="none" d="
M 368.2 144.4
Q 369.65 145.65 371.1 146.85 371.35 147.1 371.55 147.3
M 372.15 145.2
Q 373.25 145.95 374.15 146.55
M 365.3 144.4
Q 367.1 146.7 369.15 147.55
M 356.6 157.45
Q 357.4 159.35 358.2 160.2
M 357.6 157.95
Q 357.95 158.35 358.25 158.75 359.15 159.8 360.05 160.8 360.2443359375 161.058984375 360.45 161.3
L 360.475 161.325
Q 360.5892578125 161.4392578125 360.7 161.55
L 360.95 161.8
M 356.15 152.6
Q 357.65 154.5 359.55 155.4
M 358.05 151.2
Q 359.25 152.4 360.65 153.3
M 358.25 158.75
Q 359.25 160.1 360.45 161.3
M 360.45 159.35
Q 362.35 162.05 364.35 164.2 364.55 164.45 364.8 164.7
M 376.85 148.3
Q 378.55 150.05 379.7 150.75 380 150.95 380.25 151.2
M 363.35 146.35
Q 364.55 147.3 365.7 148.35 366.7 149.05 366.75 147.8
M 361.45 147.8
Q 362.65 148.75 363.95 149.45
M 358.05 147.8
Q 360.7 150.05 362.6 151.35
M 412.1 194.6
Q 413.4 196.35 414.75 197.7
M 423.35 217.4
Q 423.35 217.55 423.35 217.75
M 410.15 211
Q 411.85 212.65 413.55 214.35 413.75 214.6 414 214.85 414.25 215.1 414.5 215.35
M 411.1 214.35
Q 411.2 214.55 411.3 214.8 411.7 214.9 412.15 215
M 404.85 210.5
Q 405.55 211.7 406.5 212.8 407.75 214.35 409.25 215.7 409.65 216.05 410.05 216.4 410.4 216.3 410.4 215.8 410.4 215.55 410.15 215.35
M 406.5 212.8
Q 406.9 214.3 407.5 215.75 407.7 216.15 407.9 216.65 408.25 217.25 408.7 217.75
M 402.9 210
Q 404.45 213.2 406.8 215.35 407 215.55 407.5 215.75
M 411.3 214.8
Q 411.95 216.25 412.7 217.7 412.8 218 413.05 218.2
M 409.2 213.9
Q 410.2 214.4 411.3 214.8
M 416.9 211.95
Q 418.85 214.2 420.3 215.35 420.5 215.55 420.75 215.8
M 421.45 214.8
Q 422.05 215.55 422.65 216.35
L 422.7 216.4
Q 422.95 216.75 423.25 217.2 423.3 217.25 423.35 217.4
M 415.95 214.35
Q 416 214.6 416.05 214.85 416.25 215.8 416.55 216.75 416.55 216.9 416.6 217 416.75 217.4 416.9 217.75
M 414.5 211
Q 415.95 212.45 417.4 213.9 417.65 214.1 417.85 214.35
M 412.55 211
Q 413.75 212.65 415.15 214.25 415.45 214.6 416.05 214.85
M 417.05 216.6
Q 417.2 216.7 417.45 216.95 417.85 217.25 418.35 217.75
M 415 216.3
Q 415.3 216.45 415.65 216.6 416 216.75 416.35 216.9 416.5 216.95 416.6 217
M 419.8 213.4
Q 420.75 214.85 421.65 216.3 421.95 216.75 422.2 217.25
M 395.7 208.55
Q 396.15 209.35 396.65 210.1 398.15 212.15 400.05 213.9 400.25 214.1 400.5 214.35
M 385.55 200.35
Q 386.75 201.8 387.95 203.25 388.2 203.5 388.45 203.75
M 388.45 207.6
Q 387.95 207.35 387.55 207 387.2 206.7 386.9 206.4 387 206.75 387.1 207.05 387.25 207.35 387.5 207.6
M 386.5 205.2
Q 386.7 205.8 386.9 206.4 385.75 205.4 384.6 204.25
M 393.25 211
Q 392.5 210.3 391.7 209.7 391.05 209.1 390.4 208.55 390.6 208.8 390.85 209.05 392.15 210.5 393.25 211 393.35 211.05 393.4 211.1 393.65 211.35 393.95 211.65 394.2 212.15 394.6 212.55 395.2 213.15 396.05 213.65 396.4 213.9 396.75 214.2 397.55 214.9 398.1 215.8
M 388.45 204.7
Q 388.95 207.2 389.85 207.35
M 387.95 200.85
Q 390.7 203.55 392.9 206.05
M 390.85 207.6
Q 392.05 210.3 394.2 211.55 394.5 211.7 394.7 211.95
M 404.05 215.55
Q 404.3 215.8 404.55 216.05 404.85 216.3 405.2 216.45
M 397.15 207.15
Q 397.85 208.95 398.65 210.5 399.4 212 400.2 213.3
M 396.65 210.1
Q 397.5 212.85 398.7 214.25
M 400.5 209.05
Q 402.8 212.45 404.55 214.7
M 392.8 204.25
Q 395.45 207.15 398.1 210 398.35 210.25 398.65 210.5
M 330.7 239.3
Q 330.65 239.25 330.65 239.2 330.65 238.95 330.65 238.85
M 380.75 198.45
Q 382.3 201.1 384.6 203.25 384.85 203.5 385.05 203.75
M 382.65 197.95
Q 384.6 201.4 386.4 202.9"/>

<path id="Layer1_0_2_STROKES" stroke="#000000" stroke-width="1" stroke-linejoin="round" stroke-linecap="round" fill="none" d="
M 353 154.75
Q 353.05 153.1 354.3 148.95 355.75 144.35 356.75 144.35 356.9 144.35 357.15 143.95 357.4 143.45 357.6 143.45 357.75 143.45 358.3 142.8 358.85 142.05 359.4 142.05 359.7 142.05 359.85 141.9 360 141.65 360.3 141.65 360.9 141.65 362.95 141.1 365.3 141.1 370.25 144.05 371.25 144.65 372.15 145.2
M 374.15 146.55
Q 375.15 147.2 375.8 147.8
M 393.2 216.85
Q 391.75 214.6 390.55 214.6 387.85 214.6 378.5 202.05 369.3 189.7 369.3 186.85 365 180.05 360.65 172.45 352.05 157.25 352.05 152.8 352.6 148.7 352.6 147.5 352.6 143.75 355.75 140.55 358.85 137.5 362.1 137.5 363.3 137.5 368.5 138.25 369 138.25 370.9 139.3 372.85 140.25 373.25 140.25 373.45 140.25 374.6 141.25 375.75 142.15 376.2 142.15 376.45 142.15 377.55 143.05 378.6 143.9 379.15 143.9 380.8 143.9 390.5 152.6 400.35 161.5 400.35 163.25 400.35 163.35 403.75 167.55 407.15 172 407.15 172.75 413.95 184.75 413.95 185.35 413.95 185.95 414.45 186.4 414.85 186.8 414.85 187.4 421.25 202.7 421.25 202.9 421.25 203.5 421.55 204.1 421.85 204.7 421.85 205.3 421.85 205.9 422.35 206.7 422.75 207.45 422.75 208.05 422.75 208.7 423.35 210.55 423.65 211.35 424 212.35 425.25 215.75 425.25 218.3 425.25 218.9 425.45 219.75 425.6 220.1 425.7 220.45 425.75 219.85 425.9 219.1 426.25 216.7 426.25 215.45 426.25 215.15 425.95 214.1 425.65 213.1 425.65 212.8 425.7 212.05 425.7 211.7 425.65 211.05 425.3 211.05 424.95 211.05 425 210.55
M 357.8 162.95
L 358.05 163.8
Q 358.4 164.55 359.15 164.55 359.95 164.55 360.05 165.15 360.1 165.5 360 166.6 360 166.75 362.05 169.25 364.05 171.8 364.05 171.85 364.05 172.45 364.45 172.65 364.9 172.8 364.9 173.4 364.9 174.05 365.35 174.2 365.8 174.35 365.8 174.95 365.8 175.55 366.2 175.7 366.6 175.9 366.6 176.5 366.6 177.05 367.3 178.05 367.95 179.1 367.95 179.35 367.95 179.95 368.45 180.65 369 181.45 369.15 182.15
M 389.35 151
Q 390.85 151.95 395.55 154.95 399.85 157.55 401.15 157.55 401.75 157.55 402.1 158 402.4 158.4 403 158.4 403.35 158.4 404.85 159.5 406.4 160.5 407.1 160.5
L 408.6 161.35
Q 410.05 162.2 410.75 162.2 411.35 162.2 412 162.65 412.7 163.05 413.3 163.05 413.9 163.05 414.55 163.45 415.2 163.85 415.8 163.85 416.4 163.85 416.9 164.1 417.35 164.3 417.95 164.3 418.55 164.3 419 164.6 419.5 164.85 420.1 164.85 420.3 164.85 423.9 165.4 427.3 165.9 428.95 165.75
M 392.65 159.75
Q 393.45 160.7 397.8 165.15 400.4 167.9 400.4 168.7 400.4 168.95 401.95 171.6 403.7 174.5 403.9 174.95
M 377.05 195.65
L 378.15 197.05
Q 379.2 198.55 379.2 199.3 379.2 199.9 379.7 199.85 380.15 199.75 380.15 200.35 389.7 210.5 390.2 211.05
M 433 158.9
Q 432.2 159.7 431.55 160.5 430.05 162.4 430.05 162.85 430.05 163.45 430.35 164.1 430.65 164.7 430.65 165.3 430.65 167.1 434.5 169.1 436.5 170.1 438.5 170.75 441.15 170.75 443.85 167.8 446.5 164.9 446.5 162.35 446.5 160.2 445.4 158.25 444.2 156.05 442.7 156.05 439.9 154.6 439.4 154.6 437.75 154.6 435.85 155.8 435.35 156.1 434.5 156.8 433.85 158 433 158.9
L 432.4 158.4
Q 433.6 157.4 434.5 156.8
M 447.55 169.15
Q 444.15 170.7 443.3 170.7 442 170.7 439.7 172.3 437.85 173.6 436.8 174.35 439.05 175.05 441.85 176.2 443.3 176.7 444.95 177.3 446.05 177.75 447.1 178.15 447.95 178.5 448.75 178.8 451.05 179.65 453.5 180.6 454.45 180.9 455.5 181.3 460.2 182.95 464.6 184.3
M 465 180.1
Q 464.3 180.3 463.65 180.4 461.1 180.95 459.25 180.95 459.1 180.95 457.05 180.65
L 457.35 180.4
Q 457.6 180.2 459.75 179.85 461.45 179.65 462.2 179.35 460.1 179.4 458.25 179.4 457.85 179.4 457.55 179.4 454.45 179.4 453.5 179.1
L 453.75 178.85
Q 457.55 177.45 459.25 177.45 460.45 177.45 461.35 177.1 449.95 176.8 449.1 176.8
L 447.85 176.7 448.75 176.25
Q 448.9 176.25 451.55 175.65 454.4 175.05 455.15 175.05 455.65 175.05 456.45 174.65 448.7 175.6 446.45 175.6
L 444.5 175.55 444.9 174.85
Q 445.8 174.85 449.3 173.65 452.8 172.45 453.4 172.45 454.05 172.45 454.65 172.3 454.45 172.3 454.4 172.15 454.25 172.1 454.15 172.05 443.9 173.25 442.4 173.1 443.35 172.65 444.1 172.65 444.15 172.65 446.1 172.15 446.5 172.05 447.15 172
L 447.45 171.85
Q 447.65 171.8 447.85 171.8
L 448.15 171.75
Q 449.2 171.35 449.4 171.2
L 449.95 171.3
Q 449 171.5 448.15 171.75
M 446.05 192.25
Q 445.75 192.1 445.55 191.85 445.35 191.55 445.35 191.05 445.35 190.05 444.8 188.75 443.9 186.75 441.75 183.95 438.35 179.85 436.15 179.65 435.95 179.5 435.8 179.5 432 178.9 431.15 178.9 430.25 179.1 429.5 179.2 427.05 179.65 426.35 179.65 424.1 180.2 423.25 180.2 422.2 180.4 420.35 180.65
L 420.6 181.4
Q 421.2 182.3 421.75 182.3
L 422.25 183
Q 422.8 183.8 423.25 183.8 423.4 183.8 426.05 186.5 427 185.6 427 184.75 427 184.65 427.3 184.5 427.8 184.2 429.15 183.9 431 183.55 431.4 183.55 432.65 183.55 435 186.1
L 435.2 186.15
Q 435.6 186.15 435.65 186.7 435.8 187.05 435.65 187.85 435.65 188.45 434.95 189.35 434.2 190.3 433.55 190.3 431.8 190 430.9 190 430.9 189.75 430.7 189.7 430.45 189.65 430.4 189.6
L 432.45 188.45 432.6 188.45 432.65 188.3 432.35 188.05 432.4 188
Q 432.15 188.05 432.05 188.15 431.4 188.5 431 188.5 429.95 187.75 429.75 187.55
L 429.8 187.45
Q 429.2 187.15 428.95 186.8
L 428.9 186.8
Q 428.35 186.5 427.95 185.85 428 185.8 429.25 185.4
L 429.25 185.3
Q 429.85 185.2 430.25 185.2
L 430.4 185.15
Q 430.658984375 185.02578125 431 184.95 431.4 184.95 432 185.2 432.35 185.3 432.65 185.55 433 185.6 433.15 185.85 433.25 185.9 433.25 186.1 433.55 186.1 434.05 186.4
L 433.95 186.8 434.1 187.1
Q 434.05 187.15 434.05 187.35 434.5 187.45 434.75 188.3 434.65 188.7 434.25 188.8 434.35 188.8 434.35 188.9
L 433.45 189.4 432.45 188.45
M 435.9 174.05
Q 436.25 174.2 436.8 174.35 436.2 174.65 435.9 174.85
M 430.25 185.2
Q 429.75 185.25 429.25 185.4 429.2 185.6 428.9 186.1 429.0876953125 186.00625 429.225 185.925
L 429.25 185.9
Q 429.45 185.85 429.5 185.8 430.05 185.3 430.05 185.25 430.15 185.25 430.55 185.3 430.9 185.25 431.3 185.25 430.85 185.1 430.6 185.1 430.5107421875 185.1 430.4 185.15
M 427.3 184.5
Q 427.2 184.65 427.15 184.9 426.75 185.85 426.45 186.85 426.65 187.1 427 187.45 427.35 187.85 427.7 188.15 431.1 191.15 432.45 191.15 432.8 191.15 433.35 191.45 433.9 191.65 434.25 191.65 434.7 191.65 436.15 192.1 437.45 192.45 437.85 192.45
L 442 192.15 444.2 191.2
M 430.55 185.3
Q 431 185.4 431.7 185.55 431.8 185.55 431.85 185.6 431.99765625 185.55078125 432.1 185.55 431.99765625 185.54765625 431.85 185.4 431.55 185.25 431.3 185.25 431.55 185.2 431.85 185.2
L 432 185.2
M 432.65 185.55
Q 432.45 185.55 432.4 185.55 432.15 185.55 432.1 185.55 432.45 185.7 432.7 185.85 432.7 185.7 432.65 185.6
L 432.65 185.55 Z
M 433.05 186.1
Q 433 186.09921875 433 186
L 432.8 186.15
Q 432.9986328125 186.100390625 433.05 186.1
L 433.25 186.1
Q 433.3 186.15 433.3 186.4
L 433.3 186.45 433.35 186.5
Q 433.35 186.55 433.45 186.7 433.6 186.55 433.8 186.5
L 433.95 186.8
Q 433.55 187.1 433 187.3 433.05 187.3 433.05 187.35
L 433.05 187.4 433.15 187.4
Q 433.35 187.3 433.8 187.3 433.95 187.3 434.05 187.35 433.9 187.85 433.75 188.05 433.95 188.45 434.25 188.8 433.95 189 433.55 189
L 432.65 188.3
Q 432.7 188.15 432.7 188
L 432.6 187.95 432.4 188 432.4 187.95
Q 431.85 188 431.45 188 431 188 430.15 187.7 429.95 187.55 429.85 187.45
L 429.8 187.45 429.85 187.4
Q 429.45 187.3 428.95 186.8
M 432.7 185.85
Q 432.75 185.9 433 186
L 433 185.8
Q 432.75 185.7 432.65 185.6
M 433.45 186.7
L 433.45 186.8 433.425 186.8
Q 433.140625 186.86875 433 187.15
L 433 187.3
Q 433 187.35 433.05 187.4
L 433 187.45
Q 433.0509765625 187.40234375 433.15 187.4 433.35 187.7 433.75 188.05 433.6 188.05 433.55 188.15 433.3 188.15 433.05 188.05
L 432.65 188.3
M 432.8 186.15
L 432.8 186.4
Q 432.8 186.45 432.8 186.55
L 432.8 186.7
Q 432.8 186.8 432.8 187.05 433.15 186.75 433.3 186.55
L 433.3 186.45
Q 433.25 186.25 433.05 186.1
M 431.85 185.6
Q 432.4 185.8 432.65 186 432.65 185.9 432.7 185.9
L 432.7 185.85
M 432.8 186.15
L 432.75 186.15
Q 432.75 186.25 432.8 186.4
L 432.7 186.7 432.65 186.75
Q 432.7 186.8 432.8 187.05 433.128515625 186.8623046875 433.425 186.8
M 432.75 186.15
Q 432.7 186.1 432.65 186 432.4 186.15 432.15 186.4
L 432.35 186.45
Q 432.45 186.25 432.75 186.15 Z
M 432.05 186.5
Q 432.1 186.45 432.15 186.4 432.05 186.15 432 186.1 431.8 185.9 431.4 185.9 431.2 186 431.1 186.1 431.45 186.15 431.85 186.45 432 186.45 432.05 186.5
L 432.1 186.55
Q 432.15 186.5 432.35 186.45 432.45 186.55 432.65 186.75
L 432.6 186.8
Q 432.7 186.85 432.75 187.1
L 432.8 187.05 432.8 187.1 433 187.15 432.8 187.3 433 187.3
M 432.05 186.7
L 432 186.75
Q 432.05 186.8 432.1 186.8 432.15 186.85 432.4 187.05
L 432.45 186.85
Q 432.4 186.8 432.35 186.8 432.1 186.75 432.05 186.7 432.05 186.55 432.1 186.55 432.35 186.7 432.45 186.75
L 432.6 186.8 432.45 186.85
Q 432.6 187.05 432.7 187.1
L 432.75 187.1 432.8 187.1 432.8 187.15 432.8 187.3
Q 432.75 187.35 432.7 187.4 432.75 187.45 432.8 187.7 432.8 187.55 433 187.45
M 432 186.75
Q 431.75 186.85 431.7 186.85
L 431.7 187.05
Q 431.7 187.1 431.75 187.15 431.85 187.15 432.1 187.15
L 432.4 187.05
Q 432.4 187.1 432.45 187.15 432.6 187.1 432.7 187.1
L 432.75 187.15 432.8 187.1
M 432.05 186.7
Q 431.8560546875 186.7 431.8 186.7 431.8546875 186.7015625 432 186.75
M 431.1 186.1
Q 431 186.15 430.9 186.15
L 430.9 186.4 431.55 186.55 431.8 186.7
Q 431.85 186.55 432.05 186.5
M 432.8 187.15
L 432.75 187.15
Q 432.7041015625 187.2876953125 432.7 187.35 432.7046875 187.3 432.75 187.3
L 432.8 187.15 Z
M 432.1 187.15
Q 432.35 187.15 432.45 187.15 432.6 187.15 432.65 187.35
L 432.7 187.35 432.7 187.4
Q 432.7015625 187.3484375 432.75 187.3
L 432.8 187.3
M 431.85 185.6
Q 431.75 185.7 431.55 185.8 431.45 185.85 431.4 185.9 431.15 185.85 430.7 185.85 430.25 185.85 430.25 185.9
L 430.25 186
Q 430.35 186 430.4 186 430.7 186 431.1 186.1
M 431.55 186.55
L 431.45 186.55
Q 431.15 186.55 430.9 186.75
L 430.9 186.85
Q 431 186.85 431.1 187.05
L 431.2 187.1
Q 431.45 186.85 431.8 186.7
M 430.9 186.75
L 430.85 186.75
Q 430.7 186.75 430.7 186.8 430.85 186.85 431.1 187.05
L 431.15 187.1 431.2 187.1
Q 431.3 187.1 431.4 187.1 431.45 187.1 431.75 187.15 431.75 187.3 431.8 187.35
L 431.975 187.35 432 187.35 432.1 187.15
M 430.9 186.75
L 430.9 186.4 430.25 186.1
Q 430.15 186.15 430.05 186.15
L 430.05 186.25
Q 430.25 186.45 430.45 186.7 430.55 186.75 430.7 186.8 430.45 186.85 430.15 186.8
L 430.15 186.85
Q 430.35 187.1 430.55 187.35
L 430.6 187.35
Q 430.7 187.3 430.9 187.3 431 187.15 431.15 187.1
L 431.2 187.15 431.3 187.15
Q 431.4 187.35 431.8 187.35
L 431.8 187.4
Q 431.845703125 187.354296875 431.975 187.35
M 430.05 187.1
Q 429.95 187.1 429.95 187.15 430.15 187.3 430.35 187.4
L 430.4 187.4
Q 430.45 187.4 430.6 187.35 431 187.45 431.2 187.45 431.55 187.45 431.8 187.4 431.85 187.55 432.05 187.7
L 432.45 187.7
Q 432.6 187.45 432.65 187.35 432.35 187.35 432 187.35
M 430.6 187.35
Q 430.9 187.45 431.2 187.55 431.3875 187.690625 431.675 187.7
L 432.05 187.7
Q 432.15 187.75 432.4 187.95
L 432.45 187.85
Q 432.65 187.7 432.7 187.45 432.6 187.55 432.45 187.7
M 430.4 187.4
Q 430.7 187.55 430.9 187.7
L 431.675 187.7
M 432.7 187.45
L 432.7 187.4
M 432.8 187.7
Q 432.7 187.85 432.65 187.95
L 432.7 188
Q 432.75 188 433.05 188.05 433 187.85 432.8 187.7 432.7 187.75 432.6 187.95 432.45 187.95 432.4 187.95
M 430.25 186.1
L 430.25 186 430.15 186 430.25 186.1 Z
M 430.15 186
Q 429.95 186 429.85 186.1 429.85 186.15 430.05 186.25
L 429.8 186.4
Q 429.85 186.45 429.85 186.5 430.05 186.75 430.15 186.85
L 430.05 187.1
Q 430.35 187.15 430.55 187.35
M 429.85 186.5
L 429.45 186.2
Q 429.4 186.2 429.25 186.25
L 429.25 186.5
Q 429.25 186.54375 429.4 186.675
L 429.45 186.7 429.5 186.75 429.525 186.75
Q 429.6638671875 186.8115234375 429.95 187.05
L 430.05 187.1
M 429.225 185.925
Q 429.090625 186.009375 428.95 186.15 429.1 186.4 429.2 186.5 429.24375 186.54375 429.4 186.675
M 429.525 186.75
Q 429.659375 186.8140625 429.85 187.1
L 429.95 187.15
Q 429.85 187.15 429.8 187.15 429.85 187.3 429.85 187.4 430.05 187.4 430.25 187.4
L 430.35 187.4
M 430.15 186
L 429.5 185.8
Q 429.55 185.85 429.85 186.1 429.65 186.1 429.45 186.2
M 429.45 186.7
Q 429.55 186.85 429.8 187.15
M 428.95 186.15
Q 428.85 186.4 428.8 186.55 428.85 186.75 428.9 186.8
M 428.9 186.1
L 428.95 186.15
M 430.55 185.3
Q 429.95 185.55 429.5 185.8
M 435.25 170.6
Q 431.4 174.35 429.7 178.55
M 447.55 168.35
Q 451.2 170.45 454.15 172.05
L 454.25 172.05 454.4 172.15
Q 454.65 172.3 454.75 172.15 454.7 172.3 454.65 172.3 461.15 175.9 464.35 177.4 464.55 177.45 464.8 177.5 466.45 178.35 470 179.4 470.2 179.4 470.5 179.45
M 461.35 177.1
L 461.4 177.1 461.6 176.9
Q 461.45 177 461.35 177.1 Z
M 462.2 179.35
L 462.55 179.15
M 470 179.4
Q 467.2 181.3 467 180.95 464.25 182.4 463.75 182.85
M 425.85 221.35
Q 425.75 220.95 425.7 220.45 425.6 220.85 425.55 221.25 425.75 221.3 425.85 221.35 Z
M 417.1 201.2
Q 417.15 201.2 417.2 201.2 417.1 201.15 417.05 201.15
L 417.1 201.2
Q 417.1 201.3 417.15 201.4 417.15 201.6 417.15 201.75 417.15 202.35 417.55 202.8 418 203.15 418 203.75 418 204 419.1 205.6 420.15 207.2 420.15 207.85 420.15 208.95 421.45 211 422.65 212.95 422.65 214.55 422.65 214.95 422.95 215.8 423 216 423.05 216.25 423.25 216.85 423.35 217.4
M 423.35 217.75
Q 423.35 217.9 423.35 218.1
M 416.35 199.25
L 416.35 200.25
M 425.15 188.3
Q 423.6 194.9 423.8 200.85 423.8 201.35 424.2 204.75 424.25 205.25 424.6 207.3 424.6 207.8 425 209.35
M 399.6 217.55
Q 404.75 218.2 407.4 218.2 408 218.2 410.05 218.5 412.1 218.75 412.7 218.75 413.9 218.75 419 219.55 419.6 219.55 422.55 220.35 424.8 220.95 425.55 221.25 425.35 222 425.15 222.45
M 330.7 239.3
Q 331.05 239.5 331.6 239.7 333.35 240.35 335.75 240.85 336.25 240.95 336.7 241 336.9 241.05 337.15 241.05 337.25 241.2 337.3 241.25 337.95 241.8 338.6 241.95 338.9 242.1 339.25 242.15 340 242.35 340.7 242.65 341.55 242.95 342.85 242.9 344.7 242.8 346.5 242.8 347.25 242.75 347.95 242.65 349 242.35 350.1 242.35 351.25 242.35 352.25 242.15 353.6 241.9 354.7 242.3 355.4 242.45 355.95 242.2 356.15 242.1 356.35 242.1 357.6 241.95 358.8 241.85 359.5 241.8 360.25 241.75 361.7 241.6 363.15 241.55 363.5 241.5 363.85 241.5 365.1 241.35 366.25 241.2 366.85 241.15 367.45 241.05 368.55 240.9 369.65 240.7 370 240.65 370.35 240.6 370.6 240.55 370.85 240.45 371.95 240.3 373 240.15 375.35 239.85 377.6 239.55 378.2 239.45 378.8 239.4 379.05 239.3 379.3 239.25 380.5 239.15 381.7 238.9 381.95 238.85 382.2 238.8 382.8 238.7 383.4 238.7 384.3 238.7 385.05 238.6 385.7 238.5 386.3 238.35 386.4 238.35 386.5 238.35 387.25 238.25 387.95 238.2 388.8 238.1 389.65 238 389.9 238 390.15 237.95 390.25 237.85 390.4 237.85 391.45 237.85 392.3 237.65 392.65 237.5 393.05 237.45 394.05 237.15 395.2 236.85 397.3 236.25 399.55 235.75 400.5 235.5 401.55 235.2 401.85 235.1 402.2 235.05 402.45 235 402.7 234.85 403.9 234.3 405.1 233.9 406.95 233.3 408.7 232.45 409.35 232.1 410.15 231.85 414.3 230.6 418.35 228.6 418.9 228.3 419.4 227.95 419.7 227.75 420.05 227.55 421.35 226.85 422.4 225.65 422.9 225.05 423.05 224.25 423.1 223.85 423.4 223.7 423.55 223.65 423.65 223.5 423.8 223.4 423.95 223.35 424.45 222.5 425 221.6
M 423.4 223.7
Q 423.7 223.65 423.95 223.35
M 426.35 222.75
Q 426.35 222.9 426.35 223.1 426.3 223.15 426.3 223.35 429.75 227.5 428.1 232.75 428 233.15 427.9 233.65 427.8 233.85 427.75 234.1 427.65 234.3 427.5 234.55 427.2 234.8 427 235 426.8 235.1 426.6 235.15 426.55 235.2 426.5 235.2 426.75 235.75 427.3 235.75 427.4 235.75 428.3 238.25 429.2 240.7 429.2 240.95 429.2 241.85 441 255.25 452.85 268.6 452.85 269.65 452.85 270.25 456.3 273.8 459.7 277.35 459.7 279.1 459.7 279.6 471.45 296.9 482.75 314.75 484.6 323.85 484.8 324.35 485.7 326.4 486.55 328.35 487.65 330.8 488.7 333.05 491.5 353.1 494.25 359.85 485.65 397.35 482.55 402.85 473.2 418.15 463.8 433.4 460.55 436.05 457.3 438.65 449.1 446.55 440.9 454.4 433 454.7 425.1 455 418.6 455.2 412 455.45 410.2 455.45 409.55 455.45 407 455.95 404.5 456.45 394.3 456 384.1 455.55 383.15 455.55 382.2 455.55 380.95 455.55
L 379.95 455.7
Q 375.8 454.9 366.6 451.1 357.9 447.45 357.9 447.15 357.9 446.95 352.75 443.65 352.05 443.65 351.2 443.05
L 350.75 442.7
Q 350.65 442.55 350.55 442.5 346.95 439.3 338.95 433.75 332.15 429 332.15 428.35 332.15 428.15 329.25 425.9 329.25 425.8 327.8 424.7 327.8 424.55 322.5 419.9 322.5 419.75 319.55 416.95 319.55 416.8 317.25 414.25 317.25 414.1 316.15 412.6 316.15 412.05 313.1 408.25 310 404.45 310 404.4 310 404.1 309.85 404.2 309.6 404.35 309.6 404.05 309.6 403.3 307.9 401.55 306.2 399.75 306.2 399.7 305.15 398.5 305.15 398.3 305.15 397.95 304.6 397.6 304 397.15 304 396.7 304 396.45 303.45 395.85
L 302.9 395.15
Q 302.9 395.05 302.05 394.05
L 301.2 393.05
Q 301.2 392.7 300.4 392
L 299.65 391.3
M 423.2 238.95
Q 425.45 237.4 426.2 235.65 426.3 235.4 426.5 235.2
M 397.15 217.5
Q 400.4 218.2 399.65 218.3
M 396.15 217.6
Q 388.75 216.55 385.05 216.55 384.45 216.55 378.9 216.95 373.4 217.3 372.75 217.3 372.15 217.3 369.65 217.85 367.1 218.4 366.5 218.4 365.9 218.4 364.65 218.8 363.35 219.25 362.75 219.25 362.15 219.25 360.05 219.85 357.9 220.4 357.3 220.4 356.7 220.4 354.7 221 352.7 221.6 352.1 221.6 351.5 221.6 350.85 222 350.15 222.45 349.55 222.45 348.95 222.45 347.35 223.05 345.7 223.65 345.1 223.65 339.35 225.75 338.3 225.75 337.85 225.75 335.25 226.85 332.6 227.95 332.5 227.95 332.1 227.95 331 228.85 329.9 229.65 329.4 229.65 329.25 229.65 328.2 232.15 327.75 233.3 327.5 234.1 327.45 234.25 327.45 234.4 327.2 235.15 327.2 235.5 327.2 237.65 330.2 239.1 330.25 239.15 330.35 239.2 330.5 239.25 330.7 239.3
M 380.75 222.1
Q 380.5 223.5 380.35 224.95 380.35 225.2 380.5 225.45
M 377.35 221.35
Q 377 223.2 376.45 224.75 376.4 224.95 376.4 225.2 376.45 225.9 376.15 226.4
M 368.45 223.75
Q 367.3 226.35 367 229.05
M 371.35 223.05
Q 369.95 225.4 369.4 228.1
M 373.25 224.75
Q 373 226 372.65 227.2
M 366.75 225.45
Q 365.2 227.7 364.55 230.3
M 390.85 221.6
Q 390.7 223.4 390.2 224.95 390.15 225.2 390.15 225.45
M 383.65 222.1
Q 383.25 224.3 382.7 225.7
M 385.8 222.3
Q 385.6 224 385.2 225.45
M 387.95 221.6
Q 387.55 223.7 387.35 225.7
M 379.3 221.6
Q 378.6 223.7 378.3 225.7
M 326.45 232.35
Q 325.8 233.65 325.2 234.9 324.7 235.8 324.7 236.75 324.7 237.4 324.6 238.2 324.4 239.15 324.8 239.7 324.9 239.9 324.95 240.4 325.45 243.85 327.55 245.7 327.8 245.95 328 246.4 328.7 247.8 329.95 248.65
M 359.05 228.6
Q 358.75 230.45 358.6 232.2 358.55 232.55 358.5 232.95
M 361.2 227.6
Q 360.3 230.15 360.45 232.95
M 363.35 226.4
Q 362.1 228.85 361.45 231.5
M 332.5 249.55
Q 332 249.55 331.65 249.5 333.9 251.15 336.85 250.85 337.3 250.8 337.8 250.55
M 330.55 248.6
Q 331.05 249.1 331.65 249.5 330.8 249.35 330.2 248.95 330.25 250.25 330.25 251.75
M 330.7 251.55
Q 330.95 252.75 330.35 252.75 329.8 252.75 329.8 256.45 329.8 258.15 325.95 267.1 322 276.1 321.2 276.1 320.5 277.5 319.9 278.65 316.75 284.5 316.5 284.5 315.4 286.45 314.65 287.65 313.5 289.55 313.45 289.55 311.8 292.85 311.5 292.85 310.65 294.35 310.55 294.35 309.7 294.35 307.6 300.15 307.35 300.75 307.2 301.3
M 362.75 251.2
Q 370.65 251.3 378.15 251.7 385.55 252 388.75 251.1 391.95 250.1 394.9 249.95 397.85 249.7 402.8 247.35 407.7 245 410.2 243.35
M 220.5 251.15
Q 236.4 280.9 257.6 298.3 277.05 314.25 299.1 317.95 305.65 319.05 312.5 319.05 332.4 319.05 351.6 310.15 373.1 300.3 389.9 280.9
M 307.9 300.8
Q 308 301.65 307.4 301.65 307.35 301.65 307.1 301.95 309.85 302.15 312.7 302.15 321.65 302.15 329.75 298.05 347.05 289.1 349.4 288.15
M 256.75 262.6
Q 261.55 264.75 269.5 268.5 276.85 272.05 284.7 274.9 293.05 277.95 302.1 278.15 311.05 278.4 319.9 278.65
M 248.1 267.9
Q 251.05 270.2 259.85 278.35 260.1 278.55 260.35 278.8 267 281.85 272.15 283.5 279.45 285.85 288.55 287.5 289.55 287.65 290.6 287.9 296.15 289.05 302.1 288.95 306.5 288.9 310.8 288.2 312.7 287.9 314.65 287.65
M 260.35 278.8
Q 261.35 279.8 262.5 280.85 271.05 288.7 276.8 292.5 289.25 300.9 307.1 301.95
M 218.55 242.45
Q 217.3 240.55 216.5 238.5 216.2 237.55 216.6 236.8 216.85 236.3 217.35 236.5 217.6 236.6 217.85 236.75 218.2 236.85 218.5 237.1 218.6 237.2 218.8 237.35 219.4 237.7 220 238.1
M 214.55 242.2
Q 213.55 241.2 213.25 239.9 213.2 239.6 213.2 239.3 213.2 239.25 213.25 239.2 213.5 238.85 214.1 239 214.2 239.1 214.35 239.2 215.05 239.7 215.95 240.45 216.7 241.25 217.5 242.05 217.75 242.35 218 242.65 218.85 243.5 219.75 244.15 219.95 244.35 220.25 244.45 220.35 244.5 220.5 244.65 221.4 245.45 222.55 245.75
M 220.1 250.55
Q 218.9 250.1 218.05 249.35 217.95 249.25 217.85 249.2 217.35 248.75 216.8 248.3 216.7 248.2 216.5 248.05 216.4 248 216.25 247.9 215.7 247.6 215.35 247.2 215.25 247.05 215.05 246.9 214.95 246.75 214.75 246.6 214.7 246.5 214.65 246.4 214.2 245.95 213.85 245.6 213.1 244.95 212.95 244.15 212.95 244.1 212.95 244 212.75 243.4 213.05 243.05 213.4 242.65 213.95 242.65 214.05 242.65 214.1 242.65 214.4 242.6 214.65 242.75 214.85 243 215.1 243.25 215.25 243.3 215.3 243.4 215.4 243.5 215.55 243.55 216.25 244.25 216.6 244.75 217.3 245.55 217.9 246.15 217.95 246.25 218.05 246.3 218.8 247 219.65 247.2 219.95 247.3 220.25 247.4
M 179.85 221.35
Q 182.2 222.85 183.05 225.2 183.2 225.7 183.35 226.2 183.65 227.2 183 227.45 182.75 227.5 182.5 227.55 181.35 227.7 180.5 226.95 180.1 226.6 179.65 226.1 179.25 225.7 178.9 225.2
M 176 228.1
Q 175.6 230.15 177 230.95 177.55 230.8 177.6 230.05 177.65 229.8 177.75 229.55 177.8 229.3 178.15 228.95 177.75 228.35 177.45 227.6
M 178.4 225.7
Q 179.3 227.6 179.8 229.55 179.9 230.1 179.35 230 178.75 229.8 178.5 229.5 178.35 229.25 178.15 228.95
M 218.2 263.1
Q 220.6 265 223.2 266.7 225.7 268.4 228.8 268.85
M 299.1 317.95
Q 298.5 319.2 297.85 320.55 296.45 323.25 293.8 331 291.25 338.5 291.25 339.45 289.65 360 289.65 360.15 289.65 360.75 290.1 364.85 290.1 365.15 290.35 365.85 290.6 366.55 290.6 366.85 290.6 367.15 290.85 367.75 291.1 368.3 291.1 368.6 291.1 368.9 291.3 369.55 291.55 370.15 291.55 370.45 291.55 370.75 291.75 371.2 291.9 371.6 291.9 371.9 291.9 372.2 292.15 372.5 292.4 372.75 292.4 373.05 293.35 376.4 293.35 376.65 293.35 376.95 293.6 377.25 293.8 377.55 293.8 377.85 293.8 378.15 294.1 378.3 294.35 378.4 294.35 378.7 294.35 379 294.6 379.3 294.75 379.55 294.75 379.85 294.75 380.15 295.05 380.35 295.3 380.5 295.3 380.8 295.3 381.25 295.8 382.2 296.25 383.1 296.25 383.4 296.25 383.7 296.55 383.9 296.8 384 296.8 384.3 296.8 384.4 297.05 384.8 297.25 385.25 297.25 385.55
L 297.95 386.75
Q 298.228515625 387.2328125 298.4 387.6 298.7 388.2171875 298.7 388.5 300.25 391.15 300.25 391.25 300.25 391.6 300.35 391.7 300.4 391.7 300.65 391.7"/>

<path id="Layer1_1_1_STROKES" stroke="#000000" stroke-width="1" stroke-linejoin="round" stroke-linecap="round" fill="none" d="
M 418.35 224.5
Q 418.35 225.7 418.6 226.85 419.7 224.95 419.25 226.4 419.1 226.9 418.9 227.4 418.6 228.1 418.35 228.85
M 415.95 225.45
Q 415.75 225.8 415.6 226.25 415.7 227.3 415.7 228.35
M 415.45 225.45
Q 415.5 225.9 415.6 226.25 415.35 226.85 415.1 227.45 415 227.85 415 228.35
M 413.55 224.95
Q 413.55 226.2 413.55 227.4 413.55 228.1 413.55 228.85
M 409.6 227.85
Q 409.65 227.6 409.65 227.4 409.65 227.15 409.65 226.9
M 408.05 229
Q 408.15 228.1 408.3 227.4 408.45 226.2 408.7 224.95
M 406.95 229.8
Q 407.45 227.7 407.6 226.4 407.75 225.45 408.25 224.95
M 412.1 224.95
Q 411.8 227.1 411.6 229.3 411.6 229.55 411.6 229.8
M 405.1 230.8
Q 406.1 226.65 407.2 223.15
M 411.1 224.95
Q 410.65 227.45 409.95 229.25
M 393.25 233.65
Q 394.4 228.05 396.45 223.45 396.65 223.05 396.75 222.6 396.9 222.3 397.05 222
L 397.35 221.55 396.75 222.6
M 377.25 237.5
Q 378.75 233.7 380.65 230.3 381.8 228.15 382.85 226.05 383.15 225.45 383.5 224.9
L 383.85 224.25
Q 383.85 225.2 383.65 226.4
M 374.45 236.55
Q 378.4 230.1 382.3 224.05 382.6 223.6 382.95 223.15
M 369.2 239.4
Q 372 234.75 374.9 230.2 376.65 227.5 378.45 225.05
M 365.5 239.25
Q 368.05 234.55 371.8 230.5 372.3 230.05 372.65 229.35 373 228.85 373.45 228.3 374.2 227.4 374.95 226.4
M 359.35 241.25
Q 359.8 240.35 360.35 239.5 361.2 238.1 362.1 236.8 362.1 236.75 362.15 236.65 362.65 235.8 363.3 235.05 363.45 234.8625 363.575 234.7
L 363.65 234.6
Q 364.55 233.4 365.4 232.35 366.15 231.35 366.85 230.4 368.15 228.75 369.15 227.85
M 368.2 231.25
Q 365.4 233.95 364.5 237.1 364.15 238.5 363.35 238.95
M 394.1 234.15
Q 395.4 229 397.5 224.45 397.85 223.5 398.6 223.05
M 385.55 235.6
Q 386.5 232.7 387.75 229.9 388.2 228.85 388.8 227.8 389.7 226.05 390.55 224.55 391.5 222.85 392.5 221.6
M 388.45 235.6
Q 390.55 229.9 393.1 224.85 393.25 224.5 393.4 224.05 393.5 223.75 393.7 223.45 394 223.05 394.25 222.55
M 393.25 238
Q 393.35 237.7 393.4 237.45
M 383.15 235.6
Q 385.55 228.85 389.3 223.95
M 396.85 233.25
Q 399.05 227.4 401.4 222
M 399.9 232.25
Q 401.15 227.15 403.35 222.25
M 379.85 237.55
Q 382.7 230.15 386.9 223.95
M 332 238.95
Q 334.6 235.15 336.8 233.6 337.1 233.4 337.3 233.15
M 338.75 239.9
Q 339 239.45 339.25 238.95 340.3 236.75 342.65 235.1 343.3 234.2 343.85 233.3 344.1 232.95 344.45 232.55 344.8 232.2 345.1 231.8 346.15 230.2 346.95 229.3
M 337.8 235.1
Q 340.8 233.1 343.1 230.3 343.35 230.05 343.6 229.8
M 344.55 235.6
Q 344.1 238.05 342.85 238.85 342.65 238.95 342.65 239.45 342.65 239.7 342.65 239.9
M 335.9 236.55
Q 333.9 238.5 333.1 239.5
M 340.2 238
Q 341.55 236.55 342.65 235.1
M 346.5 235.1
Q 349.3 231.65 351.2 228.75
M 354.2 238.95
Q 352.95 240.75 352.4 241.9
M 346.95 235.6
Q 345.9 238.2 344.7 240
M 351.3 236.05
Q 350.7 238.4 350.4 240.35 350.4 240.65 350.35 240.9
M 349.4 235.6
Q 348.85 238.25 347.85 239.45 347.7 239.7 347.55 240 347.45 240.4 347.45 240.9
M 356.15 237.2
Q 355.95 237.65 355.85 238.05 355.65 238.7 355.45 239.4
L 355.45 239.45
Q 355.65 238.95 355.85 238.55 356.05 238.05 356.15 237.2 356.15 237.15 356.15 237.05 356.15 236.55 356.25 236.15 357.15 233.4 358.05 230.3
M 357.1 237.05
Q 356.15 238.9 355.75 240.35 355.7 240.6 355.65 240.9
M 355.45 239.45
Q 355.4 239.7 355.3 240
M 359.5 236.05
Q 358.8 237.5 358.1 239
M 363.575 234.7
Q 362.8142578125 235.75234375 362.1 236.8
M 350.35 235.6
Q 352.15 231.6 354 229
M 359.5 233.15
Q 357.1 234.9 356.15 237.2
M 356.55 239.4
Q 358.55 234.7 362.3 231.1 363.8 229.65 365.3 228.35
M 352.5 239
Q 355.6 232.95 358.4 228.3
M 402.7 231.6
Q 403.7 226.55 405.4 222.7"/>

<path id="Layer0_0_1_STROKES" stroke="#000000" stroke-width="1" stroke-linejoin="round" stroke-linecap="round" fill="none" d="
M 159.9 133.35
Q 162.6 135.8 164.5 138.75 165.1 139.6 166 140.3
M 248.05 186.95
Q 245.05 188.95 242.35 191.3 241.55 191.95 241.15 193 240.55 194.45 240.05 195.95
M 242.05 191.95
Q 242.05 194.45 241.7 196.9 241.55 197.95 241.05 198.95
M 241.05 186.95
Q 246.75 183.7 253.05 183.5 254.55 183.45 256.05 182.95
M 239.05 188.95
Q 246.65 186.1 254.15 184.3 255.55 183.95 257.05 183.95 259.05 183.95 261.05 183.95
M 153.75 128.5
Q 153.15 129 152.65 129.6 152.9 129.9 153 129.9 153.25 129.9 153.45 129.7 153.75 129.5 153.75 129
M 148.25 129
Q 146.9 130.2 146.2 131.7 146.15 131.9 146.05 132 143.9 135.45 144 140.5 144 140.75 144.3 140.9 144.5 141 144.75 140.95 146.05 140.8 146.8 140.05 147.1 139.7 147.7 139.45 147.9 139.4 148 139.25 148.6 138.7 149.3 138.05 149.75 137.6 150.2 137.2 150.4 137 150.5 136.75 151.1 135.6 151.85 134.55 152.55 133.5 153.25 132.75 154.45 131.55 155.2 130.9 156.05 130.2 156.6 129.3 157.2 128.3 156.9 127.05 156.7 126.35 156 126.2 153.55 125.55 151.95 127.2 151.75 127.4 151.5 127.5 150 128.4 148.9 129.15 148.75 129.25 148.55 129.35 148.4 129.4 148.25 129.5 147.8 130.1 147.25 130.5
M 148.5 131.25
Q 148.15 131.9 147.9 132.5 148.15 132.4 148.3 132.3 148.8 132.1 149 131.5
M 146.5 136.25
Q 145.8 137.5 145.55 137.6 146.55 137.7 146.8 137 146.9 136.75 146.9 136.5 146.9 136.4 146.8 136.25 146.75 136.15 146.75 136
M 154.65 136.2
Q 156.95 138.35 158.8 140.75
M 154.35 142
Q 157.3 143.3 158.95 145.8 159.15 146 159.4 146.2
M 263.75 360.15
Q 264.9 362.55 266.15 364.6 266.4 365.1 266.55 365.55
M 259.3 362.6
Q 260.1 364.6 260.7 365.85 261.15 366.85 261 367.85
M 253.4 364
Q 255.3 366.35 256.35 368.3 256.45 368.5 256.55 368.7
M 255.95 382.75
Q 255.5 380.7 256.05 379.7 256.2 379.5 256.3 379.25
M 267.5 376.8
Q 265.5 378.75 264.95 380.55 264.6 381.25 264.35 381.95 263.1 384.6 262.6 387.4 262.55 387.6 262.5 387.8 262.35 389.75 262.4 391.15 262.6 393.3 264 392.85 266.55 392.1 267.8 390.6 269.9 388.2 271.6 385.45 272 384.95 272.35 384.45 273.55 382.2 273.55 378.55 273.55 378.1 273.5 377.5 273.2 375.65 271.6 375.6 270.15 375.55 269 375.6
M 258.25 383.15
Q 258.25 381.45 258.45 380.9 258.95 379.25 260 378.05
M 267.6 379.4
Q 267.2 380.5 266.6 381.35 267.4 380.95 267.8 380.1 267.45 380.6 267.25 380.65
L 267.4 380.1
Q 267.55 379.75 267.6 379.4 Z
M 264.8 387
Q 264.9 387.55 265.05 388 265 387.7 265.05 387.4 265.3 386.5 265.8 387.45 266.5 388.75 265.3 389.1 265.1 388.55 265.05 388
M 274 391.25
Q 275.85 389.35 276.3 387.05
M 279.5 388.35
Q 279.05 390.35 278.65 390.65 278.55 390.75 278.45 390.95
M 248.8 455.35
Q 248.45 455.5 248.2 455.5
M 322.3 469.6
Q 321.55 469.85 320.8 469.95 320.7015625 469.99921875 320.55 469.85 320.6603515625 469.9544921875 320.85 469.9 320.8318359375 469.9287109375 320.8 469.95
M 230.05 457.1
Q 228.55 457.1 227.1 457.3 226.8 457.35 226.55 457.6 224.5 459.55 223.15 460.75 222.5 461.35 222.25 462.65 221.95 463.95 223 464.25 225.35 464.9 228.05 464.85 228.3 464.85 228.6 464.95 229.3 465.1 230.05 465.1 231.85 465 234.55 464.95 236.05 464.9 236.7 464.25 237.05 463.85 237.55 463.6 238.75 462.95 239.7 461.75 240.3 461.05 241.5 460.5 242.5 460.05 242.45 459.1 242.4 458.25 241.6 457.95 241.3 457.85 241.05 457.65 239.25 456.15 236.55 456.1 235.55 456.1 234.95 455.8 234.55 455.6 234.05 455.65 232.8 455.85 231.6 456.2 231.05 456.35 230.55 456.35 230.05 456.35 229.55 456.1
M 230.55 458.85
Q 229.8 459.25 229.05 459.5 229.35 459.35 229.8 459.1 229.7 459.1 229.55 459.15 229.2 459.25 229.05 459.1 229.45 459 229.8 459.1
M 232.75 462
Q 232.6669921875 462.057421875 232.6 462.1 232.641015625 462.0876953125 232.675 462.075 232.7166015625 462.041796875 232.75 462 232.9234375 461.90546875 232.95 461.85 232.71796875 461.9892578125 232.35 462.175 232.4796875 462.137890625 232.6 462.1
M 232.25 462.2
L 232.3 462.2 232.35 462.175
Q 232.3037109375 462.1861328125 232.25 462.2 231.473828125 462.190234375 232.3 461.85 232.9845703125 461.747265625 232.95 461.85
M 232.3 462.2
Q 232.508203125 462.2416015625 232.675 462.075 232.9951171875 461.9771484375 233.3 461.85
M 225.375 461.325
Q 224.858984375 461.4904296875 224.35 461.7 224.75 462.3 225.25 461.8 225.5138671875 461.5361328125 225.75 461.2 225.5615234375 461.2572265625 225.375 461.325 225.6 461.025 225.875 461.075 225.975 461.025 226.05 461.1 225.89453125 461.145703125 225.75 461.2 225.769921875 461.148046875 225.8 461.1 225.8375 461.075 225.875 461.075
M 236.8 459.1
Q 236.6271484375 459.2234375 236.45 459.35 236.4908203125 459.35 236.55 459.35 236.7 459.25 236.8 459.1 236.625 459.175 236.475 459.225 236.325 459.25 236.2 459.25 236.2 459.3330078125 236.45 459.35 236.25234375 459.4734375 236.05 459.6
M 240.55 467.35
Q 239.6 468.1 238.75 467.75 238.45 468 238.3 468.1 238.95 468.5 239.8 468.4 240.7 468.25 240.3 467.85
M 215.3 466.1
Q 214.95 466.6 214.8 467.1
L 215.05 467.05
Q 215.3 467 215.55 466.85
M 550.6 567.85
Q 549.35 568.2 548.4 568.95 548.25 569.1 548.1 569.35 546.85 572.15 547.65 575.35 547.75 575.6 547.85 575.85 548.5 577.2 549.85 577.55 550.4 577.7 550.85 577.35
M 531.1 567.6
Q 530.95 568.35 530.85 569.1 532.8 573.1 534.7 576.8
M 530.85 569.1
Q 530.1 573.25 529.9 577.35 529.85 578 529.85 578.6
M 535.35 567.6
Q 535.4 570.15 535.2 572.6 535.1 573.75 535.1 574.85 535.1 575.5 535.1 576.1
M 557.35 566.85
Q 557.35 571.45 557.45 576.35 557.5 576.5 557.6 576.6
M 561.1 567.35
Q 559.5 568.7 558.05 570.3 561 572.95 562.7 576.3 562.85 576.6 563.1 576.85 563.25 577 563.35 577.1
M 542.15 567.1
Q 541.9 572.35 541.65 577.15
M 569.6 566.85
Q 569.1 569.2 569 571.6 569 571.75 569 571.85 568.95 572.85 568.85 573.85 568.75 575.5 568.6 577.1
M 565.85 566.35
Q 566.45 569.6 568.6 571.6 568.75 571.75 569 571.85
M 337.5 469.2
Q 335.15 469.8 333.6 470.1 331.2 470.6 329.15 471.65 328.85 471.8 328.55 471.95 327.7 472.4 327 473.75 326.85 474.05 326.95 474.6 327.1 475.8 327.2 477.05 327.3 479 329.6 479 333.85 479.05 338.1 478.85 338.6 478.8 339.1 478.75 341.45 478.5 343.6 477.95 344.1 477.8 344.65 477.75 347.5 477.35 348.2 474.6 348.35 474.05 348.6 473.55 349.5 471.7 347.65 471.4 347.1 471.3 346.6 471.1 343.2 469.75 339.1 469.8 338.6 469.8 338.1 469.65 337.85 469.55 337.5 469.2 337.8 469.15 338.1 469.05
M 344.8 467.1
Q 344.433203125 466.947265625 344.05 466.8 343.802734375 466.697265625 343.55 466.6 343.425 466.6 343.3 466.6
M 344.05 466.8
Q 344.195703125 466.7669921875 344.3 466.6 344.05 466.6 343.8 466.6 343.675 466.6 343.55 466.6
M 343.1 473.35
Q 342.5 473.75 342 474.25 341.85 474.35 341.9 474.6 342.15 475.35 342.9 474.95 343.1 474.85 343.35 474.8 343.5 474.75 343.6 474.6 344.45 473.9 343.85 473.35
M 335.35 474.85
Q 335 475.5 334.5 476 334.65 476.3 335.6 476.05 335.85 476 336.1 475.8 336.25 475.75 336.3 475.6 336.5 475.35 336.6 475.1
M 331.85 473.1
Q 332.05 473.2 332.2 473.3 332.4 473.15 332.6 473.05 333.65 472.9 333.1 473.6 333 473.6 332.85 473.55 332.55 473.4 332.2 473.3 332 473.4 331.85 473.55
M 353.05 478.35
Q 352.05 478.65 351.05 478.45 350.5 478.35 350.05 478.65 349.35 479.1 349.3 480.1 350.05 480.1 350.8 480 350.95 480 351.05 479.9 351.5 479.65 351.55 479.35"/>
</defs>

<g transform="matrix( 1, 0, 0, 1, 0,0) ">
<use xlink:href="#Layer2_0_FILL"/>

<use xlink:href="#Layer2_0_1_STROKES"/>
</g>

<g transform="matrix( 1, 0, 0, 1, 0,0) ">
<use xlink:href="#Layer1_0_FILL"/>

<use xlink:href="#Layer1_0_1_STROKES"/>

<use xlink:href="#Layer1_0_2_STROKES"/>
</g>

<g transform="matrix( 1, 0, 0, 1, 0,0) ">
<use xlink:href="#Layer1_1_1_STROKES"/>
</g>

<g transform="matrix( 1, 0, 0, 1, 0,0) ">
<use xlink:href="#Layer0_0_1_STROKES"/>
</g>
</svg>
