
<svg xmlns="http://www.w3.org/2000/svg" version="1.1" xmlns:xlink="http://www.w3.org/1999/xlink" preserveAspectRatio="none" x="0px" y="0px" width="595px" height="595px" viewBox="0 0 595 595">
<defs>
<path id="Layer1_0_1_STROKES" stroke="#000000" stroke-width="1" stroke-linejoin="round" stroke-linecap="round" fill="none" d="
M 357.55 333.15
Q 357.45 334.15 357.25 334.75 357.2 334.9 357.2 335.2 357.3 336.45 357.3 337.7 357.3 338.85 357.45 340 357.65 340 357.85 340 360.6 340.05 362.15 340.85 362.9 341.3 363.95 341.15 367.95 340.75 370.2 341.9 371.05 342.3 372.05 342.35 372.9634765625 342.3939453125 373.875 342.425
M 338.95 324
Q 339.45 324.25 339.9 324.55 340.35 324.9 340.8 325.2 342.3 325.4 344 324.65 345.75 323.85 347.1 322.65 349.1 324.8 351.45 325.1 351.75 325.15 352 325.15 352.8 325.2 353.3 325.4 353.75 325.65 354.1 325.4 354.25 325.25 354.5 325.25 354.65 325.25 354.8 325.25 352.95 328.5 350.9 331.85 350.85 332 350.7 332.15
M 339.2 324.75
Q 339.95 325.1 340.8 325.2 341.1 325.4 341.45 325.65 341.6 325.75 341.8 325.9 343.4 327.15 344.35 329.1 344.4 329.2 344.5 329.35 345.2 330.6 345.3 332.65
M 338.7 331.1
Q 338.95 331.3 339.2 331.55 340.05 331.35 340.75 331.25 341.35 331.1 342 331.1
M 339.2 331.55
Q 340.4 332.55 341.25 333.65 341.35 333.8 341.5 333.9
M 338.7 331.6
Q 338.95 331.55 339.2 331.55
M 325.05 334.225
Q 327.1421875 334.4140625 329.25 334.6 330.3 334.65 331.4 334.75 334.2 335 336.55 335.75 337.25 335.95 337.8 336.2 337.9 334.1 338.2 332.4
M 356.55 332.65
Q 355.9 332.65 355.3 332.75 353.75 333 352 332.95 349.5 332.75 347.35 333.4 346.85 333.55 346.35 333.65 344.55 334.05 342.75 334.65 342.45 336.4 342.45 338.35 342.45 338.8 342.45 339.25 342.5 342.15 342.65 345.1 342.65 345.35 342.65 345.6 342.75 347 342.65 348.4 342.6 349.4 342.95 350.25 343 350.45 343 350.7 343 352.65 343 354.6 343.2 354.85 343.4 355.15 347 354 350.7 353.4 351.8 353.3 352.75 352.85 353.25 352.65 353.75 352.5 355.5 352.15 357.3 352
M 337.8 336.2
Q 337.8 336.7 337.8 337.2 337.8 340.2 338.05 343.05 338.2 343.95 338.2 344.85
M 346.85 326.55
Q 347.7 328.95 348.05 331.35 348.1 331.6 348.1 331.85
M 357.45 340
Q 357.55 341.3 357.75 342.55 358 343.8 358.15 345.1 358.2 346 358.25 346.85 358.5 349.55 358.6 352.25
M 336.9 346.1
Q 337.5 347.65 338.45 348.65 340.55 350.8 342.05 353.2 342.5 353.9 343 354.6 343 355 343 355.3 343.1 355.25 343.2 355.2 343.3 355.15 343.4 355.15"/>

<path id="Layer0_0_1_STROKES" stroke="#000000" stroke-width="1" stroke-linejoin="round" stroke-linecap="round" fill="none" d="
M 333.85 100.35
Q 333.35 100.6 332.85 100.85 332.35 101.1 332.1 101.5 331.8 102 330.75 102.2 330 102.4 329.3 102.6 328.35 102.9 327.2 102.7 323.4 102.05 321.1 99.3 317.35 94.5 319.15 88.6 320.65 83.5 324.7 80.05 326.1 78.75 328.2 78.9 328.75 78.95 329.15 79.15 331.95 80.35 333.55 82.5 336.65 81.95 339.55 81.1 339.95 81 340.5 81
M 327.6 91.7
Q 327.5 91.85 327.45 91.95 327.35 92.2 327.35 92.5 327.35 92.75 327.45 93 327.9 93.9 329.15 93.1 329.35 93 329.35 92.75 329.35 92.5 329.15 92.3 328.55 91.8 327.6 91.7 327.5 91.65 327.45 91.65 327.2 91.6 326.95 91.55 325.5 91.4 324.6 92.15 323.65 93 323.4 94.5
M 333.05 91.2
Q 332.55 89.35 331.25 89.25 329.95 89.1 329 89.95 327.95 90.85 327.6 91.7
M 332.85 99.3
Q 336.65 97.7 339.95 96.3 340.75 95.95 341.5 95.7
M 335.4 86.55
Q 334.85 84.2 333.55 82.5
M 378.65 86.55
Q 377.65 83.35 375.1 82.45 374.6 82.25 374.1 82.2 372 81.8 370.45 82.9 367.3 85.1 365.4 88.6 365.2 88.9 365.15 89.25 364.3 92.6 364.2 96.1 364.2 96.25 364.2 96.3 364.2 96.65 364.25 97.1 364.25 97.2 364.25 97.3 364.6 102.45 368.7 105.2 369 105.45 369.45 105.65 373.2 107.1 376.3 104.6 376.9 104.15 377.5 103.7 377.9 103.4 378.3 103 380.15 101.2 381.2 98.85
M 378.65 84.05
Q 380.95 83.75 383.25 83.4 383.75 83.25 384.25 83.15 384.75 83 385.25 83
M 374.6 93.75
Q 375.85 94.5 376.9 95 377.9 92.55 375.1 92.55 373 92.55 371.7 93.55 372.55 94.2 373.05 95.25 373.35 95.8 373.5 96.3 374.15 98.7 372.1 98.15 371.8 98.05 371.5 97.95 369.2 96.75 370.55 94.75 371.05 94 371.7 93.55 370.6 92.75 369 92.55 368.5 92.5 368 92.2
M 392.05 311.8
Q 390.35 301.95 390.55 291.4 390.75 281.35 390.6 271.5 390.4 262.05 389.95 252.65 389.6 244 389.95 235.35 390.3 227.25 389.3 220 388.45 214.1 389.55 208.8 389.9 206.85 389.9 204.8 390.1 185 390.3 165.1 390.4 145.7 390.1 126.4 390.1 124.9 389.95 123.35 389.7 118.25 389.7 113.15 373.25 113.15 356.8 113.65 355.8 113.65 354.8 113.7 342.05 114.15 329.3 114.15 309.4 114.15 289.6 114.15 269.75 114.15 249.9 113.65 249.35 113.65 248.85 113.65 242.15 113.2 235.35 113.15
M 389.7 111.15
Q 389.7 112.15 389.7 113.15 390.05 113.15 390.4 113.15
M 328.1 209.7
Q 328.2 209.15 328.4 208.5 328.85 206.8 330.2 205.3 331.5 203.8 332.9 203.05 333.7 202.5 334.85 201.95 335.45 201.65 336.2 201.25 337.95 200.55 340.3 200.6 340.75 200.6 341 200.95 341.2 201.05 341.35 201.25 341.6 201.65 342.15 202.25 342.5 202.75 342.65 203.3 343.9 203.45 344.8 203.05 346.5 202.2 348.25 201.7 349 201.5 349.45 201.3 349.65 201.2 349.8 201.25 350.35 201.3 350.65 201.1 350.75 201.05 350.95 201.1 351.75 201.3 351.8 202.15 351.8 202.2 351.8 202.35 351.9 202.75 351.9 203.3 352 204.75 353.05 205.25 353.65 205.55 354.2 205.7 354.5 205.75 354.85 205.8 355.1 205.9 355.35 206 354.9 206.7 354.2 207.4 354.1 207.6 353.95 207.8 354.2 208 354.6 208.1 355.15 208.3 355.8 208.25 357.3 208.1 357.65 209 357.7 209.2 357.55 209.45 356.95 210.35 356.95 211.3 356.95 211.4 357.05 211.6 357.85 212.2 358.95 212.45 360.1 212.75 360.45 213.65 360.5 213.85 360.35 214 359.9 214.8 359.2 215.3 359.1 215.4 358.9 215.6 358.7 215.75 358.5 215.9 358.15 216.2 357.7 216.8 357.55 217 357.65 217.25 357.85 217.7 358 218.15 358.1 218.45 358.1 218.85 357.95 220.25 357 221.4 356.8 221.6 356.6 221.75 356.05 222.4 355.35 222.45 355.9 223.25 355.85 224.3 355.8 225.05 355.35 225.7 355.2 226.05 355.05 226.3 354.1 227.7 353 228.55 353.1 228.5 353.25 228.65 353.75 229.45 353.25 230.05 352.55 230.75 351.65 231 351.55 231.05 351.4 231.1 351.1 231.15 350.75 231.25 350.35 231.25 349.95 231.25 349.8 231.35 349.55 231.55 348.4 232.4 346.65 233 345.1 233.6 343.45 233.8 343.45 234.05 343.4 234.35 343.35 234.5 343.2 234.6 342.45 235.3 341.35 235.55 341.05 235.6 340.75 235.7 340.1 235.7 339.55 235.95 338.5 236.25 337.5 235.95 336.9 235.7 336.5 235.35 336.35 235.25 336.15 235.15 336.1 235.15 336.05 235.15 335.85 235.1 335.7 235.1 335.25 234.9 334.75 234.85 333.5 234.75 332.85 234.15 332.65 234.05 332.5 233.9 331.1 232.9 329.7 232.25 329.6 232.2 329.5 232.05 328.9 231.6 328.2 231.3 328.05 231.95 327.85 232.5 327.75 232.65 327.7 232.75 326.8 235.35 325.7 237.9 324.85 239.7 323.7 241.45 323.65 241.6 323.6 241.7 322.95 243.55 321.3 244.7 321.05 244.9 320.7 244.95 319.65 245.2 318.8 245.85 317.15 247.05 315.15 247.95 315 247.95 314.9 247.95 313.15 248.05 311.45 248.05 311.15 248.05 310.75 248 309.1 247.65 307.95 246.75 306.25 246.95 305.65 248.15 305.4 248.5 305.65 248.85 305.85 249.05 306 249.2 306.3 250.05 307.55 250.05 307.8 250.05 308 250.05 308.8 250.1 309.4 250 311.5 249.55 313.75 249.55 315.4 249.55 316.9 249.65 318.2 249.85 319.2 249.6 319.6 249.45 319.9 249.4 321.85 248.85 322.65 247.65 323.05 246.95 323.05 246.05 323 245.2 322.65 244.65
M 328.2 231.3
Q 328.35 230.9 328.45 230.45 328.45 230.35 328.45 230.2 328.55 229.65 328.6 229.1 328.65 228.3 328.75 227.5 328.75 226.85 328.9 226.3 329.05 226.05 329.05 225.65 328.85 224.5 329.15 223.6 329.25 223.3 329.25 222.9 329.25 221.65 329.1 220.45 329.05 219.85 329 219.3 328.9 218.7 328.85 218.15 328.8 216.95 328.6 215.85 328.55 215.3 328.55 214.7 328.45 214.45 328.4 214.25 328.35 213.7 328.3 213.15 328.2 212.55 328.15 212 328.1 211.65 328.05 211.3 327.95 211.1 327.95 210.85 327.5 208.85 326.5 207.35 325.85 206.4 325.4 205.25 325.35 205.05 325.3 204.95 324.55 202.95 322.9 201.9 322.45 201.65 322.3 201.25 322.2 201.05 322 200.95 321.85 200.75 321.7 200.55 320.85 199.55 319.9 199.45 319.25 199.4 318.7 199.3 318.45 199.15 318.05 199.15 317.4 199.2 316.7 199.3 315.6 199.4 314.45 199.35 313.8 199.35 313.5 199.45 313.15 199.6 312.85 199.65 312.6 199.7 312.35 199.7 311.4 199.85 310.55 200.25 309.05 201 307.3 202.65 306.1 203.85 305.15 205.75 303.5 209.2 302.25 213.15 301.6 215.05 301.15 217.25 300.95 217.9 300.95 218.6 301.05 219.85 300.75 220.9 300.65 221.2 300.65 221.6 300.6 221.7 300.6 221.75 300.35 222.85 300.05 223.85 300.05 224 300.05 224.05 300 224.45 299.95 224.75 299.9 224.9 299.9 225 299.75 225.6 299.7 226.15 299.65 226.7 299.5 227.3 299.5 227.8 299.65 228.25 299.75 228.45 299.75 228.65 299.65 229.75 299.9 230.55 300.15 231.05 300.5 231.6 300.15 230.55 300.05 229.15 300.4 228.65 300 227.75
M 343.45 233.8
Q 343.35 233.8 343.2 233.8 342.5 233.9 342.05 233.45 343.1 232.8 343.45 233.8 Z
M 307.95 246.75
Q 307.5 246.35 307.15 246 306.95 245.8 306.8 245.65 306.05 244.9 305.55 244.05 303.95 244.25 302.95 244.05 301.8 243.9 300.85 244.3 300.65 244.45 300.45 244.5 299.75 244.65 299.45 245.1 299.3 245.2 299.05 245.3 298.3 245.4 297.85 245.9 297.7 246.05 297.45 246.1 297.35 246.15 297.3 246.25 296.7 246.55 295.9 246.6 295.65 246.6 295.5 246.8 295.1 247.25 295.1 247.9 295.2 248.65 295 248.7 294.35 248.85 293.8 248.7 293.6 248.65 293.4 248.7 292.25 248.95 291.6 249.55 290.75 250.25 291.25 251.3 291.7 252.05 292.05 252.9 292.25 253.35 292.5 254.05 292.6 254.1 292.65 254.25 293 255 293.45 255.7 293.6 255.8 293.7 256 293.85 256.35 294.1 256.95 294.1 257.05 294.15 257.1 294.5 257.8 295.45 258.15 295.5 258.15 295.55 258.25 296 258.45 296.35 258.5 297.55 258.6 298.6 258.3 299.2 258.1 299.75 258.05 300.05 257.9 300.4 257.8 301.2 257.5 302.5 257.55 302.75 257.55 302.95 257.55 303.2 257.55 303.45 257.6 303.9 257.8 304.35 258 304.5 258.05 304.85 258.05 305.55 258.1 306.25 258.05 306.3 258.05 306.45 258 307.65 257.5 308.8 257.8 309.05 257.9 309.4 258 310.3 258.15 311.45 258.5 312.6 258.75 313.75 258.75 315.15 258.8 316.45 258.95 316.85 258.95 317.15 259 317.8 259 318.3 259.25 318.7 259.5 319.2 259.85 319.6 260 319.9 260.25 320.15 260.5 320.8 260.5 323.2 260.5 325.25 259.75 325.75 259.65 326.3 259.45 326.5 259.4 326.75 259.2 327.35 258.75 327.95 258.25 328.1 258.1 328.2 258 328.35 257.6 328.55 256.95 328.8 256.15 329.95 255.75 330.3 255.7 330.9 255.2 331.6 254.55 331.7 253.8 331.7 253.55 331.65 253.35 331.5 252.45 332.05 251.75 332.65 250.75 333.05 249.7 333.15 249.35 333.3 248.95 333.45 248.65 333.45 248.35 333.45 247.5 333.3 246.75 333.3 246.6 333.25 246.5 333 245.65 332.8 245.15 332.5 244.25 331.95 243.5 331.9 243.45 331.85 243.3 331.4 242.95 330.9 242.75 330.2 242.4 329.25 242.25 329.05 242.15 328.8 242.1 328.35 241.9 327.9 241.95 327.65 242.05 327.45 241.9 326.2 241.45 324.9 241.95 324.8 242.05 324.65 242.15 324.1 242.75 323.35 243.05
M 323.75 245.35
Q 324.7 244.45 326.05 244.15 326.9 244 327.65 243.5
M 352.1 228.9
Q 352.6 228.9 353 228.55 352.25 228.25 352.1 228.9 Z
M 349.95 231.25
Q 349.75 231.25 349.65 231.25 348.95 231.35 349.4 230.9 350.15 230.9 349.95 231.25 Z
M 333.6 252.65
Q 335.6 253.65 336.5 255.2 337.2 256.45 337.7 258
M 324.45 248.5
Q 325.8 248.4 326.95 248.5 327.2 248.5 327.45 248.5 328.35 248.7 329.25 248.85 329.5 248.9 329.7 249.1 330.15 249.55 330.7 249.45
M 333.85 262.1
Q 334 262.75 334.2 263.4 333.8 264.55 333.6 265.65 333.6 265.95 333.5 266.1 333.35 266.45 333.3 266.95 333.05 267.95 332.55 268.9 332.35 269.25 332.2 269.55 331.8 270.7 331.35 272
M 337.45 259.75
Q 336.85 261.8 337.35 263.65 337.45 263.9 337.5 264.15 337.7 264.8 337.8 265.4 338.05 266.55 338.2 267.7 338.2 267.95 338.25 268.2 338.3 268.35 338.3 268.45 338.3 269.3 338.7 270
M 338.7 272.8
Q 337.75 275.45 337.9 278.4 337.95 281.15 338.05 283.95 338.05 284.2 338.15 284.5 338.2 285.1 338.3 285.75 338.3 285.85 338.4 286 338.65 287.25 338.75 288.55 338.85 288.9 338.95 289.3 339.2 290.6 339.15 291.9 339.1 292.65 339.35 293.25 339.45 293.45 339.45 293.7 339.45 298.65 339.4 303.6 339.4 305.45 339.7 307.15
M 326.5 287.85
Q 326.5 288.5 326.5 289.1 326.5 289.25 326.5 289.35 327.45 288.35 327.7 287.4 327.75 287.1 327.9 286.75 328.05 286.55 328.1 286.4 328.3 285.95 328.45 285.55 328.65 285.05 328.85 284.55 329.05 283.9 329.3 283.25 329.7 282.25 329.85 281.25 329.95 281 330.05 280.75 330.3 280.1 330.4 279.2 330.45 278.25 330.5 277.35 330.65 276.35 330.75 275.35 330.8 274.3 330.8 273.3
M 325.75 296.5
Q 326.1 294.7 326.1 292.95 326.1 292.65 326.1 292.4 326.2 291.1 326.45 289.9 326.5 289.6 326.5 289.35
M 352.75 313.85
Q 353.5 314 354.2 314.25 354.5 314.35 354.8 314.4 357.2 315.15 359.85 315.4 361.9 315.6 363.95 315.6 365.9 315.6 367.1 316.2 367.5 316.35 368 316.45 371.75 316.75 375.35 317.3 376.5 317.5 377.65 317.7 378.65 317.9 379.75 317.9 380.9 317.9 381.85 318.2 382.55 318.4 383.25 318.6 385.25 319.1 387.35 319.5 389.45 319.85 390.95 320.45
M 392.5 311.8
Q 392.5 313.85 392.4 315.85 392.3 316.65 392.4 317.3 392.3 319.95 392.85 322.1 393 323 392.75 324.05 392.5 325 392.75 325.95 394.25 331.1 393.85 337.2 393.7 339.6 393.65 342.05
M 357.45 340
Q 357.65 340 357.85 340 360.6 340.05 362.15 340.85 362.9 341.3 363.95 341.15 367.95 340.75 370.2 341.9 371.05 342.3 372.05 342.35 372.9634765625 342.3939453125 373.875 342.425 378.137109375 342.63515625 382.3 342.8 385.7 342.95 387.55 343.9 388.4 344.35 389.35 344.5 390.05 344.65 390.65 344.85
M 325 301.55
Q 326.05 300.4 326.1 298.75 326.1 298.5 326.05 298.25 325.95 297.3 326.25 296.5
M 320.6 312.55
Q 320.6 312.8 320.55 313.05 320.45 313.2 320.4 313.3 320.2 314 319.9 314.8 321.25 314.15 321.75 313.15 321.85 312.8 322.1 312.55 322.8 311.75 323.45 310.55 323.65 310.2 323.75 309.85 324.05 309.05 323.95 308.25 323.95 307.3 323.85 306.4 323.7 305.75 323.85 305.15 323.95 304.15 324.15 303.6 324.45 302.7 324.7 301.8
M 323.75 309.85
Q 323.95 309.85 324.2 309.9 324.9 309.9 325.3 310.1 325.5 310.2 325.75 310.2 327.5 310.2 329.3 310.35 329.55 310.35 329.8 310.4 330.3 310.6 330.8 310.7 331.6 310.9 332.35 311.05 332.6 311.1 332.85 311.2 333.45 311.5 334.2 311.55 334.65 311.6 335.15 311.6 335.4 311.6 335.65 311.6 336.15 311.65 336.65 311.8 336.85 311.8 337 311.85 337.3 312 337.7 312.05 337.95 312.1 338.2 312.25
M 267.15 301.55
Q 265 301.9 263.05 302.65 262.55 302.85 262 303.05 259.55 303.75 256.95 304.3 256.45 304.45 255.9 304.5 252.55 304.95 249.3 305.55 246.3 306.15 243.55 306.95 243.65 307.55 243.85 308.1 244.4 309.85 244.85 311.15 245.1 312 245.45 312.8 246.65 316.05 248.3 318.9 249.5 321 251.05 322.7 253.4 323.25 255.9 323.4 257.45 323.5 259.05 323.85 268.25 326.05 278.35 326.45 279.35 326.55 280.45 326.85 285.2 328.1 290.5 328.5 291.55 328.55 292.65 328.7 295.2 329.1 297.65 329.5 298.25 329.6 298.75 329.6 304.2 329.8 308.9 331.05 312.95 332.15 316.95 333.35 318.05 333.65 319.15 333.7 322.08359375 333.9640625 325.05 334.225 327.1421875 334.4140625 329.25 334.6 330.3 334.65 331.4 334.75 334.2 335 336.55 335.75 337.25 335.95 337.8 336.2
M 353.9 373.25
Q 353.9 373.7 353.95 374.1 353.95 374.2 353.95 374.25 354.25 375.5 354.9 376.3 355.3 376.65 355.55 376.9 356.35 377.55 357.45 377.85 357.65 377.95 357.85 378 357.95 378 358.1 378.05 359.05 378.45 360.25 378.5 360.35 378.5 360.5 378.5 361.75 378.55 363.05 378.5 363.15 378.5 363.3 378.5 363.5 378.45 363.65 378.45 364.25 378.25 364.8 378.2 364.95 378.15 365.05 378.15 366.3 377.8 367.5 377.45 368.5 377.1 369.4 376.75 369.95 376.45 370.45 375.95 370.6 375.8 370.7 375.65 370.9 375.45 371.15 375.15 371.3 375.1 371.35 374.95 371.7 374.65 372 374.1 372.1 373.95 372.25 373.75 372.95 372.75 373.35 371.85 373.75 370.7 374.2 369.55 374.4 369 374.55 368.4 374.6 368.2 374.6 368 374.65 366.7 374.4 365.5 374.35 365.25 374.3 365.05 374.3 364.9 374.2 364.8 374.05 364.15 373.7 363.75 372.95 362.75 371.8 362.1 371.75 362.05 371.7 362 370.8 361.4 369.65 361.1 369.45 361.05 369.15 360.9 369 360.85 368.9 360.8 368.35 360.6 367.85 360.4 366.85 360 365.7 359.65 365.4 359.5 365.05 359.4 363.85 359 362.55 358.9 362.2 358.9 361.9 358.9 361.15 358.8 360.35 358.75 360.25 358.75 360.1 358.75 358.9 358.7 357.7 358.6 357.45 358.6 357.25 358.75 357.15 358.8 356.95 358.8 356.3 358.75 355.8 358.9 355.6 358.95 355.4 358.95 354.2 359 353 359.2 351.8 359.4 350.65 359.7 348.35 360.25 346.7 361.75 346.5 361.85 346.4 362.05 346.25 362.1 346.2 362.25 345.95 362.55 345.75 362.95 345.7 363 345.65 363.15 345.5 363.4 345.5 363.75 345.55 364.35 346.05 364.7 346.5 365.05 347.1 365.1 347.85 365.25 348.5 365.1 348.8 365.05 349.1 364.95 349.25 364.95 349.4 364.95 349.55 364.9 349.75 364.9 350.2 364.8 350.75 364.55 351.05 364.45 351.35 364.4 351.65 364.3 352 364.15 352.75 363.75 353.5 363.5 353.7 363.5 353.8 363.5 354.35 363.5 354.8 363.3 354.85 363.3 354.9 363.3 355.35 363.3 355.75 363.25 355.9 363.25 356.05 363.25 356.8 363.65 357.05 364.2
L 357.15 364.3
Q 357.4 364.8 357.55 365.35 357.55 365.5 357.55 365.55
L 357.65 365.6
Q 357.7 365.95 357.7 366.25 357.75 366.3 357.75 366.35 357.75 367 357.75 367.65 357.75 367.95 357.7 368.2 357.7 368.3 357.7 368.35 357.7 368.45 357.65 368.6 357.65 368.7 357.65 368.8 357.65 368.85 357.55 368.85 357.5 369.4 357.2 369.85 357.05 370.1 357 370.35 356.85 370.55 356.55 370.8 356.25 370.9 355.9 370.9 355.8 370.9 355.65 370.95 354.45 371.2 354.2 372.35 354.2 372.4 354.2 372.55 353.95 372.85 353.9 373.25 Z
M 236.6 332.15
Q 236.05 339.25 237.25 345.45 237.6 347.45 237.6 349.45 237.6 356 237.25 362.6 240.15 363.2 243.15 363.75 252.3 365.6 261.5 367.25 271 369 280.4 370.8 283 371.35 285.5 372.15 286.2 372.35 286.9 372.45 291.7 373.5 296.2 374.65 297.15 374.9 298.1 375.1 300.85 375.65 303.8 376.15 308.95 377.1 314 378.3 317.95 379.2 321.6 379.9 324.2 380.35 326.7 381.05 328.35 381.5 330.25 381.7 331 381.75 331.8 381.8 334.2 382.05 336.35 382.5 338.6 382.95 341 383.2 341.75 383.25 342.5 383.25 344.55 383.25 346.15 383.85 346.85 384.1 347.6 384.15 349.65 384.4 351.65 384.65 353.45 384.85 355.2 385.2 357.7 385.55 360.3 385.8 360.8 385.9 361.3 385.95 363.75 386.2 365.9 386.7 369.45 387.55 373.05 387.95 375 388.15 376.65 387.7 378.85 387.2 379.7 388.15
M 239.15 366.75
Q 239.15 368.15 239.25 369.6 239.65 369.75 240.1 369.85 240.6 370.05 241.1 370.25 243.45 371 245.75 371.65 246.45 371.85 247.2 371.9 252.35 372.2 256.85 373.95 259.6 375 262.55 375.5 263.3 375.65 264.05 375.85 267.85 376.75 271.65 377.3 273.95 377.7 276.25 378.05 277 378.2 277.75 378.45 279.3 378.9 280.8 379.15 281.15 379.2 281.45 379.35 283.95 380.2 286.5 380.9 287.5 381.25 288.5 381.55 290.9 382.25 293.6 382.45 294.1 382.5 294.55 382.65 294.85 382.75 295.1 382.75 297.85 382.85 300.25 383.25 301.45 383.55 302.75 383.65 304.5 383.8 306.3 384.05 311.25 384.65 316 385.75 316.55 385.9 317.05 386 317.8 386.15 318.55 386.25 319.3 386.4 320.1 386.45 321.5 386.5 322.25 386.95 322.65 387.15 323.15 387.2 324.4 387.4 325.7 387.45 327.1 387.55 327.85 387.95 328.2 388.15 328.75 388.25 330.25 388.5 331.8 388.8
M 339.25 390.15
Q 340.1 390.25 341 390.3 343.65 390.65 345.65 391.1 346.35 391.2 347.05 391.4 351.75 392.4 356.75 393.1 359.6 393.5 362.35 394.25 363.35 394.5 364.35 394.6 365.75 394.65 366.55 395.1 366.95 395.3 367.5 395.3 368.9 395.15 369.65 395.6 370 395.8 370.55 395.8 373.05 395.7 375.55 395.4
M 377.95 395.45
Q 378.15 395.55 378.3 395.6 378.65 395.8 379.15 395.9 380.25 396.1 380.2 395.3 380.2 395.05 380.2 394.75 380.2 390.95 380.2 387.15
M 385.2 392.35
Q 388.05 390.4 390.75 389 392.6 388.05 394.4 387.15 402.95 382.75 410.8 379.65 413.15 378.75 414.9 378.05 419.25 376.2 423.5 374.05 425.3 373.1 427 372.2 427.35 372.1 427.65 371.95 435.35 368.55 443.4 364.6
M 380.2 386.15
Q 388.25 381.7 397.1 377.55 398.5 376.85 400.1 376.35 408 373.75 415.5 370.3
M 421.1 367.65
Q 427.8 364.55 434.7 362.1 435.2 361.9 435.7 361.65 441.3 358.75 446.7 356.2
M 398.7 346.5
Q 402.05 346.75 405.2 347.7 409.8 349.1 414.3 350.55 414.8 350.75 415.3 350.95 419.9 352.25 425.05 352.25 425.55 352.25 426.05 352.35 430.95 352.85 435.25 354.3 435.95 354.55 436.75 354.7 441.05 355.4 445.9 355.05
M 445.9 357.1
Q 445.45 359.7 445.25 362.6
M 242.3 96.85
Q 246.05 93.8 250.65 93.5 251.15 93.45 251.7 93.3
M 242.2 97.9
Q 242.05 98.4 241.8 98.7 240.8 100.1 239.7 100.75 239.25 101 238.85 101.25 236.65 102.35 233.7 102.35 228.45 102.4 224.2 100 222.55 99 221.6 97.8 220.4 96.15 220.6 93.6 220.8 90.65 221.65 89.1 222.05 88.5 222.35 87.8 222.9 86.45 223.4 85.75 223.65 85.35 223.95 85.1 224.65 84.55 225.25 83.15 225.35 82.8 225.55 82.5 227.7 78.95 231.9 79.15 232.4 79.2 232.85 79 233.85 78.5 235 79.15 238.5 80.9 240.3 83.9 245.9 82.25 251.1 81.95 251.4 81.85 251.65 81.95
M 285.45 83
Q 285.65 82.95 285.9 82.9 284.9 81.5 283.35 81.15 279.15 80.35 277.7 83.45 277.6 83.75 277.4 84.05 275.8 86.1 275.25 88.6 274.15 93.3 276.05 97.6 276.3 98.25 276.7 98.85 277.2 99.7 278.4 100.75 279.6 101.7 281.4 101.3 286.9 100.05 290.05 95.7
M 286.75 88.1
Q 285.6 87.95 284.45 87.95 284.2 87.95 283.95 87.95 282.55 88.05 281.6 89.05 281.4 89.25 281.2 89.45 280.5 90.15 280.5 90.9 280.45 91.9 281.65 91.8 281.9 91.8 282.15 91.8 283.05 91.65 283.5 90.95 283.95 90.15 283.45 89.6
M 293.15 80.1
Q 289.9 81.55 285.9 82.9 286.6 83.9 287 85.55
M 239.85 84.05
Q 240.1 83.95 240.3 83.9 241.6 85.95 242.2 88.55
M 227.45 89.1
Q 226.95 90 226.8 91.15 226.75 91.8 227.15 92.4 227.7 93.5 229 93.05 229.25 93 229.55 92.9 230.5 92.75 230.55 91.55 230.65 91.25 230.45 90.95 229.8 89.75 228.4 89.3 227.9 89.1 227.45 89.1 228.1 87.85 229.5 87.25 230.1 86.95 230.8 87 233.5 87.2 234.7 89.05 235.9 88.4 237 89.1 237.2 89.25 237.3 89.45 237.85 90.05 238.4 90.85
M 227.45 89.1
Q 226.55 89.1 226 89.7
M 234.7 89.05
Q 234.65 89.05 234.55 89.1 232.9 90.2 234 91.7 234.15 91.9 234.4 91.85 235.4 91.8 235.2 90.55 235.15 89.95 234.8 89.35 234.75 89.15 234.7 89.05 Z
M 232.1 116.25
Q 231.9 117.2 231.85 118.2 231.35 122.55 232.2 126.4 232.55 127.85 232.55 129.4 232.55 142.1 233 154.85 233.05 155.9 233.15 156.95 233.55 159.45 233.55 162 233.55 165.8 234.15 169.25 234.55 171.7 234.55 174.25 234.55 187.45 234.05 200.75 234.05 201.25 234 201.8 233.6 204.1 233.35 206.4 233.85 206.6 234.4 206.95 235.85 208.1 235.35 210.35 235.1 211.55 234.7 212.05 233.95 212.85 233 213.45 232.8 213.55 232.75 213.7 232.65 213.75 232.75 213.85 232.9 213.9 234 213.5 236.35 212.75 239.1 213 241.9 213.2 244.3 214.25 245.3 214.7 245.55 216.05 246 218.85 244.65 221 243.8 222.35 242.85 223.25 242.45 223.6 242.15 224.05 241.95 224.35 241.7 224.65 241.45 224.9 241.2 225.15 244.15 226.05 246.75 227.6 247.3 227.95 247.7 228.25 251.45 230.8 248.1 234.1 247.35 234.85 246.6 235.5 248.25 235.8 249.75 236.5 250.05 236.65 250.15 236.95 250.5 239.2 248.4 240.2 247.8 240.45 247.2 240.9 245.75 241.9 243.7 242.1 242.7 242.25 241.7 242.5 237.75 243.35 233.5 243.2 232.85 243.2 232.3 243.1 232.05 246.75 232.8 249.8 233.05 250.7 233.05 251.7 233.05 252.25 233 255.75 232.85 260.9 233.05 265.95 233.05 266.95 232.65 268
M 215.2 216
Q 213.9 214.25 212.1 215.4 211.65 215.75 211.2 216.1 209.85 217.6 209.55 217 209.9 214.85 208.5 214.45 206.8 213.95 204.85 215.3 203.5 216.2 203.3 215.5 203 214.2 201.9 214.1 199.5 213.85 197.9 214.6 195.75 215.75 193.25 216 193.25 214.95 193.1 213.95 193 213.45 192.65 213.2 192.25 212.95 192.05 212.7 191.55 212.1 190.2 212.45 188 213 186.65 213.95 185.72734375 214.586328125 184.55 215.45 183.863671875 215.936328125 183.1 216.5 183.5 214.85 182.65 214.4 182.35 214.2 182.1 214.25 178.55 215.1 175.95 218 176 217.45 176.1 216.9 173.25 215.8 171.65 214.7 171.35 214.45 170.9 214.35 167.6 213.3 164.25 214.55 163.75 214.7 163.35 214.6 162.95 214.45 162.6 214 161.45 212.75 159.65 212.7 159.15 212.7 158.65 212.6 156.1 212.45 153.55 212.3 151.8 212.25 150.95 212.45 150.45 211.9 150 212.05 148.4 212.55 147.4 212.95 145.7 213.55 144.8 214.9 144.6 215.25 144.3 215.35 146.3 215.05 144.35 216.5 142.5 216.25 144.3 215.35 143.6 215.25 142.95 215.65 140.9 217.15 139.25 219.55 136.6 223.55 138.9 227.6 140.1 229.6 142.85 229.65 145.1 229.65 147.35 229.2 147.15 229.45 146.65 230.6 146.4 231.25 146.05 231.85 144.35 235.25 145.55 238.85 145.95 240 146.9 240.95 147.65 241.65 148.85 241.85 149.95 240.95 150.95 241.45 150.7 241.7 150.45 241.8 149.55 241.9 148.85 241.85 148.75 241.95 148.55 242.1 146.75 243.8 148.15 246.4 148.4 246.8 148.85 247.1 149.2 247.3 149.45 247.55 151.1 248.85 153.5 248.4 153.8 248.35 154.15 248.25 155.3 247.95 156.05 247.2 156.05 246.35 156.55 246 156.85 245.8 157.1 245.55 156.75 246.55 156.05 247.2 156.05 247.75 156.3 248.5 156.7 249.55 157.65 249.55 161.4 249.65 163.4 247.2 163.75 246.8 164.1 246.4 164.8 245.6 165.75 245.55 165.75 244.7 165.9 246.55 166 248.25 167.75 247.9 170.4 247.3 171.8 245.8 172.1 245.4 172.35 245
M 155.6 216.5
Q 150.05 220.5 151.1 227.15 151.2 227.95 151.45 228.7
M 157.1 233.8
Q 155.7 236.95 158.1 239 160.3 240.9 163.2 241.45
M 165.25 287.85
Q 164.25 289.35 163.4 291 163.2 291.4 163.1 291.85 162.7 293.2 162.4 294.5 162.2 295.2 162.1 296 161.95 296.5 161.8 297.05 161.3 299.35 160.85 301.65 160.7 302.6 160.7 303.6 160.7 305.5 160.35 307.2 160.15 308.45 160 309.65 159.55 312.25 159.35 314.85 159.15 317.5 158.85 319.95 158.65 321.85 158.95 323.55 159.15 324.75 159.15 326.05 159.15 327.85 159.2 329.7 159.3 332.2 159.4 334.65 159.4 335.2 159.6 335.7 160.35 337.55 160.25 340.25 160.15 342.1 160 343.9 159.9 344.6 159.85 345.3 159.85 345.6 159.8 345.9 159.65 346.7 159.55 347.45 159.4 347.95 159.3 348.45 158.9 350.45 158.45 352.35 157.8 354.75 157.1 357.1
M 131.6 339.75
Q 132.15 341.45 132.1 343.3 132.1 343.8 132.1 344.35
M 131.6 339.25
Q 132.15 339.5 132.6 339.75 134 340.4 134.1 340.45 135.7 340.7 136.8 341.1 139.2 341.9 141.8 342.35 142.85 342.55 143.85 342.75 145.9 343.05 147.95 343.65 148.65 343.8 149.45 343.95 154.35 344.6 159.1 345.15 159.45 345.2 159.85 345.3
M 132.55 338.1
Q 141.05 334.75 150.4 331.75 151.85 331.15 153.5 330.9 156.35 330.35 159.2 329.7
M 132.6 346.35
Q 136.1 346.85 137.95 348.15 138.25 348.4 138.7 348.5 143.45 350.05 148.4 350.75 149.7 350.95 150.9 351.1 151.2 351.2 151.45 351.2 154.15 351.45 156.55 351.95 157.5 352.15 158.45 352.35
M 168.35 410.6
Q 161 392 162.15 371.85 162.25 369.8 162.35 367.65 161.7 367.6 161.2 367.2 159.2 365.85 158.9 363.7 158.85 363.2 158.7 362.7 158.6 362.2 158.6 361.65
M 303.9 207.15
Q 302.3 205.4 300 205.4 299.35 205.4 298.8 205.2 298.5 205.05 298.15 205.05 296.85 205.1 295.65 205.45 293.6 206 291.75 207.15 290.85 207.65 289.9 207.2 288.9 206.8 288.2 206.15 288 206 287.95 205.75 287.8 205 288 204.55 288.15 204.4 288.15 204.15 288.2 203.85 287.7 203.85 287.45 203.85 287.25 203.65 287.1 203.45 286.9 203.35 286.75 203.15 286.55 202.95 285.85 202.45 285.15 202.25 284.75 202.2 284.25 201.95 283.8 201.75 283.35 201.65 283.25 201.55 283.1 201.45 281.85 199.7 280.05 200.25 279 200.55 278.05 201.2 277.35 201.65 276.55 202.45 276.45 202.6 276.2 202.6 275.35 202.6 274.6 202.25 274.45 202.2 274.4 202.2 273.6 201.7 272.95 201.3 272.75 201.2 272.55 201.1 270.55 200.55 268.75 201.5 268.45 201.65 268.25 201.9 266.6 203.55 265.45 205.05 264.9 205.95 264.9 207.35 264.8 208.45 265.95 208.35 266.15 208.35 266.4 208.45 266.55 208.5 266.6 208.5 265 209.2 264.2 210.4 264 210.6 263.85 210.85 263.1 212.6 263.75 214.45 264 215.5 264.3 216.1 264.55 216.7 265.15 217.15 265.25 217.25 265.45 217.2 266 217 266.35 217.6 266.4 217.7 266.6 217.85 267.55 218.35 269.15 218.15 267.8 219.15 267.1 220.45 266.8 220.95 266.7 221.6 266.7 221.7 266.65 221.75 266.35 223.1 266.2 224.5 266 226.85 266.85 228.45 267.5 229.6 268.1 231 268.25 231.15 268.25 231.3 268.5 231.85 268.6 232.3 269.15 234.05 270.45 234.6 271.4 235 272.55 234.8 274 234.6 275.5 234.15 275.55 234.15 275.75 234.1 275.7 234.05 275.6 233.95 275.55 233.65 275.55 233.2 275.6 232.95 275.6 232.75 275.6 232.3 276 232.2 276.05 232.2 276.1 232.05 276.5 231.35 277.15 231.8 277.15 233 276 233.9 275.85 234.05 275.75 234.1 275.75 234.2 275.8 234.35 276.5 236.45 277.75 237.85 278.55 238.6 279.45 238.65 280.65 238.8 281.7 238.5 281.85 238.4 281.95 238.35 283.95 237.2 286.1 236.25 286.65 235.95 286.85 235.55 287 235.35 287.25 235.15 287.8 234.8 288.55 234.1 288.65 235.5 289.95 235.35 290.15 235.35 290.4 235.25 291.25 234.8 292.25 234.65 292.3 234.65 292.45 234.8 293 235.15 293.85 235 293.9 234.9 294.05 234.8 294.75 234.15 295.95 233.9 296 233.9 296.05 234.1 296.25 234.8 297.1 234.4 297.35 234.2 297.65 234.05 297.9 233.9 298.15 233.7 299.1 232.95 299.65 231.8 299.75 231.6 299.75 231.35
M 300.5 231.6
Q 300.5 231.7 300.6 231.75
L 300.65 231.8
Q 301.6 233.45 302.15 235.15 302.5 236.25 302.75 237.4 302.95 238.3 303.25 239.2 303.4 239.6 303.55 240.15 304.45 242.1 305.2 243.5 305.35 243.75 305.55 244.05
M 246.6 235.5
Q 245.7 236.05 244.8 236.5 244.5 236.65 244.15 236.7 242.95 236.9 241.7 236.9 242.75 234.8 245.75 235.3 246.15 235.35 246.6 235.5 Z
M 316.9 250.6
Q 319.7 251.8 321.7 254.3 321.85 254.5 321.95 254.7
M 311.45 251.3
Q 309.9 252.4 309.2 253.8 308.9 254.6 308.65 255.4 308.6 255.75 308.45 256.1
M 310.05 268.1
Q 310 268.3 309.9 268.55 309.65 269.6 309.8 270.75 309.8 271.15 309.9 271.5 310.85 271.25 310.8 270.25 310.8 270 310.8 269.75 310.8 269.6 310.8 269.5 310.8 268.65 310.3 268.1 310.2 267.95 310.05 268.1 310.1 267.9 310.2 267.7
M 310.05 268.1
L 310 268.1
Q 309.8 268.2 309.9 268.55
M 305.75 250.15
Q 303.3 249.65 301.75 251.45 301.45 251.75 301.15 251.95 300.15 252.7 299.75 253.8
M 295.35 258.55
Q 293.7 259.95 293.3 261.85 293.2 262 293.15 262.1 292.85 263.15 292.75 264.4 292.7 264.8 292.7 265.15 292.6 266.5 292.4 267.7 292.3 268.35 292.3 268.95 292.25 270.3 291.95 271.5 291.8 271.9 291.8 272.3 291.7 273.5 291.35 274.65 291.3 275 291.3 275.4 291.25 277.4 290.1 278.5 289.45 279.15 289.1 279.5 288.2 280.4 287.3 281.3 287.1 281.5 287.05 281.75 286.65 282.65 287.1 283.6 287.25 283.8 287.3 284.05 287.35 284.65 287.45 285.3 287.5 286.5 287.2 287.6 287.05 288.05 286.75 288.6 285.85 290.3 285.1 291.95 284.65 292.85 284.5 293.95 284.45 294.2 284.4 294.4 284.05 295.1 284.05 296 284.05 296.1 284.05 296.25 283.6 298.05 282.65 299.8
M 294.95 288.8
Q 295.2 288.05 295.5 287.25 295.55 287 295.65 286.75 296 284.6 296.35 282.45 296.5 281.15 296.9 280.35 296.95 280.15 297 279.9 297.1 279.65 297.15 279.4 297.2 279 297.2 278.65 297.4 277.5 297.6 276.35 297.6 276.2 297.65 276.1 298.25 273.95 299.5 272.55
M 293.65 290.05
Q 294.1 288.55 293.55 287.2 293.4 287 293.4 286.75 293.4 286.25 293.4 285.75
M 291.3 297.2
Q 291.25 297.45 291.2 297.7 291.1 297.95 291.1 298.2 292.7 296.85 292.95 295.4 293 295.15 293 294.9 293.15 293.95 293.35 293.1 293.4 292.75 293.45 292.35 293.55 292.25 293.6 292.1 293.65 291.85 293.7 291.6 293.8 291.35 293.9 291.1 294.25 290.15 294.4 288.8
M 296.9 305.4
Q 296.9 303.35 297 301.3 297 301.2 297 301.05 297.15 300.3 297.2 299.55 297.35 298.35 297 297.7 296.9 297.5 296.75 297.3 296.2 296.35 296.35 294.95 296.35 294.9 296.45 294.5 296.15 292.85 295.8 291.4 295.75 291.15 295.75 290.9 295.35 287.9 296.65 285.8
M 296.65 293.7
Q 296.5 294.2 296.45 294.5
M 320.35 276.35
Q 319.85 277.55 319.45 278.2 319.3 278.4 319.2 278.55 318.9 279.35 318.9 279.95 318.75 282.5 319.15 284.8 319.2 285.05 319.2 285.3 319.4 287.55 319.15 289.55 320.3 287.6 321.35 286 321.5 285.75 321.6 285.5
M 314 261.85
Q 314 268.7 314 275.6 314 276.1 314 276.6
M 310 284.2
Q 309.85 285.2 310.05 286.05 310.05 286.2 310.2 286.3 310.95 285.7 310.8 284.3 310.8 284.15 310.7 284.05 310.55 283.8 310.45 283.5 310.2 283.85 310 284.2 309.6 284.9 309.55 285.8 309.55 286.4 309.8 286.5 309.9 286.55 309.9 286.85
M 306.1 271
Q 306.1 272.15 306 273.05 305.85 273.55 305.85 274.05 305.85 276.6 305.75 279.2 305.75 279.6 305.75 279.95 305.6 284.9 305.6 289.9 305.6 290.15 305.55 290.4 305.45 290.5 305.4 290.65 305.35 290.9 305.35 291.15
M 313.25 291.4
Q 313.05 292.85 312.95 294.45 312.85 299.15 312.7 303.85 312.7 304.25 312.7 304.6
M 318.55 292.15
Q 318.2 292.65 317.95 293.25 317.8 293.45 317.8 293.7 317.85 295.55 317.6 297.25 317.55 297.65 317.5 298 317.4 298.25 317.35 298.5 316.9 300.95 316.45 303.35 316.4 303.6 316.35 303.85 315.9 305.8 315.05 308 314.8 308.7 314.75 309.3 314.7 310.1 315 310.9 315.2 310.95 315.15 311.15 315.25 311.55 315.25 312.05 316.55 313.25 317.85 312.7 318.05 312.55 318.3 312.55
M 319.15 289.55
Q 319 290.4 318.8 291.15
M 320.65 275.85
Q 321.5 273 322.45 270.75 323.2 268.8 325 267.45
M 300.2 245.8
Q 303.55 246.25 304.8 248.5
M 216.2 214.95
Q 216.7 211.4 219.75 209.95 222.55 208.55 225.5 207.05 228.05 205.7 230.95 205.8 232.3 205.9 233.35 206.4
M 223.3 218
Q 226.8 219.3 227.05 222.6 227.15 223.35 227.25 224.1 227.65 226.45 226.9 228.7
M 234.5 216.5
Q 236.3 216.25 238 216.45 238.55 216.5 238.9 217.15 239.1 217.5 239.1 218 239.1 220.5 237.55 222.6
M 184.55 215.45
Q 186.45 210.95 189.95 208.75 190.2 208.6 190.4 208.4 193.15 205.75 196.5 204.15 198.4 203.25 200.45 202.9 202.65 202.5 204.5 203.05 205.05 203.2 205.6 203.35 208.75 204 210.35 206.45 212.55 209.75 214.45 213.25
M 214.2 220.05
Q 218.2 221.05 219.6 224.7 219.75 225.15 219.9 225.6 220.7 228.4 218.25 230.75
M 204.95 221.05
Q 205.45 222.1 206.1 223.05 208.45 226.55 208 231.25
M 176.95 245.55
Q 177.05 246.15 177.25 246.65 177.45 247.3 177.75 247.65 177.8 247.75 177.9 247.8 178.15 248.05 178.45 248.05 181.4 248.4 182.6 246.55 183.6 248.7 185.65 248.4 186.15 248.35 186.6 248 187.85 247.1 188.85 247.95 190.2 249.15 191.35 248.25 192.75 247.2 194.55 245.9 194.8 245.8 195.2 246.15 195.55 246.55 195.95 246.95 197.2 248.05 198.95 248.25 199.35 248.35 199.9 248.05 202.05 247.2 203.45 246.05 203.7 248.6 207 247.95 207.5 247.8 208 247.55 209.4 246.8 210.55 245.55 210.15 247.2 210.8 247.8 211.05 248.05 211.25 248.45 211.85 249.4 212.8 248.75 214.2 247.8 214.7 246.05 215.65 246.5 216.35 246.85 216.7 247.05 217.1 246.8 217.5 246.55 217.85 246.15 219.15 244.7 220.3 242.5
M 215.7 235.35
Q 213.65 238.05 213.3 240.95 213.15 241.7 213.15 242.5
M 212.15 258.75
Q 213.15 257.75 214.1 256.65 215.7 254.95 217.1 253.1 219.65 249.65 221.4 246.1 221.8 245.3 222.05 244.45 222.65 242.75 222.95 240.85 221.4 239.8 220.3 238.4
M 234 234.3
Q 235 234.3 236.05 234.2 238.2 234.05 239.45 232.2 240.2 231.1 239.9 229.75 239.85 229.45 239.6 229.2
M 232.3 243.1
Q 228.55 242.8 224.9 241.7 224.1 241.45 223.25 241 223.05 240.9 222.95 240.85
M 229.4 236.4
Q 231.5 239.8 235.5 239.7 236.3 239.7 237.05 239.95
M 176.45 217
Q 176.25 216.95 176.1 216.9
M 175.4 217
Q 175.4 218.55 175.25 220.05 175.15 220.3 174.9 220.55
M 169.85 222.6
Q 168.35 224.55 167.3 226.15 166.45 227.4 166.55 229.2 166.7 233.35 168.8 236.9
M 174.9 242.5
Q 175.75 244.05 176.45 245.55 176.45 245.6 176.5 245.6 176.9 246.1 177.25 246.65
M 171.8 245.8
Q 171.8 246.05 172.35 246.15 172.9 246.3 173.4 246.4 174.15 246.55 174.9 246.55
M 183.6 222.6
Q 182.75 224.65 182.85 226.65 182.85 227.4 183.25 228.1 183.6 228.7 184.1 229.2 184.4 229.45 184.65 229.7
M 193.25 222.6
Q 192.4 224.5 192.05 226.2 192 226.65 192.15 227.15 192.5 228.8 193.8 230.2
M 181.5 239.45
Q 184.2 241.35 184.3 244 184.4 244.75 184.65 245.55
M 197.35 239.45
Q 198.8 241.2 199.5 242.95 199.65 243.25 199.9 243.5
M 186.4 249.3
Q 188.1 254.45 191.25 258.5
L 191.275 258.525
Q 191.6126953125 258.9626953125 192 259.35
M 192.2 263.4
Q 191.95 263.4 191.75 263.4 191.8 264.65 191.95 265.95 191.95 266.7 192 267.45 192 267.7 191.75 267.95
M 191.75 263.4
Q 189.95 263.2 188.15 263 187.85 263 187.6 263 186.35 262.9 185.1 262.75 184 262.7 183.5 263 183.3 263.15 183.05 263.2 182.4 263.25 181.75 263.45 179.35 264.1 177.7 265.15 176.8 265.65 176.75 267.2 176.7 267.85 176.5 268.4 176.45 268.7 176.1 268.9 175.15 269.55 173.9 269.65 172.6 269.75 171.35 269.6 170.6 269.6 170 269.85 169.85 270 169.6 270.05 167.1 270.45 165.2 271.6 165.05 271.65 164.95 271.75 164.45 272.45 163.75 272.9 163.55 273.05 163.4 273.3 162.85 274.2 162.7 275.6 162.65 276.6 162.5 277.6 162.5 277.85 162.5 278.1 162.25 279.95 162.8 281.25 163.3 282.4 163.8 283.5 163.9 283.7 163.9 283.95 163.9 285.2 164.95 286 166.1 286.95 167.75 287.35 168.35 287.55 169 287.65 169.7 287.8 170.35 287.8 171.85 287.8 173.4 287.65 173.75 287.65 174.15 287.6 175.25 287.35 176.35 286.9 177 286.65 177.7 286.45 178.6 286.2 179.75 285.8 180.95 285.5 182.3 285.45 183.5 285.45 184.55 285.75 185.45 286.05 186.4 286.4 186.75 286.5 187.1 286.5 188.4 286.45 189.45 286.9 190.05 287.15 190.6 287.4 192.9 288.25 195 289.05 195.45 289.25 195.6 289.45 195.75 289.55 196 289.6 197.1 289.95 198.35 289.75 198.75 289.7 199.1 289.6 200.6 289.5 201.9 289.1 202.4 288.9 202.95 288.8 204.2 288.5 205.45 288.3 206 288.15 206.5 288.05 207 287.9 207.5 287.8 208.6 287.6 209.8 287.45 210.15 287.4 210.55 287.25 212.85 286.65 215.4 286.45 216.55 286.4 217.65 286.25 218.9 286.15 219.95 285.75 221.85 284.9 224 284.65 224.4 284.6 224.8 284.6 225.05 284.6 225.3 284.6 227.2 284.8 228.65 283.7 229.75 282.95 230.75 282.25 230.95 282.05 231.15 281.85
L 231.2 281.85
Q 232.4 280.6 232.9 279.4 233.1 278.9 233.35 278.55 233.5 278.4 233.55 278.1 233.6 277.85 233.7 277.6 233.55 276.35 233.55 275.05 233.5 274.95 233.45 274.8 233.35 274.7 233.25 274.55 232.3 273.15 231.65 271.85 230.95 270.35 229.75 269.4 229.55 269.25 229.5 268.95 229.1 267.9 228.8 266.7 228.65 266.05 228.45 265.4 228.15 264.55 227.45 264.1 226.7 263.55 225.8 263.15 224 262.25 221.75 261.75 221.5 261.65 221.25 261.6 220.6 261.55 219.95 261.5 219.7 261.4 219.45 261.4 218.7 261.35 217.9 261.4 214.6 261.8 211.65 262.9 211.7 263.9 211.65 264.9 211.65 265.4 211.65 265.95
M 180.75 267.95
Q 183 268 185.1 268.55 185.95 268.8 186.85 269.25 187.35 269.5 188.15 269.8 188.2 269.55 188.25 269.25 188.9 266.8 191.95 265.95
M 188.15 269.8
Q 188 270.75 188.5 271.15 188.65 271.25 188.7 271.5 188.75 271.65 188.9 271.75 189.45 272.4 190.5 273 191.25 273.5 192.45 273.8 194.65 274.55 197.3 274.4 198.25 274.3 199.1 274.25 199.5 274.2 199.9 274.2 200.95 274.05 202.05 274.05 202.35 274 202.7 274 203.8 273.95 204.95 273.75 205.45 273.7 206 273.55 207.8 272.9 209.8 271.5 210.6 271 211.2 270.3 210.75 270.25 210.3 270.25
M 191.275 258.525
Q 191.5111328125 260.9642578125 191.75 263.4
M 177.9 247.8
Q 178.05 248.15 178.2 248.45 177.7 248.05 177.45 247.55 177 246.6 176.5 245.6
M 171.6 283.5
Q 173.2 281.05 175.6 279.6 175.95 279.4 176.2 279.15
M 192.45 273.8
Q 190.65 275.5 190.15 278.1 189.7 280.55 190.4 282.95
M 188.15 271.5
Q 185.35 272.35 183 274.25 182.55 274.55 182.05 274.8
M 211.2 270.3
Q 211.65 269.8 212 269.15 212.45 268.4 212.4 267.45 212.4 266.75 211.85 266.7
M 213.35 265.95
Q 215.25 264.9 217.4 264.9 217.9 264.9 218.45 264.9
M 211.15 258.3
Q 211.55 260.6 211.65 262.9
M 211.2 270.3
Q 215.15 270.75 218.1 273.35 218.45 273.7 218.7 274.05
M 202.05 274.05
Q 203.55 277.95 203.45 282.2 203.45 282.55 203.45 282.95
M 233.7 277.6
Q 233.85 279.95 234.2 282.3 234.3 283.25 234.45 284.3 236.85 286.5 238.2 289.35 238.7 290.45 239.45 291.55 239.9 292.15 240.3 292.85 241.75 295.85 242.65 299.05 243.4 301.75 243.7 304.6
M 221.3 276.6
Q 223.65 278.2 224.9 280.1 225.1 280.4 225.35 280.65
M 231.2 281.85
Q 233 282.95 234.45 284.3
M 233.55 264.9
Q 233.25 270.1 233.55 275.05
M 229.95 310.7
Q 230.95 312.05 231.35 312.8 231.45 313.15 231.5 313.3 232.15 316.2 233.35 319.15 233.8 320.3 234.4 321.5 235.45 323.85 237 326.1 238.55 328.4 240.65 330.1
M 233.05 332.4
Q 233.35 332.2 233.7 332
M 229.85 329.2
Q 232.15 328.2 234.45 327.5 234.65 327.45 234.9 327.35
M 240.15 332.65
Q 239.9 333.65 239.9 334.65 239.9 335.2 240.05 335.7 241.05 340.3 242.25 344.9 243.4 348.9 245.55 353.1 246.2 354.3 246.7 355.15 247.6 356.6 248.65 357.75 249.3 357.75 249.8 357.8 250.85 357.9 251.85 358.05 252.55 358.1 253.1 358 253.5 357.85 253.9 357.8 254 357.75 254.15 357.65 254.7 357.35 255.65 357.05 255.8 356.95 255.9 356.9 256.6 356.5 257.2 356.35
M 231.5 330.6
Q 232.75 329.95 233.95 329.6
M 166.25 338.25
Q 164.8 341.35 165 345.35 165.05 347.2 164.8 348.95 164.45 351 164.15 353.05
M 178.05 356.6
Q 180.3 360.15 184.65 360.35 185.4 360.4 186.1 360.7 187.3 361.3 188.7 361.35 190.05 361.5 191.25 362.2 190.4 363.15 188.65 363.45 185.4 364.1 182.05 365.05 180 365.6 178.05 366.3 177.5 366.55 177 366.8 179.15 369.4 183.1 369.95 184.4 370.1 185.6 370.5 189.1 371.5 192.75 371.4
M 233.5 413.15
Q 233.55 410.8 233.95 408.55 234.65 405 235.15 401.4 235.25 400.6 235.35 399.85 235.5 395.3 235.35 390.7 235.25 388.95 235.15 387.15 235 384.6 234.8 382.05 234.75 381.55 234.8 381.1 235.1 379.6 234.55 377.75 233.85 378.55 231.95 379 227.25 380.15 223.3 378.4 222.5 378 221.8 377.35 220.4 375.85 217.65 375.7 214.1 375.6 211 376.2 210.05 376.4 209.05 376.45 206.5 376.55 204.85 377.8 204.2 378.25 203.5 378.65 203.2 378.75 202.85 378.95 199.75 380.65 195.8 380.8 195.3 380.8 194.8 380.85 192.9 381.05 191.2 380.55 189.25 379.95 187.1 379.85 185.85 379.8 184.65 379.4 184.3 379.25 184 379.15 182.3 378.3 180.55 376.85 179.6 376.1 177.9 375.6 177.2 375.4 176.45 375.5 173.65 375.9 172.25 374.5 171.85 374.1 171.55 373.75 170.2 372.2 168.35 370.25 166.85 368.65 165.65 367.35 165 366.7 163.75 367.4 162.95 367.75 162.35 367.65
M 234.55 377.75
Q 234.9 377.35 234.95 377 235 376.65 235.45 376.35 236.3 375.85 237.6 375.6 240.2 375.15 239.55 371.85 239.4 371.35 239.35 370.8 239.25 370.2 239.25 369.6 237.75 369.15 236.3 368.8 236.8 366.8 237.05 364.85 237.1 364.3 237.2 363.75 237.25 363.2 237.25 362.6
M 213.6 361.15
Q 212.9 365.5 213.1 369.8 213.1 370.3 213.1 370.8
M 308.7 298.75
Q 308.7 298.9 308.65 299.05 308.5 299.55 308.85 299.85 309.05 300.05 309.15 300.3 309.9 300 309.8 299.05 309.8 298.75 309.8 298.5 309.8 298.25 309.75 298 309.65 297.5 309.6 297 309.55 296.75 309.4 296.5 309.05 297.05 308.95 297.75 308.9 298.25 308.7 298.75 308.95 297.75 308.9 296.75
M 290.85 304.35
Q 292.85 304.6 294.25 305.25 294.4 305.4 294.65 305.45 295.1 305.65 295.7 305.55 296.35 305.5 296.7 305.9 298.85 306.6 300.35 307.05 302.5 307.8 304.85 308.1 305.35 308.2 305.65 308.3 306 308.45 306.35 308.55 307.5 308.85 308.9 308.75 309.3 308.7 309.65 308.75 310.6 308.7 311.45 308.8 312.1 308.95 312.7 309 313.1 309.05 313.5 309.15 314.1 309.25 314.75 309.3
M 314 315.1
Q 313.1 314.95 312.15 314.9 310.7 314.65 309.35 315.3 310.3 316.1 311.7 316.25 312.2 316.3 312.7 316.35 313.15 316.5 313.55 316.65
M 313.5 317.4
Q 310.95 318.7 310.2 321.45 310.2 321.6 310.2 321.7 312.85 320.7 314.8 319 315 318.8 315.25 318.65 315.5 318.55 315.75 318.4
M 315 310.9
Q 315 310.95 315.05 311.05 315.05 311.1 315.15 311.15 314.5 312.8 314.05 314.35
M 314.25 314.85
Q 314.75 315.1 315.2 315.4 316.2 316.2 317.55 316.25 317.65 316.25 317.8 316.25 318.25 316.3 318.65 316.3 318.9 316.25 319.2 316.25 319.25 316.1 319.3 316 319.65 315.35 319.9 314.8
M 315.5 318.9
Q 315.25 320 314.8 321 314.45 321.9 314.5 323 315.45 322.8 315.95 321.9 316.55 320.95 317.15 319.65 317.5 320.3 317.8 320.95 318.1 321.6 318.65 322.45 319.4 321.7 319.15 320.2 318.95 319.15 319 318.15 319.05 317.15 318.65 316.3
M 283.55 312.35
Q 282.8 312.75 282.35 313.3 281.9 313.95 281.45 314.45 281.25 314.6 281.15 314.8 280.7 315.25 280.3 315.55 280.25 315.65 280.1 315.75 279.75 316.2 279.25 316.25 279.15 316.25 279.1 316.25 278.75 316.25 278.9 315.75 279.15 315.15 279.5 314.55 280.4 313 281.4 311.65 279.8 312.25 278.35 312.6 277.75 312.8 277.2 312.9 276.9 312.9 276.55 312.95 276.45 312.95 276.3 313 276.55 312.3 277.35 311.6 278.55 310.4 279.8 309.25 280 309.15 280.2 309 280.25 308.85 280.4 308.8 281.1 308.1 281.8 307.55 282.2 308 282.75 308.3 282.9 308.45 283.1 308.55 283.45 308.7 283.75 308.8 283.95 308.95 284.2 308.95 286.8 309.05 288.85 308.1 288.9 308 289 307.85 289.65 306.9 289.95 305.9 290.1 305.5 290.15 305.15 290.25 304.5 290.3 303.85 290.35 302 290.5 300.25 290.5 300 290.6 299.75 290.8 299.2 291.05 298.45 291.05 298.35 291.1 298.2
M 282.9 305.65
Q 284.4 306.45 285.8 306 286.1 305.9 286.5 305.8 286.75 305.75 287 305.7 287.25 305.65 287.5 305.65
M 288.25 308.7
Q 288.45 308.5 288.65 308.3 288.7 308.2 288.85 308.1
M 288.65 308.3
Q 289.85 309.25 290.8 309.85 291.75 310.45 292.3 311.35 292.25 311.6 291.8 311.55 291.7 311.55 291.55 311.55 290.55 311.6 289.55 311.3 289.25 311.2 289 311.15 288.45 310.9 287.9 310.7
M 287.5 310.85
Q 286.65 311.9 286.1 313.15 285.5 314.35 284.75 315.4 284.55 315.65 284.4 315.95 284.3 316.05 284.25 316.2 284.15 316.25 284.05 316.35 283.75 317.15 283.3 317.3 283.25 317.3 283.15 317.3 283 317.25 283 317 283.1 315.8 283.35 314.65 283.7 313.3 284 312.1
M 282.4 300.25
Q 282.15 300.8 281.95 301.3 281.5 302.75 281.5 304.35 281.5 304.5 281.65 304.55 282.35 304.85 282.15 305.65 282.05 306.25 281.9 306.9
M 267.65 301.05
Q 272.8 302.35 277.85 303.15 279.1 303.35 280.4 303.6
M 243.2 305.65
Q 243.35 306.25 243.55 306.95
M 251.05 322.7
Q 251.15 322.85 251.3 323.05 252.7 324.7 253.25 327.05 253.4 327.55 253.5 328 253.65 328.3 253.65 328.55 253.7 330.55 254.2 332.2 254.4 332.9 254.5 333.65 254.65 334.15 254.85 334.65 255.45 336.85 255.8 339.25 256.15 342.35 256.95 345.4
M 256.8 364.7
Q 257.3 365.15 257.95 365.3 258 365.3 258.1 365.3 259.1 365.4 260 365.25 261.15 364.9 262.2 364.2 263.2 363.45 264.25 362.75 265.2 362 265.55 361.05 265.95 360.1 266.65 359.45 267.3 358.75 268.2 357.75 269.05 356.65 269.6 354.3 269.75 353.35 269.15 353.1 268.9 353.05 268.7 353.15 266.55 354.75 264.3 356.85
M 257.45 346.4
Q 258.5 349.85 260.3 352.15 260.5 352.4 260.7 352.65 261.45 352.1 262.25 352 262.55 352 262.65 352.35 262.8 352.5 262.8 352.8 262.8 353.35 262.65 353.8 262.6 354.05 262.6 354.3 264.2 352.65 265.9 351.9 266.1 351.75 266.35 351.75 267.1 351.75 266.85 352.8 266.65 353.55 266.35 354.3
M 260.7 352.65
Q 261.15 353.45 261.25 354.55 261.25 354.8 261.25 355.05 261.3 356.2 262 357.1
M 262 354.8
Q 262.25 354.5 262.6 354.3
M 258.95 352.25
Q 259.1 352.9 259.1 353.55 259.1 353.8 258.95 354.05
M 253.95 361.9
Q 254.6 362.55 255.1 363.2 255.65 363.9 256.45 364.35
M 250.85 360.15
Q 253.75 362.25 257.4 361.5 257.7 361.4 258 361.3 260.6 360.35 262 357.6
M 248.65 357.75
Q 249.65 358.8 250.85 359.65
M 242.2 462
Q 244.25 462.75 246.15 463.75 246.5 464 246.85 464.45 251.1 470.05 249.8 476.8
M 225.85 492.05
Q 233.7 486.85 242.65 483.2 243.95 482.65 245.3 482.15 246.85 481.5 248.3 480.85 249.55 480.35 250.85 479.85
M 231.95 401.4
Q 232.2 402.65 232.55 403.9 233 405.55 233.1 407.5 233.25 409.25 233.25 411.05 233.25 411.8 233.15 412.55 233 413.9 232.85 415.15 232.85 415.4 232.8 415.6 234.05 424.45 233.7 434.05 233.55 438.1 233.15 442.1 233.05 443.2 232.9 444.25 232.55 448.25 232.4 452.35 232.35 455.55 231.5 458.5
M 232.8 415.6
Q 232.65 416.7 232.45 417.7
M 231.9 412.2
Q 232.05 412.5 232.15 412.8 232.55 413.65 232.65 414.65 232.75 415.15 232.8 415.6
M 193.85 400.45
Q 198.3 410 205.85 414.9 207.05 415.65 208.1 416.7
M 208.5 418.7
Q 208.35 420.8 208.1 422.8 207.7 426.75 208.35 430.5 208.5 431.75 208.5 433 208.8 443 210.85 452.4 211.45 454.8 212 457.5 212.1 457.65 212.15 457.9 212.25 458.35 212.4 458.9 212.45 459.2 212.5 459.45 212.6 459.7 212.5 460 212.5 460.1 212.6 460.2 213.4 463.65 214.85 467.05 215.4 468.3 215.9 469.55
M 192.2 410.55
Q 192.3 415 192.25 419.75 192.15 425.45 191.35 430.9 190.6 436.3 189.7 441.65 189.7 441.7 189.7 441.85 189.65 442 189.65 442.15 189.25 445.6 188.7 449.3 188.7 449.35 188.7 449.4 190.6 446.55 193.7 446.15 198.55 445.55 201.8 448.4 202.75 449.15 203.2 450.25 204.45 453.3 204.45 456.9
M 170.4 408.55
Q 167.35 416 167.55 423.8 168.05 440.7 171.35 456.9 171.35 457.15 171.4 457.4
M 188.15 450.3
Q 188.3 450 188.5 449.75 188.55 449.55 188.7 449.4
M 189.15 449.3
Q 187.75 454.5 185.6 459.45 185.35 459.95 185.1 460.45
M 168.9 458.2
Q 169.3 459.15 170.35 459.95 170.6 460.2 170.85 460.45 174.6 463.45 180 463.15 180.75 463.05 181.5 463.05 183.05 462.95 184.55 462.8 185.35 462.75 186.05 462.35 187.1 461.65 187.1 460.45 187.1 459.45 186.6 458.95
M 176.95 476.3
Q 181.35 475.35 184.7 472.85 185.6 472.2 186.65 471.85 193.1 469.3 197.3 466 197.9 465.6 198.5 465.25 201.9 463.05 203.95 460.45 204.2 460.2 204.45 459.95
M 171.35 456.9
Q 169.85 456.4 168.3 456.4 168 457.5 168.2 458.5 168.25 458.8 168.35 459.2 169.05 465.7 169.05 472.2 169.05 472.75 169.3 473.25
M 181.5 463.05
Q 180.65 465.85 179.7 468.2 179.5 468.65 179.5 469.15
M 168.8 473.25
Q 168.8 474.5 168.8 475.8 170.25 478.5 173.9 478.05 175.8 477.85 177.45 476.8
M 241.7 463
Q 238.55 461.3 235.45 462.35 234.5 462.75 233.5 463
M 232.05 458.2
Q 231.4 460.45 231.15 462.75 231.15 463.15 231 463.5 230.3 467.85 229.7 472.2
M 212.4 458.9
Q 212.4 459.45 212.5 460
M 215.15 468.65
Q 213.75 469.05 213.15 469.3 212.95 469.4 212.9 469.7 212.8 470.9 213.15 471.95 213.2 472.1 213.35 472.2 215.85 473.85 219 473.85 219.25 473.85 219.5 473.95 220.3 474 221.05 474 221.75 473.95 222.1 474.15 222.3 474.25 222.55 474.25 226.35 474.45 229.95 473.7 231.45 473.3 232.65 472.15 233.25 471.6 232.4 470.75 232.2 470.55 231.95 470.4 231.7 470.2 231.45 469.95
M 212.6 471.95
Q 212.6 473.15 212.9 474.3 213.05 474.9 213.2 475.5 213.3 475.65 213.35 475.8 213.9 477.1 214.25 478.55 215.25 483.45 216.85 488 217.1 488.75 217.15 489.5
M 213.2 475.5
Q 213.75 482.5 215.75 489 215.95 489.5 216.2 490
M 216.65 488.55
Q 216.65 491.15 217.85 492.5 218.75 493.45 220.3 493.3 222.3 493.2 223.95 492.3 224.35 492.1 224.8 492 225.1 491.85 225.4 491.7 225.85 491.6 226.25 491.4
M 230.2 475.8
Q 228.35 480.2 227.05 484.95 226.9 485.55 226.65 486.2 225.95 488.1 225.35 490
M 514.3 563.6
Q 513.55 561.65 512.25 560.9 512.1 560.8 511.9 560.85 511.2 561.1 510.9 561.8 509.9 563.85 509.8 566.2 509.8 566.5 509.8 566.8 509.8 567.75 510.3 568.4 511.55 570.15 513.9 570
M 506.9 560.8
Q 506.65 563.15 506.6 565.6 506.6 565.9 506.55 566.2 506.35 567.95 506.3 569.8
M 518.5 561
Q 518.0240234375 562.67734375 517.675 564.35 517.967578125 564.522265625 518.025 564.65 519.5109375 563.246875 520.95 561.85 521.45 561.4 521.95 561
M 522.15 569.6
Q 520.9 569.05 520.15 567.95 519.02734375 566.40625 518.025 564.65 517.7685546875 564.896875 517.5 565.15 517.1689453125 566.7791015625 516.95 568.4 516.85 569.05 516.7 569.6
M 517.675 564.35
Q 517.579296875 564.7498046875 517.5 565.15
M 502.7 561
Q 502.25 564.2 502.05 567.4 502 567.9 501.95 568.4 501.9 568.6 501.9 568.8
M 496.85 560.4
Q 496.8759765625 560.73671875 496.9 561.075 498.8193359375 564.4841796875 500.7 567.8 501.05 568.45 501.45 569.05 501.65 569.45 502.1 569.6
M 496.9 561.075
Q 496.9568359375 562.66953125 496.75 564.2 496.65 565 496.65 565.8 496.55 567.6 496.5 569.4 496.5 570.25 496.25 571
M 529.55 559.6
Q 528.4 562.1 527.65 564.8 527.05 567 526.5 569.2 526.3 570 526.15 570.8
M 524.95 560
Q 526.35 561.4 527.35 563 527.45 563.2 527.55 563.4"/>

<path id="Layer0_0_2_STROKES" stroke="#000000" stroke-width="0.5" stroke-linejoin="round" stroke-linecap="round" fill="none" d="
M 322.2 212.2
Q 322.9 212.05 323.5 212 323.75 211.9 324.05 211.9 324.05 212.05 324.05 212.2 323.9 212.7 323.5 213.05 324.3 213.45 325.15 213.5 325.6 213.5 325.35 214.2 325.3 214.45 325.15 214.65
M 343.2 212
Q 344.15 215.15 344 218.4 344 218.8 344 219.2
M 335.2 207.2
Q 336.25 210.3 336.35 212.8 336.4 213.6 336.2 214.45 336 215.2 335.75 215.9 335.6 216.4 335.2 216.8
M 335.2 221.6
Q 336 223.2 336.5 224.9 336.8 226 336.85 227.2 337 229.4 336 230.4
M 352.8 214.4
Q 351.9 220.55 348.75 224.75 348.4 225.2 348 225.6
M 360.3 356.65
Q 360.75 356.8 361.2 356.9 364.75 356.85 368.45 357.4 368.95 357.55 369.6 357.55 372.25 357.85 374.8 358.25 376.45 358.55 378.3 358.5 378.6 358.25 378.9 358.1 379.3 357.9 379.7 357.75 379.8 357.75 379.85 357.75
L 379.95 357.8 380 357.75
Q 380.3 357.55 380.85 357.55 381.1 357.55 381.35 357.55 382.2 357.75 383 358 383.05 358 383.1 358.05 383.35 358.05 383.5 358.1 383.6 358.2 383.7 358.2 383.95 358.3 384.3 358.45 384.4 358.5 384.45 358.5 384.65 358.6 384.85 358.75
M 350.15 361.5
Q 349.8 361.5 349.55 361.6 349.4 361.75 349.25 362.05 349.2 362.2 349.1 362.35 349.1 362.45 349.1 362.5 349.05 363 349.45 363.2
L 349.5 363.25
Q 349.65 363.3 349.9 363.3 350.15 363.3 350.25 363.25 350.4 363.2 350.6 363.2 350.65 363.2 350.65 363.15 350.9 363 351.15 362.6 351.15 362.55 351.15 362.5 351.15 362.3 351.15 362.25 351.2 362.2 351.15 362.1 351.15 362 351.15 361.85 351.1 361.6 350.9 361.55 350.75 361.5 350.7 361.4 350.4 361.35 350.15 361.5 Z
M 364.3 363.95
Q 364.3 364.2 364.05 364.3 363.8 364.4 363.95 364.3 364.05 364.2 364.1 364.15 364.25 364.1 364.3 363.95 364.25 363.95 364.1 363.95
L 364.1 363.9
Q 364.2 363.85 364.25 363.7 364.3 363.7 364.3 363.65 364.3 363.6 364.3 363.5 364.25 363.6 364.1 363.6
L 364.05 363.5
Q 364.25 363.3 364.3 363.2 364.35 363.2 364.3 363.15 364.25 363 364.05 362.95 364.1 362.9 364.2 362.75 364.2 362.7 364.2 362.6 364 362.6 363.85 362.7
L 363.8 362.7
Q 363.95 362.6 363.95 362.5 364 362.5 364 362.45 363.95 362.45 363.85 362.45 363.65 362.5 363.65 362.3 363.75 362.1 363.85 362 363.75 362.05 363.55 362.2
L 363.5 362.2 363.55 362.25 363.4 362.25
Q 363.35 362.3 363.35 362.25
L 363.3 362.25
Q 363.15 362.25 363.1 362.1 363.15 362.05 363.3 362.05 363.3 362 363.25 361.9 363.25 361.75 363.35 361.6 362.65 361.65 362.45 362 362.45 362.05 362.45 362.1 362.45 362.45 362.85 362.55
L 362.9 362.6
Q 363.1 362.75 363.3 362.8 363.5 362.9 363.65 363.15 363.8 363.4 363.55 363.6 363.35 363.75 363.15 363.9 363.05 363.95 363.05 364.15 363.05 364.45 363.25 364.65 363.3 364.8 363.35 364.85 363.4 364.9 363.5 364.9 363.75 364.95 364.05 364.95 364.7 364.95 364.95 364.4 365 364.35 365 364.3 365.25 363.85 365.05 363.4 365.05 363.25 365 363.05 364.8 362.75 364.7 362.45 364.7 362.35 364.7 362.3 364.55 361.8 363.95 361.6 363.85 361.6 363.8 361.55 363.6 361.5 363.4 361.5
L 363.35 361.55 363.35 361.6
M 363.5 362.2
Q 363.55 362.1 363.6 362 363.55 362 363.4 362 363.35 362 363.3 362.05
L 363.3 362.1
Q 363.35 362 363.5 362.05
L 363.55 362.05
Q 363.5 362.1 363.5 362.2
L 363.4 362.25
M 363.35 362.2
L 363.3 362.1
Q 363.25 362.1 363.25 362.2 363.3 362.2 363.35 362.2
L 363.5 362.2
M 363.35 362.2
L 363.35 362.25
M 364.9 373.75
L 364.9 373.7
Q 365.05 373.55 365.15 373.4 365.2 373.4 365.2 373.35 365.2 373.3 365.2 373.25
L 365.15 373.15
Q 364.8 373.15 364.5 373.15 364.55 373.05 364.6 373 364.75 372.9 364.8 372.8 364.9 372.8 364.9 372.75 364.95 372.65 364.95 372.6 364.9 372.6 364.8 372.6 364.55 372.65 364.3 372.65 364.35 372.4 364.5 372.2 364.6 371.95 364.5 371.85 364.3 371.7 364.1 371.75 364 371.75 363.85 371.75
L 363.85 371.7
Q 364 371.65 364.05 371.5 364.1 371.5 364.1 371.45 364 371.4 363.85 371.5 363.8 371.6 363.75 371.6
L 363.75 371.65
Q 363.8 371.85 363.85 372.1 364.05 371.95 364.05 372.2 364 372.35 364 372.4 364 372.45 364 372.55 364 372.85 364.05 373.15 364.1 373.25 364.2 373.25 364.6 373.35 364.8 373.7
L 364.9 373.75
Q 364.95 373.8 364.95 373.95
L 365.05 373.95 365.15 374
Q 365.15 374.1 365 374.1
L 365 374.2 365.05 374.2
Q 365.15 374.25 365.2 374.25 365.25 374.3 365.3 374.4 365.3015625 374.45078125 365.4 374.5 365.4 374.55 365.3 374.65 365.3 374.8 365.05 375.1 365 375.15 364.95 375.15 364.75 375.35 364.5 375.45 364.25 375.5 363.95 375.6 363.3 375.65 362.8 375.4 362.65 375.35 362.55 375.25 362.55 375.2 362.45 375.15 362.45 375.1 362.45 375 362.65 374.75 362.9 374.55 363.15 374.3 363.3 374.05 363.35 373.95 363.4 373.8 363.5 373.35 363.15 373.1 362.85 372.85 362.4 372.65 362.2 372.6 362.35 372.45
L 362.35 372.4
Q 362.45 372.35 362.55 372.2 362.6 372.15 362.65 372.05 362.95 371.75 363.35 371.65 363.35 371.6 363.3 371.5 363.35 371.5 363.35 371.45 363.6 371.4 363.75 371.6 363.55 371.65 363.4 371.7 363.5 371.75 363.55 371.75 363.6 371.75 363.65 371.7
L 363.75 371.7
Q 363.65 371.75 363.6 371.85 363.8 371.9 363.85 372.1 363.95 372.2 363.95 372.35
L 364 372.4 363.95 372.45
Q 363.95 372.55 363.95 372.6 363.8 372.9 364.05 373.15 364.05 373.25 364.05 373.3 364.2 373.3 364.3 373.3 364.3 373.55 364.1 373.7 364.2 374 364.55 374.05 364.7 374.05 364.9 374.1 364.9 374.05 364.9 374
L 364.95 373.95 364.9 373.95
Q 364.8 374 364.7 374 364.6 373.85 364.9 373.75 Z
M 363.35 371.65
L 363.4 371.7
Q 363.4 371.75 363.35 371.75
L 363.35 371.85
Q 363.4 371.85 363.55 371.75
L 363.6 371.85 363.55 371.85
Q 363.3 372.05 363.25 372.3
L 363.4 372.3
Q 363.4271484375 372.2865234375 363.45 372.275 363.4701171875 372.25234375 363.475 372.225 363.5 372.1615234375 363.5 372.1
L 363.55 372.1
Q 363.5181640625 372.163671875 363.475 372.225
L 363.475 372.275
Q 363.625 372.1833984375 363.75 372.1 363.8 372.1 363.85 372.1 363.85 372.15 363.85 372.3 363.85 372.35 363.8 372.4 363.65 372.6 363.55 372.8
L 363.6 372.8
Q 363.75 372.8 363.8 372.8
L 363.85 372.8 363.85 372.85
Q 363.75 373 363.65 373.15 363.65 373.25 363.6 373.25 363.65 373.35 363.8 373.3 363.95 373.3 364.05 373.3 364.05 373.5 364.1 373.7 364.1 373.75 364.05 373.8 363.95 374 363.8 374.1
L 363.85 374.2
Q 364.05 374.2 364.2 374.2
L 364.25 374.2
Q 364.2 374.3 364.05 374.4
L 364 374.45
Q 363.95 374.5 363.85 374.5 363.8 374.55 363.75 374.65
L 363.85 374.55
Q 364 374.5 364.05 374.45 364.1 374.45 364.2 374.45 364.24375 374.45 364.25 374.4 364.244140625 374.455859375 364.2 374.5 364.1 374.55 364.05 374.55 363.8 374.75 363.55 374.95 363.65 375.1 363.85 374.95 364.1 374.75 364.45 374.75
L 364.3 374.9
Q 364.25 374.95 364.2 374.95 364 375.1 363.85 375.2 363.95 375.2 364 375.2 364.25 375.15 364.5 375.1 364.6 374.75 364.75 374.45
L 364.7 374.45
Q 364.6 374.3 364.8 374.3 364.8 374.24921875 364.8 374.2 364.8 374.1 364.9 374.1
L 365 374.2
Q 364.95 374.2 364.9 374.25 364.8015625 374.25 364.8 374.3 364.75 374.4 364.75 374.45
L 364.8 374.45
Q 365 374.4 365.2 374.4 365.25 374.4 365.3 374.4 365.3 374.501171875 365.3 374.65 365.05 374.9 364.6 375.1 364.35 375.2 364.5 375.1 364.6 375 364.75 374.95
L 364.8 374.9
Q 364.896875 374.9 364.95 374.9 364.8955078125 374.9015625 364.75 374.95 364.7 375 364.55 375.1
L 364.5 375.1
M 363.45 372.275
L 363.475 372.275 363.45 372.3 363.4 372.3
M 363.45 372.275
L 363.45 372.3
M 379.95 357.8
Q 380.25 358.05 380.5 357.8 380.55 357.8 380.65 357.75 381.85 357.65 382.9 358.25 382.996875 358.2984375 383.05 358.3 383.1 358.35 383.25 358.3 383.6 358.5 383.95 358.9 384.2 358.95 384.4 359.2 384 359.45 383.6 359.7 383.25 359.9 382.8 360.2 382.75 360.35 382.65 360.35 382.5 360.35 382.3 360.45 382.05 360.45 381.95 360.45 381.5 360.35 381 360.25 380.5 360.25 380.15 360.2 379.85 360.15 379.6 360.1 379.35 360 379.25 360 378.75 360 378.45 359.65
M 380.85 358.7
Q 381.1 358.55 381.35 358.55 381.5 358.7 381.8 358.7 381.25 358.35 380.85 358.7 380.05 358.6 379.25 358.9 380.3 358.1 381.6 358.3 381.7 358.3 381.9 358.3 382.2 358.3 382.55 358.35 382.7490234375 358.3001953125 383.05 358.3
M 370.7 367.5
Q 371.05 367.45 371.15 367.65 371.2294921875 367.65 371.25 367.675 371.144921875 367.2439453125 370.9 366.95 370.8 366.7 370.35 366.5 370.15 366.35 370 366.25 369.35 366.35 369 366.5 368.95 366.5 368.9 366.55 368.8 366.65 368.7 366.65 368.3 366.75 368.2 367 368.2 367.05 368.1 367.05 368.1 367.25 368.25 367.35 368.9 367.65 369.15 368.15 369.15 368.2 369.15 368.3 369.15 368.6 368.95 368.8 368.95 368.85 368.9 368.85 368.9 369 368.75 369.1 368.75 369.15 368.7 369.15 368.7 369.35 368.55 369.5
L 368.55 369.55
Q 368.55 369.6 368.5 369.7 368.5 370 368.7 370.1 368.9 370.25 369.05 370.25 369.15 370.25 369.2 370.25 369.6 370.25 369.85 370.05 370.1 369.95 370.35 369.85 370.4 369.85 370.4 369.8 370.85 369.5 371.35 369.3 371.4 369.3 371.4 369.25 371.55 369.1 371.5 368.85 371.3 368.35 371.25 367.85 371 368.45 370.4 368.9 370.3 369.05 370.2 369.15 370.3 369.1 370.35 369.1 370.45 369.05 370.6 369
L 370.7 368.9
Q 370.65 369.05 370.45 369.1 370.40078125 369.14921875 370.3 369.15 370.15 369.3 370 369.35 369.95 369.35 369.95 369.4 369.8 369.45 369.7 369.55 369.6515625 369.55 369.6 369.55 369.6515625 369.5484375 369.7 369.5 369.75 369.5 369.75 369.4 369.85 369.4 369.95 369.4
M 369.45 367.2
Q 369.2 367.15 369 367.25
L 368.95 367.25
Q 368.9 367.45 369.15 367.35 369.35 367.25 369.45 367.2 369.7 367.05 369.95 367
L 369.95 367.05 369.95 367.15
Q 369.9 367.2 369.85 367.2 369.75 367.25 369.7 367.35 369.7 367.45 369.85 367.4 370 367.35 370.15 367.45 370 367.7 369.7 367.95 369.45 368.15 369.2 368.3 369.05 368.4 369.35 368.35 369.4 368.35 369.45 368.3 369.75 368.1 370.1 367.95 369.95 368.15 369.7 368.35 369.65 368.4 369.5 368.45 369.7 368.6 369.95 368.45 370.15 368.4 370.4 368.4 369.95 368.85 369.35 369.1 369.2 369.25 369 369.3 368.8 369.35 368.7 369.5 368.8 369.55 369.05 369.5 369.2 369.4 369.35 369.35 369.75 369.25 370.2 369.15
M 369.85 367.2
L 369.75 367.2 369.7 367.2
Q 369.45 367.35 369.5 367.2
L 369.45 367.2
M 370 366.25
Q 369.9 366.05 369.9 365.85
M 369.75 367.2
L 369.75 367.15
Q 369.7 367.15 369.65 367.2 369.6 367.2 369.5 367.2
M 369.95 367.15
L 369.9 367.15 369.85 367.2
M 369.95 367.05
Q 369.85 367.15 369.75 367.15
M 371.25 367.85
Q 371.25 367.75 371.25 367.7
L 371.25 367.675
M 370.35 369.1
Q 370.35 369.1484375 370.3 369.15
M 379.8 361.1
Q 380 361.15 380.3 361.15 380.55 361.1 380.9 361.15 381.15 361.15 381.6 361.1 382.05 361.1 382.6 360.9 383.1 360.7 383.6 360.45 383.85 360.35 384.05 360.2 384.2 360.2 384.3 360.2 384.7 359.95 384.95 359.85
M 383.95 358.9
Q 383.5 358.9 382.75 359.2 382.65 359.2 382.55 359.2 381.9 359.05 381.15 359.25 381.5 359.25 381.8 359.45 382.4 359.5 382.9 359.55 383.05 359.55 383.25 359.55 383.45 359.7 383.6 359.7
M 381.8 359.45
Q 381.4 359.4 381 359.4 380.85 359.4 380.5 359.45 380.25 359.5 380 359.55 380.9 359.7 381.85 359.65 382.1 359.65 382.4 359.7 382.65 359.7 382.9 359.55
M 381 359.4
Q 381 359.3 381.15 359.25 380.95 359.25 380.9 359.25 379.7 359.3 378.4 359.15
M 380 359.55
Q 379.7 359.55 379.55 359.75 379.6 359.75 379.7 359.7 379.8 359.65 380 359.55 Z
M 361.2 356.9
Q 364.3 357.55 367.55 358.25 371.15 359.05 374.75 359.7 376.05 360 377.35 360.2 378.15 360.35 379.05 360.4
M 381.8 358.7
Q 382.3 358.6 382.75 359.2
M 304.25 219.1
Q 304.15 218.8 304.2 218.4 304.15 217.5 304.65 216.7 304.7 216.6 304.8 216.5 305.15 215.8 305.65 215.1 306.05 214.6 306.55 214.45 306.6 214.4 306.7 214.35 307.05 214.1 307.55 214 307.75 213.95 307.9 213.95 308 213.95 308.15 213.9 308.4 213.85 308.5 213.95 308.6 213.95 308.7 213.95 309.15 213.95 309.4 214.2 309.65 214.45 310.2 214.8 310.25 214.85 310.3 214.9 310.6 215.3 311.05 215.85 311.15 215.9 311.2 216.05 311.2 216.1 311.25 216.2 311.5 216.7 311.5 217.25 311.5 217.4 311.5 217.5 311.5 217.65 311.5 217.75 311.45 218 311.5 218.35 311.5 218.55 311.4 218.65 311.3 218.7 311.25 218.85 311.05 219.85 310 219.8 309.8 219.8 309.6 219.75 309.2 219.5 308.95 219.05 308.6 218.45 308.1 218 308 217.95 307.9 217.95 306.85 217.85 307.05 218.95 307.05 219.05 307.15 219.15 307.2 219.4 307.3 219.6 307.4 220.05 307.3 220.65 307.3 220.9 307.15 220.95 307.05 220.95 307 221 306.8 221.2 306.25 221.3 305.45 221.4 304.95 220.75 304.9 220.7 304.85 220.65 304.4 220.2 304.35 219.5
L 304.35 219.4
Q 304.25 219.3 304.25 219.1 Z
M 303.45 214.2
Q 304.2 213.15 304.7 212.75 304.85 212.6 305.05 212.5 305.3 212.35 305.4 211.9 305.4 211.8 305.55 211.65 305.65 211.5 305.75 211.2 306 211.35 306.15 211.55 306.7 211.9 307.3 211.9
M 315.6 216.75
Q 315.65 216.45 315.85 216.2 316.25 215.35 317.25 214.95 317.3 214.9 317.4 214.85 318.05 214.45 318.9 214 319.45 213.9 319.95 213.95 320 213.95 320.15 213.95 320.6 213.95 321.05 214.15 321.25 214.2 321.35 214.25 321.5 214.25 321.6 214.35 321.85 214.4 321.85 214.55 321.95 214.6 322.05 214.65 322.45 214.9 322.5 215.3 322.55 215.6 322.95 216.2
L 322.95 216.3
Q 322.95 216.75 323.05 217.75
L 323.05 217.85
Q 323.05 218.45 322.75 218.95 322.7 219.1 322.65 219.15 322.55 219.3 322.5 219.4 322.3 219.55 322.25 219.85 322.05 220.05 321.85 220.05
L 321.75 220.2
Q 321.05 220.95 320.15 220.35 319.95 220.25 319.9 220.1 319.65 219.65 319.65 219.1 319.65 218.45 319.4 217.85 319.45 217.75 319.3 217.7 318.5 217.05 318.05 218.1 318 218.15 318 218.35 317.95 218.55 317.95 218.8 317.8 219.15 317.4 219.6 317.3 219.85 317.1 219.85 317.05 219.8 316.9 219.85 316.65 219.95 316.1 219.75 315.45 219.4 315.25 218.55 315.3 218.45 315.25 218.4 315.15 217.85 315.45 217.15 315.45 217.05 315.5 217.05 315.5 216.95 315.6 216.75 Z
M 292.8 220.8
Q 291.15 226.7 293.35 231.75 293.6 232.4 294.35 232.9 294.8 233.2 295.2 233.6
M 309.05 237.4
Q 309.35 236.65 309.6 236.05 309.6 236 309.6 235.95 309.65 235.75 309.85 235.5 310.1 235.1 310.45 234.6 310.5 234.55 310.55 234.5 310.8 234.2 311.25 233.95 311.65 233.65 311.9 233.5 312.45 233.4 312.9 233.15 313.05 233.1 313.15 233 313.75 232.9 314.3 232.8 314.7 232.75 315.15 232.7 315.2 232.7 315.3 232.7 315.65 232.65 315.9 232.7 315.95 232.7 316 232.7 317.15 232.8 317.95 233.4 318.35 233.8 318.65 234.35 319.05 235 319.6 235.7
M 308.2 232.75
Q 308.7 232 309.2 231.55 309.4 231.45 309.6 231.3 309.6 231.25 309.75 231.15 310.95 230.1 312.6 229.95 312.8 229.95 312.9 229.95 313.5 229.9 314.05 229.75 315.15 229.6 316.25 229.6 317.4 229.6 318.45 230.05 319.2 230.3 319.9 230.8 320.45 231.15 320.9 231.6 321.3 232.05 321.6 232.9 321.85 233.35 322 233.9 322.2 234.5 322.35 235.05 322.45 235.15 322.45 235.35 322.45 236.5 322.25 237.55 322.25 237.6 322.2 237.65 321.85 238.2 321.55 238.5 321.4 238.6 321.3 238.65 320.45 238.9 319.65 238.75 319.5 238.65 319.3 238.65 318.8 238.6 318.5 238.3 318.1 237.85 317.95 237.55 317.4 236.65 316.9 236.05 316.6 235.7 316 235.7 315.5 235.7 315 235.8 314.45 235.95 314.2 236.4 313.8 237.4 313.3 238.1 313.1 238.4 312.85 238.65 312.25 239.35 311.3 239.75 311.25 239.8 311.15 239.9 310.55 240.15 310.1 240.25 309.1 240.7 307.9 240.65 307.65 240.6 307.3 240.5 306.8 240.45 306.55 239.95 306.1 239 306.1 237.8 306.1 237.4 306.15 236.95 306.15 236.9 306.15 236.85 306.25 236 306.7 235.3 306.75 234.5 307.15 234.1 307.2 234.05 307.25 233.9 307.3 233.7 307.45 233.5 307.9 233.1 308.15 232.75
L 308.2 232.75
Q 308.1 233.2 307.95 233.45 307.9 233.7 307.55 234.05 307.4 234.3 307.25 234.6 307.05 234.75 306.95 234.85 306.8 235.1 306.7 235.3
M 313.75 222.9
Q 313.4 223.4 313.25 223.55 313.15 223.7 313.05 223.75 312.65 223.95 312.25 224.05 312 224.2 311.85 224.3 311.4 224.5 311 224.75 310.7 225 310.7 225.6
L 310.7 225.65
Q 310.75 226.05 310.85 226.15 311.25 226.6 312 226.4 312.6 226.35 313.15 226.2 313.35 226.2 313.5 226.2 313.9 226.15 314.2 225.75
M 279.2 208.8
Q 277.2 210.4 275.6 212.35 275.2 212.8 275.3 213.6 275.75 216.25 277.6 216.8
M 286.4 212
Q 283.7 215.5 283 217.8 282.8 218.4 282.9 219.25 283.25 222.45 285.6 224.8
M 313.8 360.8
Q 313.387109375 360.9376953125 312.975 361.075 313.2 361.2 313.4 361.15 313.6 361.1 313.8 361.05 314.35 360.95 314.65 361.15 315.55 361.85 315.55 363.2 315.55 364 314.95 364.55 314.8 364.7 314.7 364.85 314.35 365.5 313.4 365.6 311.45 365.9 310.6 364.6 310.5 364.5 310.5 364.4 310.3 362.9 311.2 361.8 311.3 361.7 311.4 361.65 312.187109375 361.3548828125 312.975 361.075"/>
</defs>

<g transform="matrix( 1, 0, 0, 1, 0,0) ">
<use xlink:href="#Layer1_0_1_STROKES"/>
</g>

<g transform="matrix( 1, 0, 0, 1, 0,0) ">
<use xlink:href="#Layer0_0_1_STROKES"/>

<use xlink:href="#Layer0_0_2_STROKES"/>
</g>
</svg>
