 <svg  version="1.0" xmlns="http://www.w3.org/2000/svg"  width="300.000000pt" height="257.000000pt" viewBox="0 0 300.000000 257.000000"  preserveAspectRatio="xMidYMid meet">  <g transform="translate(0.000000,257.000000) scale(0.050000,-0.050000)" fill="#15505b" stroke="none"> <path d="M2440 4940 c-442 -99 -803 -285 -1127 -581 -63 -58 -144 -120 -179 -137 -77 -39 -247 -260 -347 -452 -40 -77 -86 -155 -102 -174 -16 -18 -22 -44 -14 -58 9 -15 7 -19 -7 -11 -26 16 -86 -112 -143 -304 -369 -1250 585 -2711 1955 -2994 196 -40 824 -38 974 4 55 15 136 38 180 51 713 206 1395 909 1614 1666 295 1021 -497 2502 -1544 2885 -386 141 -907 184 -1260 105z m1280 -180 c28 -21 163 -116 300 -212 808 -563 1279 -1579 1052 -2268 l-30 -90 13 120 c75 662 -181 1379 -658 1843 -162 158 -195 184 -497 391 -137 95 -272 196 -300 227 l-50 55 60 -14 c33 -8 83 -31 110 -52z m-411 -10 c286 -61 665 -304 1002 -641 601 -601 817 -1404 575 -2134 -89 -268 -110 -269 -28 -2 277 909 -70 1783 -968 2438 -362 263 -565 329 -1016 329 -578 0 -1053 -178 -1401 -526 -183 -183 -267 -228 -111 -59 465 503 1254 744 1947 595z m-219 -138 c182 -28 437 -105 575 -175 121 -61 87 -56 -104 16 -688 258 -1333 164 -1956 -285 -83 -60 -46 6 45 81 375 307 913 443 1440 363z m79 -115 c1271 -214 2008 -1540 1471 -2647 -544 -1123 -2213 -1353 -3015 -415 -160 188 -458 589 -501 676 -189 378 -150 837 115 1359 200 393 191 426 191 -713 l0 -974 80 -109 80 -109 -5 1013 c-4 964 -3 1010 30 965 42 -57 323 -586 649 -1223 132 -258 242 -472 244 -474 2 -3 3 105 1 240 l-3 244 -205 390 c-113 215 -294 566 -402 781 l-197 392 -122 -9 c-136 -10 -177 10 -143 69 12 20 22 29 22 19 1 -9 41 20 91 66 420 387 1026 559 1619 459z m-1829 -697 c0 -11 -27 -63 -59 -116 -101 -164 -277 -548 -313 -684 -177 -662 263 -1726 859 -2078 771 -456 1974 -287 2640 369 163 160 192 158 57 -4 -706 -848 -2336 -916 -3067 -129 -672 723 -781 1768 -270 2578 51 79 153 123 153 64z m-377 -222 c-448 -898 -104 -2187 736 -2757 1210 -822 2968 -162 3323 1248 23 93 58 123 58 50 0 -22 -32 -123 -71 -225 -659 -1719 -2898 -2021 -3915 -529 -488 716 -531 1660 -106 2332 89 140 77 86 -25 -119z m-343 -207 c-209 -550 -82 -1343 315 -1961 1003 -1564 3230 -1451 4063 206 84 167 182 463 182 551 0 39 9 76 20 83 87 54 -30 -402 -179 -700 -760 -1514 -2667 -1774 -3853 -525 -597 628 -825 1567 -568 2344 13 40 28 70 33 65 4 -5 -1 -33 -13 -63z m812 -1826 c350 -494 777 -740 1341 -774 191 -12 291 -6 647 39 43 5 28 -3 -40 -22 -801 -219 -1758 169 -2033 826 -40 97 -22 82 85 -69z m2608 -495 c0 -12 -193 -110 -214 -109 -9 0 34 27 94 59 123 65 120 64 120 50z"/> <path d="M2326 3928 c86 -131 129 -460 136 -1028 1 -104 8 -212 16 -240 21 -73 46 381 30 551 -27 291 43 523 205 681 l91 88 -217 0 c-119 0 -238 6 -264 13 l-47 13 50 -78z"/> <path d="M3528 3871 c-878 -160 -1266 -1253 -718 -2022 178 -250 608 -588 865 -681 l65 -23 0 592 c0 640 8 706 101 811 144 165 524 208 758 86 130 -67 131 -67 88 6 -107 181 -425 207 -843 70 -353 -116 -324 -51 -324 -731 0 -371 -7 -539 -21 -539 -48 0 -315 192 -422 303 -556 577 -396 1603 303 1944 298 146 667 146 839 0 34 -28 57 -39 51 -24 -6 15 -37 45 -69 66 -39 26 -51 45 -36 54 32 20 -61 54 -242 89 -172 33 -207 33 -395 -1z"/> <path d="M3240 2844 c0 -59 171 -164 267 -164 149 0 198 45 68 61 -64 8 -162 37 -217 66 -112 58 -118 60 -118 37z"/> <path d="M5946 1174 c13 -34 -36 -62 -71 -41 -13 8 -15 4 -6 -11 8 -14 32 -18 56 -11 31 10 38 6 30 -15 -6 -16 -1 -29 12 -29 32 0 25 119 -7 130 -17 5 -22 -3 -14 -23z"/> <path d="M5960 741 c0 -21 -11 -45 -23 -53 -16 -10 -20 -4 -12 17 12 31 -32 38 -54 9 -6 -8 -5 -10 1 -5 7 5 30 -11 51 -35 24 -28 36 -33 32 -14 -3 17 5 28 17 26 13 -2 18 16 13 45 -12 59 -25 64 -25 10z"/> </g> </svg> 